<svg xmlns="http://www.w3.org/2000/svg" width="184" height="48" fill="#fff"><path fill-rule="evenodd" d="M44.2 0h-41C2.4 0 1.6.4 1 1S0 2.4 0 3.3v41.1c0 .9.3 1.7 1 2.3s1.4 1 2.3 1h41c1 0 1.7-.4 2.3-1s1-1.4 1-2.3V3.3c0-.9-.3-1.7-1-2.3S45 0 44.2 0h0zm-1 42.6c0 .3-.1.5-.3.7s-.4.3-.7.3l-37 .1c-.1 0-.3 0-.4-.1s-.2-.1-.3-.2-.2-.2-.2-.3-.1-.2-.1-.4V30.4c0-.3.1-.5.3-.7s.4-.3.7-.3h11.3V17.6c0-.2.1-.4.2-.6s.3-.3.5-.4c.1 0 .2-.1.3-.1H29V4.9c0-.3.1-.5.3-.7s.4-.3.7-.3h12.3c.3 0 .5.1.7.3s.3.4.3.7v37.7z"/><path d="M117 33.8h3c1 0 1.7-.2 2-.5s.7-.9.7-1.9-.2-1.5-.7-1.9-1.2-.5-2-.5h-3v4.7zm-3.2 4.3V27.6c0-.1 0-.2.1-.3s.1-.2.2-.3.2-.1.3-.2.2-.1.3-.1h6.5c3.4 0 5 1.6 5 4.7s-1.7 4.7-5 4.7h-4V38c0 .1 0 .2-.1.3s-.1.2-.2.3-.2.1-.3.2-.2.1-.3.1h-1.6c-.1 0-.2 0-.3-.1s-.2-.1-.3-.2-.1-.2-.2-.3-.1-.2-.1-.3h0zM100 28.3v-.8c0-.1 0-.2.1-.3s.1-.2.2-.3.2-.1.3-.2.2-.1.3-.1h10.7c.1 0 .2 0 .3.1s.2.1.3.2.1.2.2.3.1.2.1.3v.8c0 .1 0 .2-.1.3s-.1.2-.2.3-.2.1-.3.2-.2.1-.3.1H108v9c0 .1 0 .2-.1.3s-.1.2-.2.3-.2.1-.3.2-.2.1-.3.1h-1.6c-.1 0-.2 0-.3-.1s-.2-.1-.3-.2-.1-.2-.2-.3-.1-.2-.1-.3v-9H101c-.1 0-.2 0-.3-.1s-.2-.1-.3-.2-.1-.2-.2-.3-.1-.2-.1-.3h0zm-13.6 9.8V27.6c0-.1 0-.2.1-.3s.1-.2.2-.3.2-.1.3-.2.2-.1.3-.1H89c.1 0 .2 0 .3.1s.2.1.3.2.1.2.2.3.1.2.1.3v3.8h5.8v-3.8c0-.1 0-.2.1-.3s.1-.2.2-.3.2-.1.3-.2.2-.1.3-.1H98c.1 0 .2 0 .3.1s.2.1.3.2.1.2.2.3.1.2.1.3v10.6c0 .1 0 .2-.1.3s-.1.2-.2.3-.2.1-.3.2-.2.1-.3.1h-1.6c-.2 0-.4-.1-.6-.2-.1-.1-.1-.2-.2-.3s-.1-.2-.1-.3v-4.4h-5.8v4.4c0 .1 0 .2-.1.3s-.1.2-.2.3-.2.1-.3.2-.2.1-.3.1h-1.6c-.1 0-.2 0-.3-.1s-.2-.1-.3-.2-.1-.2-.2-.3-.1-.2-.1-.3zm-13 0V27.6c0-.1 0-.2.1-.3s.1-.2.2-.3.2-.1.3-.2.2-.1.3-.1h9.8c.1 0 .2 0 .3.1s.2.1.3.2.1.2.2.3.1.2.1.3v.8c0 .1 0 .2-.1.3s-.1.2-.2.3-.2.1-.3.2-.2.1-.3.1H77v2.5h6.3c.1 0 .2 0 .3.1s.2.1.3.2.1.2.2.3.1.2.1.3v.8c0 .1 0 .2-.1.3s-.1.2-.2.3-.2.1-.3.2-.2.1-.3.1H77v2.5h7.4c.1 0 .2 0 .3.1s.2.1.3.2.1.2.2.3.1.2.1.3v.8c0 .1 0 .2-.1.3s-.1.2-.2.3-.2.1-.3.2-.2.1-.3.1h-9.7c-.1 0-.2 0-.3-.1s-.2-.1-.3-.2-.1-.2-.2-.3-.1-.2-.1-.3h0zm-15 0V27.6c0-.1 0-.2.1-.3s.1-.2.2-.3.2-.1.3-.2.2-.1.3-.1H61c.1 0 .2 0 .3.1s.2.1.3.2.1.2.2.3.1.2.1.3v9h5.7v-9c0-.1 0-.2.1-.3s.1-.2.2-.3.2-.1.3-.2.2-.1.3-.1H70c.1 0 .2 0 .3.1s.2.1.3.2.1.2.2.3.1.2.1.3v9h1c.1 0 .2 0 .3.1s.2.1.3.2.1.2.2.3.1.2.1.3v.8c0 .1 0 .2-.1.3s-.1.2-.2.3-.2.1-.3.2-.2.1-.3.1H59.5c-.1 0-.2 0-.3-.1s-.2-.1-.3-.2-.1-.2-.2-.3-.1-.2-.1-.3h0zM167 6.4c0-.3.2-.4.5-.4h.7c.1 0 .3 0 .4.1s.2.2.2.3a1 1 0 0 0 1 .6c.5 0 1-.2 1-.6 0-.1.1-.2.2-.3s.2-.1.4-.1h.7c.3 0 .5.1.5.4s0 .7-.2 1-.3.6-.6.8c-.6.4-1.3.7-2 .7s-1.5-.2-2-.7c-.3-.2-.5-.5-.6-.8s-.2-.7-.2-1h0zm-3.4 14.8V10.7c0-.1 0-.2.1-.3s.1-.2.2-.3.2-.1.3-.2.2-.1.3-.1h1.5c.1 0 .2 0 .3.1s.2.1.3.2.1.2.2.3.1.2.1.3v8.5l4.8-8.5c.1-.2.3-.4.5-.6.2-.1.4-.2.6-.2h2.5c.1 0 .2 0 .3.1s.2.1.3.2.1.2.2.3.1.2.1.3v10.6c0 .1 0 .2-.1.3s-.1.2-.2.3-.2.1-.3.2-.2.1-.3.1h-1.5c-.1 0-.2 0-.3-.1s-.2-.1-.3-.2-.1-.2-.2-.3-.1-.2-.1-.3v-7.9l-4.4 7.9c-.1.2-.3.4-.6.6-.2.1-.4.2-.7.2h-2.8c-.1 0-.2 0-.3-.1s-.2-.1-.3-.2-.1-.2-.2-.3-.1-.2-.1-.3zm-5.6 0V10.7c0-.1 0-.2.1-.3s.1-.2.2-.3.2-.1.3-.2.2-.1.3-.1h1.6c.1 0 .2 0 .3.1s.2.1.3.2.1.2.2.3.1.2.1.3v10.6c0 .1 0 .2-.1.3s-.1.2-.2.3-.2.1-.3.2-.2.1-.3.1H159c-.1 0-.2 0-.3-.1s-.2-.1-.3-.2-.1-.2-.2-.3-.1-.2-.1-.3h0zm-9.8-1.6h3.5c1 0 1.4-.5 1.4-1.6s-.5-1.6-1.4-1.6H148v3.2zm-3.2 1.6V10.7c0-.1 0-.2.1-.3s.1-.2.2-.3.2-.1.3-.2.2-.1.3-.1h1.6c.1 0 .2 0 .3.1s.2.1.3.2.1.2.2.3.1.2.1.3V14h3.5c1.3 0 2.4.4 3.3 1.1s1.3 1.7 1.3 3-.4 2.2-1.3 3-2 1.1-3.3 1.1h-6c-.1 0-.2 0-.3-.1s-.2-.1-.2-.2c-.1-.2-.2-.4-.2-.6h0zm-11-6.7h4.5c.2 0 .3 0 .5-.1s.3-.1.4-.2.2-.3.3-.4.1-.3.1-.5 0-.3-.1-.5-.1-.3-.3-.4-.2-.2-.4-.3-.3-.1-.5-.1H134v2.4zm0 5.2h4.8c.2 0 .4 0 .5-.1s.3-.2.5-.3c.2-.3.4-.7.3-1.1 0-.4-.1-.8-.3-1.1-.1-.1-.3-.2-.5-.3s-.4-.1-.5-.1H134v2.9zm-3.2-9.1c0-.1 0-.2.1-.3s.1-.2.2-.3.2-.1.3-.2.2-.1.3-.1h7c.7 0 1.4.1 2 .3s1.2.6 1.6 1.1c.5.6.7 1.3.7 2 0 .9-.4 1.6-1 2.2 1 .6 1.6 1.5 1.6 2.8 0 1.2-.4 2.1-1.3 2.7-1 .7-2 1-3.2 1h-7.3c-.1 0-.2 0-.3-.1s-.2-.1-.3-.2-.1-.2-.2-.3-.1-.2-.1-.3V10.7zm-11.3 2.3c-.6.7-1 1.7-1 3s.3 2.4 1 3c.6.7 1.5 1 2.8 1s2.2-.3 2.8-1 1-1.7 1-3-.3-2.3-1-3-1.5-1-2.8-1-2.2.3-2.8 1zm-2.3 7.9c-1.2-1-1.7-2.6-1.7-4.8s.6-3.8 1.7-4.8 3-1.5 5-1.5 4 .5 5 1.5c1.2 1 1.7 2.6 1.7 4.8s-.6 3.8-1.7 4.8-2.8 1.5-5 1.5-4-.5-5-1.5zm-11.8-3.9h3c1 0 1.7-.2 2.2-.5s.7-.9.7-1.9-.2-1.5-.7-1.9-1.2-.5-2.2-.5h-3v4.7zm-3.2 4.3V10.7c0-.1 0-.2.1-.3s.1-.2.2-.3.2-.1.3-.2.2-.1.3-.1h6.5c3.4 0 5 1.6 5 4.7s-1.7 4.7-5 4.7h-4v1.9c0 .1 0 .2-.1.3s-.1.2-.2.3-.2.1-.3.2-.2.1-.3.1H103c-.1 0-.2 0-.3-.1s-.2-.1-.3-.2-.1-.2-.2-.3-.1-.2-.1-.3h0zm-11.6-1.6h6v-7.4H94c-.5 0-1 .1-1.3.4-.4.3-.6.8-.7 1.2l-1.4 5.7zM86 21.2v-.8c0-.1 0-.2.1-.3s.1-.2.2-.3.2-.1.3-.2.2-.1.3-.1h.6l1.6-6.4c.5-2.2 2.4-3.3 5.5-3.3H99c.1 0 .2 0 .3.1s.2.1.3.2.1.2.2.3.1.2.1.3v10.6c0 .1 0 .2-.1.3s-.1.2-.2.3-.2.1-.3.2-.2.1-.3.1H86.6c-.1 0-.2 0-.3-.1s-.2-.1-.3-.2-.1-.2-.2-.3-.1-.2-.1-.3h0zm-10-4.5h5.4v-4.4H79c-.5 0-1 .2-1.4.5s-.7.7-.8 1.2l-.7 2.7zm-4.5 4.6l2-8.1C74 11 76 9.9 79 9.9h4.6c.1 0 .2 0 .3.1s.2.1.2.2c.1.2.2.3.2.6v10.6c0 .1 0 .2-.1.3s-.1.2-.2.3c-.2.1-.4.2-.6.2h-2c-.1 0-.2-.1-.3-.2s-.1-.2-.2-.3-.1-.2-.1-.3v-2.1h-6l-.6 2.1a1 1 0 0 1-.4.6c-.2.1-.4.2-.6.2H72c-.1 0-.2 0-.3-.1s-.2-.1-.2-.2c-.1-.1-.1-.2-.1-.3v-.2zm-12.8 0V10.7c0-.1 0-.2.1-.3s.1-.2.2-.3.2-.1.3-.2.2-.1.3-.1H61c.1 0 .2 0 .3.1s.2.1.3.2.1.2.2.3.1.2.1.3v4.1h1.8c.5 0 1-.1 1.3-.4.4-.4.8-.8 1-1.3l1.3-2.3c.3-.5.7-.8 1.2-.8h2c.2 0 .3.1.4.2v.1c0 .2-.1.3-.1.5L69 14c-.2.4-.5.9-1 1.2-.4.3-.8.6-1.3.7.4.1.8.4 1 .7.4.4.7.8 1 1.3l2 3.4c.1.1.1.3.1.4v.1c-.1.2-.2.2-.4.2h-2c-.3 0-.5-.1-.7-.2s-.4-.3-.6-.6l-1-2.3c-.3-.5-.6-.9-1-1.3a2 2 0 0 0-1.3-.4H62v4.1c0 .1 0 .2-.1.3s-.1.2-.2.3-.2.1-.3.2-.2.1-.3.1h-1.6c-.1 0-.2 0-.3-.1s-.2-.1-.3-.2-.1-.2-.2-.3-.1-.2-.1-.3M179 3.9c.2 0 .5.1.6.3s.3.4.3.6v38c0 .2-.1.5-.3.6s-.4.3-.6.3H56.3c-.2 0-.5-.1-.6-.3s-.3-.4-.3-.6v-38c0-.2.1-.5.3-.6s.4-.3.6-.3H179zm0-3.9H56.3C55 0 53.8.5 53 1.4s-1.4 2.1-1.4 3.4v38c0 1.3.5 2.5 1.4 3.4s2 1.4 3.4 1.4H179c.6 0 1.3-.1 1.8-.4s1-.6 1.6-1 .8-1 1-1.6.4-1.2.4-1.8v-38c0-.6-.1-1.3-.4-1.8l-1-1.6c-.4-.5-1-.8-1.6-1S179.6 0 179 0z"/></svg>