<svg xmlns="http://www.w3.org/2000/svg" width="184" height="48" fill="#fff" xmlns:v="https://vecta.io/nano"><path fill-rule="evenodd" d="M44.165.292H3.255C2.39.298 1.56.645.95 1.257s-.952 1.44-.95 2.3v41.054c-.001.862.34 1.69.95 2.3s1.438.96 2.303.965h40.91c.866-.006 1.694-.353 2.303-.965s.952-1.44.95-2.3V3.558c.001-.862-.34-1.69-.95-2.3S45.03.298 44.165.292h0zm-1.008 42.59a.98.98 0 0 1-.287.69.99.99 0 0 1-.691.29l-36.936.12c-.13 0-.258-.026-.378-.076a.98.98 0 0 1-.531-.535c-.05-.12-.073-.248-.07-.377V30.684c-.001-.26.102-.507.285-.69s.43-.288.69-.29h11.324V17.938a.98.98 0 0 1 .194-.585c.126-.17.303-.294.505-.355.11-.038.225-.056.34-.053h11.322V5.17a.98.98 0 0 1 .284-.691c.183-.184.43-.29.69-.29h12.274a.99.99 0 0 1 .692.291.98.98 0 0 1 .286.691l.004 37.71z"/><path d="M117.126 34.132h3.087c.948 0 1.664-.158 2.144-.478s.738-.94.738-1.853-.247-1.53-.738-1.853-1.207-.478-2.144-.478h-3.087v4.663zm-3.188 4.317V27.876c-.002-.105.017-.2.056-.307a.79.79 0 0 1 .171-.261c.07-.077.157-.138.253-.18a.74.74 0 0 1 .304-.06h6.456c3.404 0 5.1 1.577 5.113 4.73s-1.7 4.73-5.113 4.73h-4.052v1.922a.79.79 0 0 1-.06.307.78.78 0 0 1-.175.259c-.072.075-.16.135-.256.175s-.2.06-.306.06h-1.6a.79.79 0 0 1-.308-.06.77.77 0 0 1-.258-.175.75.75 0 0 1-.178-.256.76.76 0 0 1-.058-.306v-.008zm-13.72-9.768v-.805a.77.77 0 0 1 .227-.576.78.78 0 0 1 .264-.175.79.79 0 0 1 .313-.056h10.734a.78.78 0 0 1 .31.055c.1.04.188.098.263.173a.79.79 0 0 1 .175.265.78.78 0 0 1 .054.313v.796a.76.76 0 0 1-.054.309.77.77 0 0 1-.175.26.81.81 0 0 1-.263.172.78.78 0 0 1-.31.054h-3.773v8.993a.74.74 0 0 1-.236.558.76.76 0 0 1-.257.17.75.75 0 0 1-.303.056h-1.6c-.104.002-.207-.018-.304-.057a.79.79 0 0 1-.258-.17.77.77 0 0 1-.176-.254c-.04-.096-.06-.2-.057-.303v-8.99h-3.778a.78.78 0 0 1-.31-.054.81.81 0 0 1-.264-.172.78.78 0 0 1-.175-.261.76.76 0 0 1-.054-.309l.007.01zm-13.6 9.768V27.876a.76.76 0 0 1 .06-.31.77.77 0 0 1 .178-.259.76.76 0 0 1 .265-.18.85.85 0 0 1 .316-.06h1.576a.75.75 0 0 1 .305.06.72.72 0 0 1 .254.18.78.78 0 0 1 .175.26c.04.098.06.202.058.308v3.82h5.823v-3.82a.77.77 0 0 1 .06-.308c.04-.098.102-.186.178-.26s.16-.137.258-.178a.77.77 0 0 1 .308-.061h1.574a.77.77 0 0 1 .579.239.79.79 0 0 1 .179.259c.042.098.063.203.063.3V38.45a.78.78 0 0 1-.06.306c-.04.096-.102.184-.18.256s-.164.135-.262.175a.81.81 0 0 1-.3.06H96.45c-.2.002-.415-.08-.566-.226a.73.73 0 0 1-.238-.557v-4.366h-5.832v4.366c.002.104-.017.207-.058.303a.76.76 0 0 1-.176.254c-.076.072-.16.13-.257.17s-.2.058-.303.057h-1.576c-.106 0-.212-.02-.3-.06s-.187-.1-.263-.175a.74.74 0 0 1-.247-.562zm-12.907-.02V27.86c-.002-.105.02-.2.06-.306s.102-.184.178-.256.163-.132.26-.17a.79.79 0 0 1 .306-.057h9.75a.75.75 0 0 1 .564.239.79.79 0 0 1 .175.26.81.81 0 0 1 .06.308v.796a.77.77 0 0 1-.234.566.76.76 0 0 1-.258.174c-.097.04-.2.06-.306.057H76.9v2.47h6.346a.76.76 0 0 1 .56.235.79.79 0 0 1 .172.262.78.78 0 0 1 .055.308v.8a.78.78 0 0 1-.234.566.77.77 0 0 1-.255.175.76.76 0 0 1-.304.058h-6.346v2.507h7.354a.72.72 0 0 1 .3.056.73.73 0 0 1 .251.173.77.77 0 0 1 .225.559v.816a.73.73 0 0 1-.06.306.76.76 0 0 1-.177.257.78.78 0 0 1-.568.233h-9.706a.81.81 0 0 1-.746-.505c-.04-.1-.06-.204-.058-.3v-.004zm-14.984.024v-10.6a.75.75 0 0 1 .058-.305.73.73 0 0 1 .177-.256.79.79 0 0 1 .26-.171.76.76 0 0 1 .306-.058h1.593a.75.75 0 0 1 .305.06.72.72 0 0 1 .254.18.93.93 0 0 1 .175.26.79.79 0 0 1 .06.307v8.967h5.686V27.86a.78.78 0 0 1 .059-.303c.04-.096.098-.184.172-.257a.78.78 0 0 1 .258-.17.79.79 0 0 1 .305-.058h1.6a.75.75 0 0 1 .562.239.79.79 0 0 1 .175.26.81.81 0 0 1 .06.308v8.967h.913a.77.77 0 0 1 .308.059.75.75 0 0 1 .258.177.87.87 0 0 1 .177.26c.04.098.06.203.06.308v.798a.76.76 0 0 1-.236.564c-.074.075-.162.134-.26.174a.78.78 0 0 1-.307.059H59.537c-.105.001-.2-.02-.307-.06a.78.78 0 0 1-.259-.175c-.076-.072-.137-.16-.177-.256a.75.75 0 0 1-.058-.306v.006zM166.97 6.712c0-.286.153-.427.46-.427h.7a.59.59 0 0 1 .581.427c.16.397.525.594 1.085.6s.926-.2 1.07-.6a.6.6 0 0 1 .593-.427h.708c.308 0 .465.145.465.427a2.3 2.3 0 0 1-.776 1.831 3.44 3.44 0 0 1-4.099 0 2.31 2.31 0 0 1-.596-.829c-.134-.317-.195-.66-.178-1.003h-.005zm-3.415 14.843V10.982c-.003-.107.016-.214.057-.313a.77.77 0 0 1 .18-.263.81.81 0 0 1 .592-.229h1.54a.82.82 0 0 1 .581.228.75.75 0 0 1 .179.256.8.8 0 0 1 .06.306v8.497l4.835-8.482a1.8 1.8 0 0 1 .534-.568c.178-.142.397-.225.626-.237h2.506c.105-.002.2.018.305.06a.75.75 0 0 1 .254.178.79.79 0 0 1 .172.261.77.77 0 0 1 .058.307v10.573a.76.76 0 0 1-.062.308c-.043.097-.106.184-.185.255a.92.92 0 0 1-.268.175.81.81 0 0 1-.315.058h-1.544a.81.81 0 0 1-.313-.058.79.79 0 0 1-.265-.175.77.77 0 0 1-.241-.564v-7.878l-4.43 7.878a1.75 1.75 0 0 1-.555.564c-.2.144-.44.225-.686.233h-2.807a.81.81 0 0 1-.308-.058.69.69 0 0 1-.26-.175c-.074-.075-.138-.16-.18-.257a.75.75 0 0 1-.059-.307zm-5.643.017v-10.6a.79.79 0 0 1 .059-.308.78.78 0 0 1 .175-.26c.075-.074.158-.137.254-.178s.2-.06.305-.06h1.6a.76.76 0 0 1 .312.057.75.75 0 0 1 .261.18.81.81 0 0 1 .173.26.77.77 0 0 1 .058.307v10.573a.75.75 0 0 1-.06.307.77.77 0 0 1-.18.257.76.76 0 0 1-.258.174.78.78 0 0 1-.306.059h-1.6a.78.78 0 0 1-.301-.051.77.77 0 0 1-.258-.163c-.076-.07-.136-.157-.177-.253a.72.72 0 0 1-.057-.302v-.01zm-9.793-1.6h3.484c.947 0 1.42-.54 1.42-1.616s-.474-1.617-1.42-1.618h-3.484v3.235zm-3.188 1.576V10.982a.77.77 0 0 1 .054-.311.79.79 0 0 1 .173-.265.78.78 0 0 1 .264-.174c.1-.04.206-.058.313-.054h1.6a.75.75 0 0 1 .306.059.74.74 0 0 1 .254.178.88.88 0 0 1 .175.26.79.79 0 0 1 .059.308v3.335h3.484c1.332 0 2.434.356 3.306 1.068s1.307 1.697 1.305 2.957-.43 2.246-1.314 2.955-1.972 1.067-3.297 1.067h-5.9a.73.73 0 0 1-.296-.06.7.7 0 0 1-.242-.179c-.143-.157-.22-.362-.215-.574l-.01-.013zm-11.104-6.7h4.526a1.18 1.18 0 0 0 .46-.07 1.22 1.22 0 0 0 .398-.24 1.31 1.31 0 0 0 .25-.402 1.15 1.15 0 0 0 .068-.469c.014-.158-.006-.317-.06-.466a1.09 1.09 0 0 0-.648-.653 1.1 1.1 0 0 0-.467-.066h-4.528v2.366zm0 5.218h4.84a1.27 1.27 0 0 0 1.004-.391 1.58 1.58 0 0 0 .343-1.067 1.56 1.56 0 0 0-.348-1.068 1.26 1.26 0 0 0-.455-.307c-.172-.067-.36-.097-.544-.086h-4.84v2.92zm-3.2-9.074c-.001-.106.02-.2.06-.308s.102-.186.178-.26a.77.77 0 0 1 .258-.178.81.81 0 0 1 .308-.06h6.878c.716-.008 1.428.1 2.1.318.634.214 1.196.6 1.623 1.112.454.563.7 1.27.667 2 0 .87-.38 1.615-1.14 2.235 1.087.583 1.632 1.526 1.626 2.837 0 1.167-.433 2.07-1.3 2.712a5.2 5.2 0 0 1-3.183.961h-7.28a.78.78 0 0 1-.307-.059c-.097-.04-.185-.1-.26-.174s-.138-.16-.178-.257a.75.75 0 0 1-.06-.307V10.982zm-11.3 2.25c-.572.68-.857 1.7-.857 3.034s.285 2.356.857 3.036c.572.675 1.494 1.013 2.766 1.014 1.286 0 2.195-.34 2.766-1.014s.857-1.7.857-3.036-.285-2.348-.857-3.034-1.5-1.02-2.766-1.02-2.2.34-2.766 1.02zm-2.315 7.86c-1.154-1.014-1.73-2.623-1.733-4.827s.576-3.814 1.733-4.827 2.853-1.52 5.08-1.52 3.92.507 5.08 1.52c1.152 1.016 1.73 2.625 1.73 4.827s-.575 3.8-1.73 4.827-2.847 1.522-5.08 1.522-3.926-.507-5.08-1.522zm-11.753-3.854h3.087c.95 0 1.666-.158 2.157-.478s.735-.94.735-1.85-.244-1.53-.735-1.853-1.207-.478-2.157-.478h-3.087v4.66zm-3.197 4.317V10.982c-.002-.105.018-.2.057-.307a.79.79 0 0 1 .17-.26c.073-.074.157-.137.254-.178a.74.74 0 0 1 .304-.059h6.457c3.405 0 5.1 1.577 5.1 4.73s-1.7 4.73-5.1 4.73h-4.045v1.922a.77.77 0 0 1-.058.307.76.76 0 0 1-.176.259.77.77 0 0 1-.255.175.76.76 0 0 1-.305.058h-1.593a.78.78 0 0 1-.566-.234.77.77 0 0 1-.177-.257.75.75 0 0 1-.058-.306l-.01-.008zm-11.57-1.595h5.97v-7.383H93.95a1.97 1.97 0 0 0-1.32.444c-.367.323-.618.756-.716 1.234L90.5 19.97zm-4.717 1.603v-.822a.76.76 0 0 1 .232-.559.73.73 0 0 1 .252-.172c.095-.04.198-.06.3-.058h.643l1.572-6.422c.542-2.223 2.376-3.337 5.5-3.34h4.573c.104 0 .207.02.303.06a.79.79 0 0 1 .257.171.78.78 0 0 1 .232.558v10.58a.74.74 0 0 1-.232.555.78.78 0 0 1-.562.213h-12.28a.76.76 0 0 1-.306-.058.77.77 0 0 1-.258-.173c-.075-.074-.133-.163-.173-.26a.76.76 0 0 1-.058-.306l.015.02zM76 17h5.36v-4.434h-2.4c-.5-.01-1 .153-1.414.464a2.23 2.23 0 0 0-.809 1.244L76 17zm-4.5 4.56l2.125-8.085c.572-2.202 2.443-3.304 5.615-3.307h4.562a.64.64 0 0 1 .518.237.81.81 0 0 1 .214.551V21.57a.72.72 0 0 1-.058.303.73.73 0 0 1-.178.252.79.79 0 0 1-.566.213h-1.6a.77.77 0 0 1-.795-.785V19.42h-6.003l-.568 2.135a1 1 0 0 1-.384.572 1.03 1.03 0 0 1-.628.213h-1.67c-.095.006-.2-.012-.278-.05a.55.55 0 0 1-.34-.525c0-.064.013-.13.02-.213v.02zm-12.767-.032V10.982c-.001-.107.02-.213.06-.312a.79.79 0 0 1 .176-.265c.076-.075.16-.14.257-.183a.76.76 0 0 1 .309-.063h1.593a.74.74 0 0 1 .559.245.81.81 0 0 1 .175.265.8.8 0 0 1 .059.312v4.057h1.82c.468.008.927-.134 1.308-.406a4.06 4.06 0 0 0 1.072-1.317l1.3-2.348c.3-.542.705-.818 1.22-.822h1.955c.214 0 .35.077.4.237.01.04.017.08.017.12a1.01 1.01 0 0 1-.146.465l-1.844 3.352c-.234.445-.536.852-.894 1.206a2.79 2.79 0 0 1-1.286.67c.442.12.84.366 1.147.704a7.88 7.88 0 0 1 1.038 1.281l2.114 3.38a.85.85 0 0 1 .144.427c.001.05-.008.1-.026.145-.056.154-.193.23-.414.23h-1.93c-.254-.01-.5-.1-.712-.23a1.81 1.81 0 0 1-.592-.566l-1.503-2.378a5.07 5.07 0 0 0-1.072-1.302 2 2 0 0 0-1.3-.438h-1.82v4.125a.73.73 0 0 1-.057.302.72.72 0 0 1-.177.253c-.077.07-.162.126-.258.163a.75.75 0 0 1-.3.05h-1.597a.77.77 0 0 1-.566-.239.79.79 0 0 1-.235-.574m120.177-17.33a.89.89 0 0 1 .893.888v38.003c0 .236-.095.462-.263.628s-.394.26-.63.26H56.326c-.237 0-.464-.093-.632-.26a.89.89 0 0 1-.263-.628V5.085a.89.89 0 0 1 .263-.628c.168-.167.395-.26.632-.26h122.588zm0-3.905H56.326c-1.277 0-2.5.505-3.404 1.404a4.78 4.78 0 0 0-1.41 3.39V43.09c.001 1.27.508 2.5 1.4 3.4a4.82 4.82 0 0 0 3.404 1.404h122.588a4.84 4.84 0 0 0 1.845-.363 4.8 4.8 0 0 0 1.564-1.04 4.81 4.81 0 0 0 1.046-1.556c.243-.582.367-1.206.367-1.837V5.083a4.78 4.78 0 0 0-.369-1.835 4.9 4.9 0 0 0-1.045-1.555c-.447-.455-.98-.798-1.564-1.038a4.83 4.83 0 0 0-1.844-.363z"/></svg>