<svg xmlns="http://www.w3.org/2000/svg" width="139" height="90" fill="#fff"><path d="M32.4 89H32v-3.7h-.7c-.1.2-.3.4-.4.6l-.7 1.2c-.8 1.5-1 2-1.5 2h-.5c-.3 0-.6-.5-1.5-2l-.7-1c-.1-.2-.3-.4-.4-.6H25V89h-.5v-4h1.2c.3 0 .6.5 1.5 2l.8 1c.1.2.2.4.4.6h.4c.2-.2.3-.4.4-.6l.7-1.2c.8-1.5 1-2 1.5-2h1.2V89zm13-1H39l-.5 1H38l1.6-3c.5-1 1-1 1.6-1h2c.5 0 1 0 1.6 1l1.6 3H46l-.5-1zm-.2-.5l-.7-1.5c-.4-.8-.7-.8-1.2-.8h-2c-.4 0-.8 0-1.2.8l-.7 1.5H45zm7.3 1.5H52v-4h4.8c1.6 0 2.4.1 2.7.3.3.3.3.6.3 1s0 .8-.3 1c-.3.3-1 .3-2.7.3h-4.4V89zm0-2h6c.3 0 .6 0 1-.1.2-.2.2-.3.2-.8s0-.6-.2-.8c0 0-.2-.1-1-.1h-6V87zm21 2h-.7l-1-1.4c-.4-.4-1.8-.4-2.6-.4h-3v2h-.5V85h.5v2h3c.8 0 2.2 0 2.6-.4.4-.5 1-1.4 1-1.4h.7l-.3.4c-.4.5-.7 1-1.2 1.4-.1.1-.3.2-.5.3l.5.3c.4.4.8 1 1.2 1.4l.3.4zM87 85.4h-7.4v1.4H86v.5h-6.5v1.4H87v.5h-7.8V85H87v.5zm13.6 0H97V89h-.5v-3.7h-3.7V85h7.8v.5zM52.8 16c-.1.1-.3.2-.4.3.1-.1.2-.2.4-.3zm8-2h-.1c-.3-.1-.6-.3-1-.3h-.1l-.6-.1-1.4.1-.5.2-.5.4c.1 0 .1-.1.2-.1.4-.1.8-.1 1.2-.1.5 0 1 .1 1.4.2a3 3 0 0 1 1 .4h.1c.3-.2.5-.3.8-.5L61 14"/><path d="M48.7 25l-.5-1.2-.4-2c0-.7.1-1.5.4-2.2s.7-1.3 1.3-1.8c.1-.1.2-.1.2-.2h-.1c-.1 0-.2.1-.3.1-.4.2-.7.4-1 .7l-.4.4s0 .1-.1.1l-.4.8c-.2.4-.3 1-.4 1.4v.4 1.2.5c.1.3.1.7.2 1l.6 1.4 1-.2c-.1-.2-.2-.4-.3-.5m3.5-8s-.1 0-.1.1h.1zm8 3.7c0-.1-.1-.2-.1-.3l-.1-.3.2.6zm6.4-6l-.2-.2-.2-.4c.2-.2.5-.3.7-.4.3-.1.6-.2 1-.2.4-.1.8-.1 1.3-.1-.3-.1-.6-.3-1-.4-.6-.2-1-.2-1.7-.1h-1c-.1 0-.1 0-.1-.1.1-.5.3-1 .7-1.3v-.1c-.3 0-.6.1-1 .3 0 0 0 .1-.1.1-.1.3-.2.6-.2 1v.2c0 .3 0 .6.1 1h0l-.1.1h-.2c-.1 0-.2 0-.2-.1s-.1-.1-.2-.2l-.3-.6c0-.1 0-.1-.1-.2-.1-.4-.2-.8-.2-1.2h0c-.3-.3-.7-.4-1.2-.4l.2.3c.2.3.3.6.3 1 0 .1 0 .1-.1.1a5 5 0 0 0-3.3.7h.5c.7-.1 1.3 0 2 .1h.3c.1 0 .1 0 .2.1-.4.2-.7.5-1 1 0 0 0 .1-.1.1-.1.2-.2.5-.3.8 0 .1-.1.3-.1.4.1-.1.1-.2.2-.3.1-.2.3-.4.5-.5l.1-.1c.2-.1.5-.2.7-.3.1 0 .1 0 .1.1v1c0 1 .4 1.6 1 2.3V17c0-.5.1-1 .3-1.4v-.2c.1-.2.2-.5.4-.7h.1c.2.1.4.3.6.4.5.4 1 1 1.5 1.4a13 13 0 0 1 1 1.5h.1c-.1-1-.4-2-.8-2.7a5 5 0 0 0-.4-.7"/><path d="M65.2 10.5c-.3-.1-.6-.2-1-.2H64c-.1 0-.1.1-.1.1-.3.5-.4 1-.4 1.7v.1a5 5 0 0 0 .2 1.2l.3.7c0 .1.1.1.2.1h.2c.2 0 .2-.1.1-.3-.1-.3-.1-.6-.1-1v-.2c0-.3.1-.6.2-1s.3-.8.6-1c.1-.1 0-.2-.1-.3m-3.7 6.4l.5-.2h-1v.3c.1-.1.3-.1.4-.1M59 15l-.8-.5c-.4-.2-.8-.3-1.2-.3h-.7c-.4.1-1 .3-1.2.6-.1.1-.2.3-.4.4-.1.1-.1.2-.1.3-.1.1-.2 0-.3 0H54c-.1-.1-.1-.1-.2-.1-.1-.1-.3-.2-.4-.4-.1-.1-.2-.3-.3-.4l-.6-1-.8-.7a3 3 0 0 0-1-.4c-.2-.1-.5-.1-.8 0-.1.1-.2.1-.2.2s-.1.2-.1.3 0 .3-.1.4c0 .2 0 .4.1.5 0 .1.1.2.1.2s.1.1.2.1h.3c.2-.1.3-.1.5-.1h.4c.2 0 .4.1.5.2s.3.3.4.5c.1.1.2.3.2.5.1.2.1.5.1.8l-.3.4c0 .1-.1.2-.2.2s-.2-.1-.3-.1H51c-.4.1-.8.3-1 .6h0c-.3.3-.5.6-.6 1-.1.3-.2.5-.2.8-.1.5-.1 1-.1 1.4 0 .3.1.6.1 1 .1.4.2 1 .4 1.3a11 11 0 0 0 .5 1.3l.5 1 2-.4-.8-1.5-.3-1a9 9 0 0 1-.4-2.8c0-.4.1-1 .2-1.3l.4-1s0-.1.1-.1c.1-.1.1-.2.2-.2v-.1.1.5c-.1.3-.1.7-.1 1v1c.1.5.2 1 .4 1.4l.7 1.8 1 1.8.7-.1-.2-.4c-.3-.7-.4-1.6-.2-2.3s.5-1.5 1-2h0l.3-.3c-.3.1-.6.2-1 .3 0-.2.3-.5.6-.7.4-.3.8-.5 1.3-.6.2-.1.5-.1.7-.2.1 0 .1-.1.1-.1-.2-.3-.5-.5-.8-.6l-.2-.1c0-.2.3-.2.6-.2-.3-.3-.6-.6-1-.8-.3-.3-.7-.5-1-.6h-.4s.1 0 .1-.1h1c.4.1.8.2 1.2.4h.2v-.2c0-.1.1-.1.1-.1.1-.1.3-.1.5-.1h.2s.1 0 .1.1 0 .1.1.1 0 .1 0 .1c0 .3 0 .5.1.8h0c.3-.5.7-1 1.2-1.5-.1-.1-.2-.1-.3-.2"/><path d="M58.5 18l-.5-1v-.4c0-.3-.1-.5-.1-.8 0-.1 0-.1-.1-.2-.2 0-.3 0-.5.1 0 0-.1 0-.1.1v.3a4 4 0 0 0 .3 1.1l.3.5c0 .1.1.1.2.2.1.2.2.3.4.4h.2c.1-.1 0-.1 0-.2m.7 5.7h0zM57 22.3c0-.1-.1-.3-.1-.5 0 .2.1.3.1.5v-.1.1zm1-2.7c0-.1.1-.2.1-.2v.2zm1.7-2l.1-.1-.1.1zm.8.8c.1 0 .2 0 .3.1-.1 0-.2-.1-.3-.1zM72.2 12H72h.1zm.8-8.5h0c-.1 0-.2.1-.3.2h.1l.2-.1zm-4 15.3H69h.1zm3.5-7.3l-.1.2v-.2M77 9.7h0z"/><path d="M85 7.3h0V7h0-.1c-.1-.1-.1-.2 0-.2.1 0 .1-.1.1-.2l-.1-.1c-.2-.1-.3-.2-.5-.2 0 0-.1 0-.1-.1s0 0 .1-.1h.2c0 0 0-.1 0-.1s-.1-.1-.1-.1c-.1-.1-.2-.1-.3-.1 0 0-.1 0-.1 0h0-.2c-.2 0-.4 0-.6 0 0 0 0-.1 0-.1s0 0 .1-.1c0-.1 0-.1-.1-.2H83h-.5c0 0 0 0 0 0s0 0 0 0c0 0 0 0 0 0s0 0 0 0h-.6c-.2.1-.3.1-.5.2 0-.1.2-.2 0-.3H81 81l-.3.2-.4.3V6s0 0 0 0c-.1-.2-.1-.2-.3-.1h-.1l-.7.7c0 0 0 0 0 0 .2-.3.3-.6.6-.8 0 0 0 0 0 0s0 0 0 0c0 0 0 0 0 0s0 0 0 0l.7-.7h0c0 0 0 0 0 0l.1-.2c.1-.3.1-.4-.2-.4l.7-.6c0 0 0 0 0 0s0 0 0 0h0 0 0l.1-.2v-.2c0 0 0 0 0 0s0 0 0 0h0c0 0 0-.1 0-.1-.1-.2-.3-.2-.5-.1l.3-.3c.1-.1.2-.3.3-.4s0-.3 0-.5c0-.1-.1-.2-.2-.3S81 1 81 1c0 0 0 0 0 0 0-.1 0-.3-.1-.4l-.1-.2c0 0-.1-.1-.1-.1 0 0 0 0 0 0 0 0 0 0-.1 0-.1-.1-.2-.1-.3-.1s-.2 0-.3 0-.2.1-.3.1-.2.1-.2.2c-.1.1-.1.2-.2.4 0 0 0 .1-.1.1 0-.1-.1-.1-.1-.2h0c0 0 0 0-.1 0s0 0 0 0c-.1 0-.2 0-.2.1s-.1.1-.2.2-.1.1-.1.2 0 .2 0 .2c0 0 0 .1 0 .1s0 .1 0 .1c0 0 .1.1.1.1 0 0 0 .1 0 .1 0 0 .1.1.1.1 0 0 0 0 0 0-.4-.1-.6.1-.6.5 0 .2.1.5.3.7v.2c-.1 0-.1 0-.2 0s-.1.1-.2.1h0c0 0 0 0 0 0v.2c0 .1 0 .2 0 .2h0c0 0 0 0 0 0s0 0 0 0v1.2c0 0 0 0 0 .1s0 0 0 .1c0 0 0 0 0 0s0 0 0 0c0 .2 0 .4 0 .5 0 0 0 0 0 0s0 0 0 0l-.1-.6c0 0 0 0 0-.1v-.1l-.1-.1c-.1-.1-.2 0-.2.1V5l-.2-.5c-.1-.2-.2-.3-.3-.4-.1 0-.1-.1-.2-.1 0 .1 0 .2 0 .2l-.3-.5-.5-.3c0 0 0 0 0 0s0 0 0 0c0 0 0 0 0 0s0 0 0 0c0 0 0 0-.1 0l-.4-.2c0 0 0 0 0 0s0 0 0 0c-.1 0-.2-.1-.2 0v.2c-.2-.1-.4-.3-.6-.4l-.3-.1H74c0 0-.1 0-.1 0s-.1.1-.1.1c0 .1 0 .1.1.2 0 0 0 .1 0 .1 0 0 0 0 0 0s0 0 0 0c-.2 0-.3-.1-.5-.1h-.1 0c0 .1-.1.2 0 .2 0 0 0 0 0 0s0 0 0 0 0 0 0 0 0 0 0 0c-.1 0-.1 0-.2 0l-.4.2c-.1.1-.1.2-.2.2l-.1.2c0 0 0 .1 0 .1-.1.1-.2.2-.2.3s0 .2 0 .3h0c0 0 0 0 0 .1 0 0 .1.1.1.1 0 0 0 0 .1.1 0 0 .1 0 .1.1 0 0 0 0 0 0-.3 0-.5.2-.4.6.1.2.2.4.3.5l.1.1c-.1 0-.1 0-.2 0s-.1.1-.1.1v.1h0V7v.2c0 0 0 0 0 0s0 0 0 0l.2 1c0 0 0 .1 0 .1 0 0 0 0 0 0s0 0 0 .1c0 0 0 0 0 0s0 0 0 0l.1.5c0 0 0 0 0 0s0 0 0 0l-.2-.5v-.2c-.1-.1-.1 0-.2.1l-.1-.3-.2-.4c-.1-.1-.2-.2-.3-.3-.1 0-.1-.1-.2 0 0 .1 0 .1 0 .2l-.3-.3L70 7c0 0 0 0 0 0 0 0 0 0 0 0s0 0 0 0c0 0 0 0 0 0s0 0 0 0l-.3-.1c0 0 0 0 0 0s0 0 0 0c-.1 0-.2 0-.2.1l.1.2c-.2-.1-.3-.2-.5-.2h-.3-.3c0 0-.1 0-.1 0s0 .1-.1.1c0 0 .1.1.1.1 0 0 0 0 0 .1s0 0-.1 0c-.1 0-.3 0-.4 0h-.1 0c0 .1 0 .2 0 .2 0 0 0 .1 0 .1l-.2.1-.1.1-.2.2v.2.1c0 0 0 0 0 0 0 0 0 .1 0 .1s0 0 0 .1l.1.1c.1.1.3.2.5.2.2 0 .4-.1.6-.1-.2.1-.3.2-.4.4-.1.1-.2.3-.2.5 0 .1 0 .1 0 .2s.1.1.1.1a1 1 0 0 0 .3 0l.5-.1c.1 0 .1-.1.2-.1 0 .1-.1.2 0 .3 0 0 .1.1.2.1s.1 0 .2 0c.1 0 .2 0 .3-.1.1 0 .2-.2.3-.2 0 .1 0 .2.1.3.1 0 .1.1.2.1s.1 0 .2 0h0 .1c.1-.1.2-.1.2-.2 0 0 .1 0 .1 0s0 .1 0 .1h0c0 0 0 .1.1.1s.1 0 .1 0c.2 0 .4.1.6.3s.3.3.4.5c.1.3.2.6.3 1h0 0c.1 0 .1 0 .2 0-.1 0-.1 0-.2 0h0c-.1 0-.2 0-.3 0 0 0 0 0 0 0 0 0 0 0 0 0h-.4-.7c-.3.1-.6.2-1 .4 0 0-.1.1-.1.1a4 4 0 0 0-.5.5c-.2.2-.3.5-.4.8h0 0v.4l1.4.1c.1 0 .2 0 .3.1s.1.1.2.2c0 .1 0 .1 0 .2s0 .1-.1.2c0 0-.1.1-.1.1-.1 0-.1.1-.2.1s-.1 0-.2 0l-1.2-.1h-.1c0 0 0 0-.1 0 0 .1 0 .2 0 .4 0 .2 0 .3 0 .5 0 .2 0 .4 0 .6 0 .2 0 .5.1.7 0 0 0 .1 0 .1 0 0 .1 0 .2 0l3 .3c0 .1 0 .2 0 .2v.6c0 0 0 .1 0 .1h0-.1l-2.6-.2H69c0 0-.1 0-.1 0 0 .2.1.4 0 .6 0 0 0 0 0 0s0 0 0 0c0 0 0 0 0 0s0 0 0 0c.1.2.1.4.1.6l.1.5c0 0 0 .1 0 .1 0 0 0 0 0 0 0 0 0 0 0 .1s0 0 0 .1c0 .1.1.3.1.4h0c0 0 0 0 0 0s0 0 0 0l3-.6c0-.1 0-.2 0-.3 0-.1.1-.1.1-.2s.1-.1.2-.1.1-.1.2-.1.2 0 .2 0l1 .3 3.8-1c0-.1.1-.2.2-.3 0-.1.1-.2.1-.2 0 0 0 0 0 0s0 0 0 0c.1-.1.1-.2.2-.4v-.1c0-.1.1-.2.2-.3 0 0 0 0 0-.1s0 0 0 0c0 0 0 0 0 0 0 0 0 0 0 0s0 0 0 0l.5-1c0-.1.1-.2.2-.3 0 0 0 0 0 0 .1-.2.2-.4.3-.7v-.1c0-.1-.1-.1-.2-.1l-2-.5c-.1 0-.2-.1-.3-.2s-.1-.2-.2-.3c0-.1 0-.2 0-.4s.1-.2.2-.3c.1 0 .1-.1.2-.1s.2 0 .2 0l2.2.7c0 0 0 0 0 0 .2-.5.5-1 .5-1.5 0 0 0 0 0 0V13v-.4-.1c-.1-.3-.3-.7-.5-1h0a6 6 0 0 0-.8-.8l-1-.6c-.2 0-.3-.1-.4-.2 0 0-.1 0-.1 0h.1v-.2c.1-.2.3-.4.4-.5l.4-.4c0 0 .1-.1.1-.1v-.1c.1-.1.3-.2.5-.2s.3-.1.5 0c.1 0 .1 0 .2 0 .1 0 .2 0 .2-.2 0-.1 0 0 .1 0 .1.1.1.1.2.2 0 .1.1.2.2.2s.2.1.3.1c.1-.1.2-.2.3-.3.1.1.1.3.2.4.1.1.2.2.3.2.3.1.4 0 .5-.3l.1.1c.2.1.3.2.5.3.1 0 .2.1.3.1.1 0 .1 0 .2-.1s.1-.1.1-.2c0-.2 0-.4 0-.6h0v-.1c-.1-.2-.1-.4-.3-.5l.6.3c.2.1.4.1.6 0h.1c0 0 0 0 0 0 0 0 0 0 0 0h.1c.1-.1.1-.2.2-.2v-.3c0-.1 0-.1 0-.2h0zM73.5 3.5c0 0 0 0 .1 0h0c0 0 .1.1.1.1l.2.2c.1.1.1.2.1.4 0 0 0 0 0 0 .1 0 .2 0 .3 0s.1.1.2.2c.1.1.1.3.1.4s-.1.3-.2.4l-.2.3c-.1 0-.2 0-.3.1.1-.1.2-.2.2-.3.1-.1.1-.3.2-.4s0-.3-.1-.4c0-.1-.1-.2-.2-.2s-.2-.1-.3 0c0 0 0 0 0 0 0-.1-.1-.3-.1-.4l-.2-.2c0 0-.1 0-.1-.1h0c0 0 0 0-.1 0-.1 0-.1 0-.2-.1.1 0 .3 0 .4.1zm2.4 14c-.1.1-.2.1-.3.2s-.2 0-.3 0l-3.2-1c0 0-.1 0-.1 0 0 0 0 0 0 0-.1-.1 0-.2-.1-.3 0-.1 0-.3 0-.4 0 0 0 0 0 0h0c0-.1 0-.2 0-.2 0-.1 0-.2.1-.2 0 .1.1.1.2.1l3.4 1c.1 0 .2.1.3.1s.1.2.2.3 0 .2 0 .3-.1.2-.1.3h0zm1.4-7.8c0 0-.1 0-.1 0s-.1 0-.1-.1h0c-.1 0-.2 0-.3-.1 0 0 0 0 0 0s0 0 0 0l-.5-.1c-.3 0-.6 0-1 0-.4 0-.8.1-1.2.2 0 0-.1 0-.1.1-.3.1-.5.3-.7.5-.3.3-.5.6-.7 1l-.1.3c0 .1 0 .1 0 .2l1.6.5c.1 0 .2.1.3.2s.1.2.1.3c0 0 0 .1 0 .1 0 .1 0 .2-.1.3s-.1.2-.2.2c-.1 0-.2.1-.2.1s-.2 0-.3 0c-.4-.1-1-.3-1.3-.4h-.1c0 0-.1 0-.1 0 0 0 0-.1 0-.1l.1-.7c0 0 0-.1 0-.1.1-.1 0-.2.1-.3l.1-.2.3-1.7c.1-.2.1-.4.2-.7 0 0 0 0 0 0 .1-.3.2-.5.3-.8 0 0 0 0 0 0s0 0 0 0c0 0 0 0 0 0s0 0 0 0c.1-.3.3-.5.4-.7h0v-.2c.1-.2 0-.3-.2-.3l.3-.3c-.1 0-.1 0-.1-.1l.2-.2c0 0 0-.1.1-.1h0 0 0l.1-.2h0c0 0 0 0 0 0s0 0 0 0v-.1c0 0 0-.1 0-.1 0 0-.1-.1-.1-.1.1 0 .1 0 .2 0s.1.1.1.1c0 0 0 .1 0 .1v.1c0 0 0 0 0 0s0 0 0 0h0v.2h0v.1c0 0 0 0-.1.1h0l-.3.3c.1 0 .1 0 .2 0 .1 0 .2 0 .3 0 .2 0 .3-.1.4-.2 0 .1 0 .2 0 .4.1.1.1.1.2.1s.2 0 .2 0h0 .1c.1-.1.2-.1.3-.1 0 0 .1 0 .1 0s0 .1 0 .1c0 0 0 0 0 0 0 0 0 .1.1.1s.1.1.1.1c.1 0 .2.1.3.2.1 0 .1 0 .1.1 0 0 .1.1.1.1.2.2.3.5.4.8a4 4 0 0 1 .2 1.1v.1c0 0 .1 0 .1.1s.1 0 .1 0c0 0 0 0 0-.1 0 0 0 0 0 .1h0z"/><path d="M77.2 9.7v-.1.1zm-5.2 7zm.3-4h-.1.1zm-3.7 4.4l-.2-2.7c0-.5.1-.6.1-.6h0l-.8-.3h-.3c-.3 0-.6.1-1 .2h0c0 .1-.1.3-.1.4s-.1.1-.1.1h0l.2.2c.2.2.3.4.5.7.5.8.7 1.8.8 2.7l.1.5-.4-.6a12 12 0 0 0-1-1.4c-.4-.5-1-1-1.4-1.4H65h-.2-.6v.2c-.2.4-.2 1-.2 1.3v1.6l-.3-.4c-.6-1-1-1.6-1-2.3V15h-.3c-.1 0-.2 0-.3-.1h0c-.2.1-.4.3-.5.5l-.5.7V16c0-.2 0-.3.1-.5l.3-1s0-.1.1-.1c.1-.2.2-.3.3-.4s.2-.1.2-.2v-.1H62h.1c-.3.1-.7.3-1 .4s-.5.3-.8.5c-.2.2-.5.3-.7.5v.1a5 5 0 0 0-1.2 1.4h.1c.1-.2.2-.3.4-.5.1-.1.3-.2.4-.2h0c-.1.2-.1.5-.1.7s0 .2.1.2c.1-.1.2-.1.4-.2.4-.2 1-.3 1.3-.3h1c.1 0 .1 0 .1.1s0 .1-.1.1c-.7.2-1.3.4-2 .8h1.3c.3 0 .7.1 1 .2s.7.2 1 .4c.5.2 1 .6 1.3 1 .5.7 1 1.5 1 2.3v.6l3.5-.7-.5-4.2z"/><path d="M59 16.4c0-.1 0-.2.1-.3-.3.1-.6.3-.7.6l.7.3c-.1-.2-.1-.4 0-.7"/><path d="M60 17.6v-.1c.3-.2.7-.4 1-.5.1-.1.3-.1.4-.1l.5-.2-1.4.1-.4.1c-.3.1-.6.2-.8.4h-.1c-.1-.2-.1-.5 0-.7 0-.1 0-.2.1-.3-.2.1-.3.2-.5.3s-.2.3-.3.4h-.1 0l.1.3v.1c.1.2.2.4.3.5 0 0 0 .1.1.1s0 .1 0 .1v.1s0 .1-.1.1-.1.1-.2.1-.1 0-.2-.1L58 18v-.3l-.3-.5h-.3a2 2 0 0 0-.6.1h.1c.4.1.7.4 1 .7 0 .1.1.1 0 .1-.3 0-.5.1-.8.2-.5.1-1 .3-1.3.6l-.5.5 1-.3c.1 0 .2-.1.4-.1h1l-.2.4c-.1.2-.1.4-.2.6 0 .2-.1.4-.1.6V22c0 .2.1.3.1.5v-.1l.4-1.8a3 3 0 0 1 .4-.8c0-.1.1-.2.1-.2.1-.2.2-.3.3-.4h.2c.2.1.3.2.4.3v.1c.2.2.3.3.4.5l.2.3.1.3v.6c.2-.7.2-1.4-.2-2l-.2-.3h0 .1c.3-.1.7 0 1 .1.1 0 .2.1.3.1l.2.1-.1-.2c-.1-.2-.3-.4-.5-.5-.3-.2-.7-.3-1-.4h.2s.1 0 .1-.1m3.7 9.6a15 15 0 0 1 4.8-.3c2.4.2 5 2.6 5.4 5.3l.7 4.2c0 .3 0 .5-.1.8s-.3.4-.5.6c-.4.3-1 .5-1.5.6-.2 0-.4 0-.5-.1s-.3-.2-.4-.4a22 22 0 0 1-.8-2.1c-.5-1.5-1.4-2.6-3-3-.7-.1-1.4-.2-2-.1-1.6.1-3 .7-4 2-.4.4-.6 1-.8 1.5s-.2 1-.1 1.7-.1 1.3-.8 1.6c-.5.2-1.8.8-2.3 1-1 .1-2.3-.3-2.7-1.2-.6-1.2-.6-3.3-.3-4.7.4-2 1.6-3.6 3.2-4.8a13 13 0 0 1 5.7-2.4h0zm-7.4 6.3c.7-1.5 2-2.7 3.5-3.4 2.3-1 4.7-1.7 7.2-2 1.8-.1 3.5.4 4.8 1.7l.6.6c0-.1-.1-.2-.1-.3-1-1.5-2.7-2-4.5-2.2a15 15 0 0 0-9.6 3c-1 .7-1.6 1.5-1.8 2.6m11 9.5c-3 .6-5.4-.7-6.5-3 0-.1-.1-.1-.1-.2s.1-.1.1-.2c.2-.2.4-.4.5-.7s.1-.5.1-.8c-.2-2.5 1-4 3.3-4.6.8-.2 1.6-.3 2.5-.2 1.5.2 2.6 1.3 3 3l.6 1.6c.1.2.2.3.3.5.3.3.3.6.2 1-.7 2-2 3.4-4 4h0zm-5-4.8c.1.7.5 1.4 1 2s1 1 1.8 1 1.4.1 2-.2 1.2-.7 1.7-1.3.6-1.3.7-2-.2-1.4-.6-2-1-1-1.6-1.4-1.4-.4-2-.3c-.5.1-1 .3-1.3.5s-.8.6-1 1-.5.8-.6 1.3-.1 1 0 1.4m5-2.8c.4.3.8.7 1 1.2s.2 1 .1 1.6-.4 1-.7 1.4-1 .6-1.4.7-1 0-1.5-.2-1-.6-1.2-1-.4-1-.4-1.5.2-1 .5-1.5c.4-.6 1-1 1.7-1s1.4 0 2 .4zm-3.6 1.8c.3-.8.8-1.4 1.6-1.6s1.5.2 2.2.6c-.3-.4-.6-.7-1-.8s-1-.2-1.3 0c-.8.3-1.5 1-1.5 1.8m11.3-1.7c-.1.1-.4.4-.3.7 0 .1.1.2.2.2s.1.1.2.1c1.5.6 22.2-4.7 22.8-4.7h.2c.2-.1.3-.4.2-.7-.1-.2-.2-.3-.3-.4s-.3-.1-.5-.1H97C97 31 86 33.4 83.4 34h-.2c-4.4 1-7.5.6-8.4 1.6zm35-1.3c-3 .6-6-1.3-6.6-4.3-.2-.8-.1-1.6 0-2.4s.5-1.5 1-2.2c.6-1 1.6-1.3 2.7-1.7 1.8-.6 3.4-.3 5 .7.7.4 1 1 1.2 1.7.2.4.2.8.4 1.2.1.3.3.6.5.8l.2.2c.1.1.1.2.1.3 0 1.3-.4 2.6-1.2 3.6s-2 1.7-3.2 2h0zm-.4-2c.7-.1 1.4-.5 2-1s.8-1.2 1-2 .1-1.4-.2-2-.8-1.2-1.4-1.6-1.3-.6-2-.6-1.4.2-2 .7-1 1-1.3 1.7-.3 1.4-.2 2c.2 1 .8 1.8 1.6 2.3s1.8.7 2.7.5m6-4.4h-.2c-1 .2-1.5-.2-1.4-1.2 0-.3.2-.5.4-.7.3-.2.6-.4 1-.5.6-.2 1 .1 1.2.6v.1c.3 1 .1 1.4-1 1.6zm-9-.8c.3-.4.8-.7 1.3-1s1-.1 1.6 0 1 .5 1.3 1 .5 1 .6 1.4-.1 1-.3 1.5-.6.8-1 1-1 .4-1.5.3-1-.3-1.4-.6c-.5-.5-1-1-1-1.8s.1-1.4.6-2zm4 .5c-.3-.7-1.3-1.2-2.2-1-1 .2-1.8 1-1.8 1.8.8-2 2.7-2 4-.7z"/><path d="M114 26.4l-.5-1c-.3-.6-.8-1-1.4-1.4-2.8-1.5-5.5-1-7.8 1-.7.6-1 1.5-1.3 2.4-.2.8-.2 1.7-.4 2.5l-.4 1.6c-.1.2-.2.4-.3.5s-.3.2-.5.3c-.7.3-1.4.3-2 .3-.2 0-.4-.1-.6-.2-.1 0-.2-.1-.2-.1l-.2-.2c-.1-.1-.1-.2-.1-.2v-.2a7 7 0 0 0-.2-2.6c-.2-1-1-4-.8-4.8.3-1.7.7-2.4 2.4-3.8.2-.2.4-.3.6-.5a28 28 0 0 1 9.7-2.9c1.3-.2 1.5-.3 2.7 0s2.4 2.2 2.3 4c-.1.4-.2.8-.4 1-.3.6.2 1.8.3 2.4v.3c.1.6.2 1-.5 1.3-.2.1-.4.4-.6.6h0zm-16-3.8v.1l1.3-1 1.4-.8a31 31 0 0 1 9.1-2.9l3-.3c-1.2-.2-2.4-.2-3.6 0l-6 1.7c-1.5.6-3 1.2-4.2 2.2l-1 1zm16.5-1c.7-1-.4-3.7-1-4 0 1 .4 3 1 4zM82.8 32.3a53 53 0 0 1-2.3-11L48 28c-.3.1-.7.1-1 .3-.1 0-.1.1-.1.2v.2c0 .1.1.1.2.2s.1.1.2.1c.6 0 .8.1 1 .7l.3 1.2c.3 1.3 1 4 1.2 5.4.2.8.7 1 1.5 1 .1 0 1-.1 2.5-.2 0-.8 0-1.7.1-2.5.4-2 1.6-3.8 3.3-5 2-1.3 3.2-2 5.8-2.4 1.6-.4 3.3-.4 5-.3 2.6.2 5.3 2.7 5.7 5.6l.5 3L82 34c1-.2 1-.4.8-1.4h0zm-32.4 4c-.2-.6-.4-1.2-.5-1.8l-.3-2.8.7 3.7c.1.7.2 1.3 1 1.4-.2.1-.4 0-.6-.1s-.3-.2-.4-.4h0zm.5-8L71.2 24a424 424 0 0 1-20.3 4.2zm31 5c-.1 0-.3-.1-.4-.1s-.2-.2-.2-.3l-2-10c0-.1.1-.1.1-.2s.1-.1.2-.1l2.2 11m-2.5-12.2l-1.2.2V21c0-.3-.1-.3-.4-.3L47.4 27l-.2-1 32.4-6.7c.7-.1.7-.1.8.5v.3l-1.2.2.2 1m15-3c-.1-.1-.2-.2-.4-.2h0c-.5-1.5-1-3-2-4.3-.2-.4-.6-1.2-1.3-1.3l-1.2.1c-1.8.3-5.7.8-6.6 1.4-.1 0-.2.1-.3.2s-.1.2-.2.3c0 .1 0 .2.1.3h0a59 59 0 0 0 1 5.3v.3c-.1.2-.1.4-.1.6-.5 5 1.8 9.7 2 10.2l10.4-2c.1 0 .2-.1.3-.1s.2-.1.2-.2.1-.2.1-.3v-.3l-2-9.3c0-.2-.1-.3-.2-.5h0zm-7.7 3l-1.5.3c0 .1-.1.2-.2.3s-.2.1-.3.1-.2 0-.3-.1-.1-.2-.2-.3 0-.2.1-.3.1-.2.3-.2h.3c.1 0 .2.1.3.2l1.6-.1zm6.2-3L84.5 20c-.1 0-.2-.1-.3-.1s-.2-.1-.2-.2-.1-.2-.1-.3l-1-4.8c.1-.1.1-.2.2-.2.2-.1.8-.3 2.2-.6l5.4-1c.4 0 .8.8 1 1l1.5 3.4c0 .1.1.2 0 .3s0 .2-.1.3-.1.2-.2.2-.2.1-.3.1z"/><path d="M110 15.8c-.1-.2-.3-.4-.4-.5-1-1-2.7-.8-3.4-.7l-.7.1-7.5 1.5a30 30 0 0 0-2.2-3l-1.4-1.4c.1-.1.2-.1.3-.2 0-.2-.3-.4-.4-.5-1-.6-2-.3-2.4-.3-2.7.5-6 .8-8.5 1.8a3 3 0 0 0-.8.4c-.6.4-1 1-1.2 1.5h0c0 .1-.1.2-.1.3-.2 1.6.8 5 1 5.5v.2l-.1.1c-.2.1-.7.8-.6 2.6l.1 1.2c.7 4 1.7 9.2 3 9h.1a180 180 0 0 1 13.5-3.2L98 28a15 15 0 0 1-.7-4.1c.3-1.8.8-2.5 2.5-4 .2-.2.4-.3.7-.5 2.8-1.7 7.3-2.6 9.8-3h.3c-.1-.2-.1-.4-.2-.6h0zm-28.7-1v-.2h.3c.1 0 .2.1.3.1.1.1.1.2.1.3.5 2.2.6 4 1 4.5v.2c0 .2-.4.4-.8.5a18 18 0 0 1-1-5.4zm13.4 4l2 9.6c0 .1-.1.2-.1.3s-.1.2-.2.2-.2.1-.3.1l-10.5 2a20 20 0 0 1-2-10.3c0-.2.1-.4.1-.6h0l-1-5.3c0-.1-.1-.2-.1-.3s.1-.2.2-.3.2-.2.3-.2c1-.6 4.8-1 6.7-1.4l1.2-.1c.7 0 1.2 1 1.4 1.3l2 4.3c.2.1.3.2.4.3s.2.3.2.5h0zm2.4-2c-.5.3-1.7 1-2 .5-.1-.1-.2-.2-.2-.3-.5-.8-.7-1.4-2-3.4-.1-.2-.3-.6-.2-1 .1-.1.4-.3.4-.3.3-.3.8-.3 1-.5.5.3.7.6 1.4 1.5l2 3-.6.5zm1.2 1.7v-.1s0-.1.1-.1.1-.1.1-.1.1 0 .1-.1l2-.4s.1 0 .1.1.1.1.1.1 0 .1.1.1l-2.6.5zm-.1-.5c0-.1 0-.2.1-.3l.2-.2 2-.4s.1 0 .1.1.1.1.1.1 0 .1.1.1l-2.6.5zm-.1-.5v-.1s0-.1.1-.1.1-.1.1-.1.1 0 .1-.1l2-.4c.1 0 .2 0 .3.1l.2.2-2.6.5zM138.7 43l-20.5 9.5-1.5-2.4s2.2-4.2 3-7.5-.7-4.7-2.3-5-8.5 2.8-8.5 2.8c-.2.5-.2.2-.6 3.6s1.6 4.7 1.8 4.4 0-.4 0-.6.5-1.4 1.3-2.6 3.5-2.4 3.7-2.2.3.4.3 2-1 3.2-2 4-1.7 2.6-1 3 1.3 2.7 1.3 2.7-.6.3-9 5.2-21.2 15-22 17.5 1.6 2.4 3 2.2 30-8 30-8 1.8-2.2 3.4-8-.2-9.2-.2-9.2L138.7 43zM113 65l-1.7 3-14.6 4.7c-.6-.1 2.8-8.7 17.3-16 0 0 1.8 3.2-1 8.2zm-7-15.5l-2.3 1s.2.8-.6 3.2c-1.4 4.2-4.6 4.8-5 5s-.7-1.4-.2-4.7c.6-4.3 3.8-5.5 5-5.4.4 0 .7.1 1 .3.4.2.5-.1.6-.5s0-1.6-.7-3.3-3-3-4-3-2 1-4.2 3.6-3.5 9-3.5 9-4 4.8-5.2 5c-2 .2-3.6-4-3.6-4l3.4-4.8s2-.1 3.2-.3 2.4-2.4 2.5-2.7-.3-.4-2.3-.2-4.2-1-4.2-1-.4-.1-1 .4-3.3 5-3.3 5l-.8-2.4c-.4-1.2-.5-2.5-.4-3.7L75 47s-.2.7.5 3.8a18 18 0 0 0 2.9 5.8c-.8 1.2-1.8 2.2-2.8 3-1.6 1.3-2.8-2-2.8-2s-4 3-5.4 3.6-.1-4 0-5.4S69 48 69 48l-9.3 2s-.2 2.2-1.4 6.3-4.6 6.4-6 7.4.1-4.6.1-4.6l-7.7 1.6s-.2.7-1.6 3.5-4.3 5.2-5.2 5.2-2.2-.5.4-5 7.3-7 7.7-6.8.6.1.7 0 .3-.6-.2-1.5a14 14 0 0 0-4.9-4c-1.2-.3-2.4 1-5.2 4.3s-4.7 10-4.7 10-2.3 2-3.2 2.3-1.8-3.3-3.5-9a202 202 0 0 1-3.4-14.2 43 43 0 0 1 7.2-9.2 50 50 0 0 1 7.8-6.5c0 .1.1.1.1.2.1.5-2 5.7-2 5.7s5.5-2.3 7-5.2.8-6 .3-6.8-2.2-1.2-4-1a5 5 0 0 0-1.7.6h0c-1.4.8-3 2-4.6 3.5a78 78 0 0 0-11.4 11.7c1-3.7 3-11.5-1.5-10-6 2-13.6 5.7-13.6 5.7L6 36s2.7-2.7 3.5-1a53 53 0 0 1-2.2 26.2L0 78.8l9.8-2s2.7-12.3 6.8-21.8l3 15.4c.5 2 2.8 4 6.4 3.5s6.7-3.5 6.7-3.5 1 1.6 1.7 2 2 1.8 6-1 5.2-7 5.2-7 .1 3 1.5 4.3 2.6 1.5 6.5-.6 7.8-12 7.8-12l-1 4.8c-.5 2.3-1.4 5.6 2.3 6s6.2-3 6.2-3 1 1.5 2.3 1.7 3.2-.6 4.3-1 4.7-5 4.7-5l2 3c.2.3 1.5 1.8 4.8.7s6-6 6-6v1a10 10 0 0 0 1 2.5c.3.5 1.5 1.2 2 1.3s2.8-.1 4.3-1.2c1.4-1 2.3-1.2 4.2-5.4 1-2.4 1.4-6.4 1.4-6.4"/></svg>