<svg xmlns="http://www.w3.org/2000/svg" width="87" height="88" fill="#fff" fill-rule="evenodd"><path d="M35.66 49.1l-.06.64H38V37.98h-2.32V49.1zm4.06-27.53c-.6.17-.45.72-.45 1.34v8.7c0 .5-.12 1.3.25 1.52a4.4 4.4 0 0 0 1.7.04c.48-.16.36-.76.36-1.35v-8.7c0-.56.12-1.2-.26-1.46-.24-.18-1.3-.18-1.6-.1zm3.75 17.17v10.23c0 .85.6.7 1.6.7.5 0 .7-.2.7-.7v-10.3c0-.83-.77-.7-1.54-.7-.57 0-.77.2-.77.76m2.7-12.63c2.6 0 2.3.32 2.3-2.3s.32-2.26-2.27-2.26l-.02 4.55z"/><path d="M27.65 38.42l-.01 4.08h2.2v-4.03c-.06-.5-.52-.5-1.03-.5-.6 0-1.05-.1-1.17.44m56.66-9.15l-1.53-3.72a40.6 40.6 0 0 0-2.27-4.24l-3.87-5.34-2.52-2.74-.62-.62a47.8 47.8 0 0 0-5.07-4.15L66.84 7.4a40.5 40.5 0 0 0-8.8-4.31A40 40 0 0 0 54 1.86a41.2 41.2 0 0 0-4.4-.87C47.95.76 46.3.62 44.63.6h-2.2c-3.22.07-6.43.5-9.56 1.26l-4.07 1.2a43.5 43.5 0 0 0-7.17 3.31l-1.64 1a64.6 64.6 0 0 0-4.55 3.35l-3.38 3.14c-.88.87-1.63 1.88-2.46 2.8-.63.7-1.13 1.5-1.7 2.24-1.42 1.9-1.93 3.1-3 4.9-.57.94-1.22 2.48-1.66 3.54C1.36 32 0 37.32 0 42.48c0 4.6.14 7.35 1.26 11.8a38.2 38.2 0 0 0 1.22 4.03l.72 1.9c.85 2.13 1.9 4.1 3.08 6.06.9 1.5 1.93 2.85 2.97 4.24.12.15.18.26.3.4a19.9 19.9 0 0 1 .6.72l2.52 2.74.62.62 2.1 1.86c.25.2.48.38.72.6s.5.38.74.58a44.3 44.3 0 0 0 6.42 4.12C28.64 85 36.05 87 42.08 87a42.3 42.3 0 0 0 11.86-1.26 46.7 46.7 0 0 0 7.8-2.74c1.2-.53 2.27-1.15 3.42-1.77a8.7 8.7 0 0 0 .83-.5l5.36-3.85a8.8 8.8 0 0 0 .71-.61l.7-.62c.1-.1.2-.2.32-.3.94-.78 1.77-1.7 2.6-2.6l1.53-1.8c.2-.23.38-.5.58-.73a36.1 36.1 0 0 0 2.7-3.88 43.3 43.3 0 0 0 5.92-16.37c.2-1.5.35-3.02.4-4.55V42.1a41.3 41.3 0 0 0-2.49-12.83zm-32.28-9.1h2.84l6.2 23.2c.16-.34.6-2.17.77-2.8v-.02l5.33-20.35h2.88v30.7H66.9l-.03-17.3-4.5 17.3h-2.65l-.2-.83c-.28-1.15-.62-2.33-.92-3.47l-3.23-12.34c-.02-.13-.07-.26-.12-.37-.02-.04-.05-.08-.1-.1v17.1H52V20.2zm9.02 35.66c.55-.03.36.07.6.4.37-.32 0-.43.66-.43-.15.36-.35.46-.45.8a2.4 2.4 0 0 1 .5.76c-.65 0-.35-.23-.72-.52-.1.2-.2.36-.35.52H61c.03-.22.35-.58.5-.8l-.44-.76zm-.3 0c0 .5.05 1.1-.03 1.58h-.27c-.03-.28-.04-.57-.03-.86 0-.73-.12-.7.33-.7h0zm-1.2.57c.38.1.88.07.7.68-.1.4-.58.33-1.06.33l-.01-1.58c.5.02.28.06.36.57zm-1.66-.57v.6h.64c0-.53-.15-.6.34-.6l-.04 1.58h-.3l-.01-.68h-.64l-.03.7h-.27c-.03-.3-.04-.62-.03-.93-.01-.53-.14-.63.33-.64h0zm-.5.1c-.04.27.01.2-.34.2l-.03 1.3h-.28l-.02-1.3c-.4 0-.33.1-.35-.28.28.01.82-.07 1.03.1h0zM55.7 57.4c-.53.14-.96-.1-1.1-.5-.17-.53.05-.87.55-1.05 1.1-.4 1.55 1.28.54 1.55h0zm-1.35-.2c-.4.3-.46.22-1 .22l-.02-.24V55.8c.4 0 1.22-.03.83.7.22.25.26.23.2.65h0zm-2.75-1.4c.43.01.32-.12.32.95l.14-.1c.01-.01.03-.02.04-.04.42-.42.42-.8.88-.83.04.54.04 1.08-.02 1.6l-.28-.02-.01-.93-.05.04-.13.1c-.42.4-.4.8-.9.84v-1.6zm-1.4.58v-.58c.43.01.24-.01.3.16.1.22-.03.2.14.38.13-.3.24-.6.7-.52-.15.24-.36.45-.53.7.13.3.5.64.54.87-.32 0-.33.01-.5-.22s-.08-.2-.35-.4l-.02.6-.28.01-.03-.65c-.6.72-.3.66-.83.65.15-.38.44-.54.56-.9-.2-.2-.4-.43-.55-.68.66-.01.23.03.83.58h0zm-5.5-36.34a21.5 21.5 0 0 1 3.77.09c.08.01.15.04.22.06.67.27 1 .68 1.15 1.25a6.1 6.1 0 0 1 .14 1.6c0 .4.02.83.03 1.26.02.85-.02 1.7-.36 2.33l-.01.02c-.03.05-.06.1-.1.15-.5.68-1.35.78-2.34.8h-1.02v7.14l-1.5-.02.02-14.67zm3.78 37.33c-.32-.07-.17-.17-.2-.58-.36.32-.15.58-.77.57a3.9 3.9 0 0 1 .39-.61c-.38-.24-.7-1.07.7-.94v.83c0 .1.01.33 0 .42-.03.4.05.18-.13.3h0zM47.2 37.94c.05.33.08.67.08 1a129.7 129.7 0 0 1 .04 3.69l-.02 5.23c0 1 .17 2.64-1.3 3.16a2.7 2.7 0 0 1-.41.11 4.1 4.1 0 0 1-.6.07 3.8 3.8 0 0 1-1.82-.27 2.2 2.2 0 0 1-.34-.19c-.02-.02-.05-.04-.07-.05s-.1-.06-.13-.1c-.27-.24-.46-.56-.55-.9-.1-.4-.12-3.2-.1-5.74l.03-4.18c0-1.03-.12-2.5 1.13-3.07a1.9 1.9 0 0 1 .63-.18c1.7-.28 3.03.1 3.47 1.4h0zM45.85 57.4c0 .54-.3.53-.3-.01l-.95.03c0 .38.07.3-.23.34-.1-.13-.07 0-.07-.4 0-.5.2-.06.28-.62.02-.3.03-.6.01-.9l1.08.02v1.28l.45-.03.05-1.28 1.1.02-.03 1.55h-.28l-.02-1.3h-.43c0 .9.1 1.32-.66 1.32h0zm-3.26-.01l-.03-.24V55.8h.35c.52 0 .7.3.48.7.75.77-.14.87-.8.87h0zm-.88 0c-1.2.3-1.52-1.33-.46-1.6 1.13-.27 1.44 1.36.46 1.6v-.01zm-3.9-35.66c.03-.15.07-.3.14-.44.12-.3.3-.54.54-.74a2 2 0 0 1 .82-.42c.28-.06.56-.1.85-.1.58-.02 1.23.02 1.56.14l.08.04c.25.1.48.27.67.46a2.1 2.1 0 0 1 .5.75c.06.17.1.8.12 1.64.07 2.54 0 7.14 0 8.15 0 .56.05 1.23-.06 1.84-.12.63-.42 1.2-1.16 1.5-.1.04-.2.07-.3.1l-.06.02a6.7 6.7 0 0 1-2.31-.02c-.06-.02-.1-.04-.15-.06-.02-.01-.05-.02-.07-.03-.3-.13-.56-.33-.76-.6-.13-.16-.23-.34-.3-.53a7.7 7.7 0 0 1-.13-1.45c-.1-2.5-.02-7.34-.02-8.4-.01-.57-.08-1.28.04-1.87zm1.07 30.9l-.03-1.33H34.5v1.3H33v-2.84h.26c.28 0 .5-.01.65-.1s.23-.26.23-.6c.02-.84 0-3.54-.01-6.22V37.7a10.3 10.3 0 0 1 .05-1.2h5.3v13.25l.9.03-.03 2.83h-1.47zm.33 4.77c-.35 0-.18.04-.33-.1 0 0-.1-.36-.62-.22-.37.22.06.32-.54.33 0-.07.48-1.6.75-1.6s.74 1.5.74 1.6h0zm-1.7-.24c-.17.3-.52.24-.98.24l-.03-.25V55.8c.46 0 .5-.04.87.13.07.28.07.38-.05.6.24.16.35.3.2.6zm-1.84.25c-1.24.3-1.52-1.35-.46-1.6 1.15-.27 1.4 1.36.46 1.6zm-1.6 0h-.28v-1.3c-.4 0-.32.1-.35-.28h1.03c-.02.37.05.28-.37.28.02.43.01.87-.05 1.3h.01zm5.8-1.58c.8 0 .92.98-.08 1l-.02.12-.02.44h-.28l-.03-.25V55.8h.43zm-9.2-35.77h1.5l.03 5.98L34 21.5c.07-.17.12-.32.17-.46.2-.5.25-.76.4-.9s.32-.1.7-.1c.23.01.52.03.9.03l-2.04 5.22a6.5 6.5 0 0 0-.24.65c-.08.33.01.45.2 1.18l2 7.6H34.5l-1.67-6.2a6 6 0 0 0-.6 1.57 6.9 6.9 0 0 0-.1 1.18v3.46h-1.52l.04-14.7zm2.2 37.34c-.07.01-.14 0-.2-.02-.2-.07-.23-.46-.78-.3-.4.24.13.32-.56.33.07-.25.54-1.6.78-1.6s.7 1.35.76 1.6h.01zm-6.73-19.24a2 2 0 0 1 .11-.37c.08-.2.2-.37.33-.53.02-.03.05-.05.07-.08.1-.1.22-.22.35-.3.17-.1.37-.2.57-.25.96-.27 2.45-.13 3 .28a2.3 2.3 0 0 1 .58.66 1.9 1.9 0 0 1 .24.66c.15.97.02 3.23.02 4.34v8.63l-1.48-.03v-7.12h-2.3v7.13h-1.48c-.14-1.16-.02-3.1-.02-4.34l.03-8.68zM30.3 55.8v.58c.2-.15.4-.35.5-.58l.42.03c-.18.24-.4.44-.66.6.15.33.54.58.68.93h-.44c-.1-.25-.3-.47-.5-.64l-.05.66-.27-.02a8.7 8.7 0 0 1-.02-.91c-.01-.53-.14-.63.33-.64zm-.7.85c.46.68-.37.75-.95.72v-1.55c.65-.08 1 0 .9.56-.04.2-.07.08.06.27zm-1.14.7c-.3.13-.36-.04-.43-.3-.86 0-.56-.02-.7.12-.22.22.07.2-.4.2.02-.2.25-.66.35-.9.3-.7.17-.7.55-.72l.64 1.58zm-2.5-1.5c.02-.01.03-.01.05-.02l.06-.01h.83c-.02.37.06.28-.35.28a7.8 7.8 0 0 1-.03 1.3h-.3v-1.3c-.36 0-.3.08-.35-.2l.08-.05zm-.2.04v.34c-.3-.15-.2-.17-.63-.12-.32.18-.55 1.34.64.9 0 .3-.06.6-.7.38-1-.35-.4-2.08.7-1.5zm-6.54-19.4h1.45a.8.8 0 0 1 .02.1c.12.84-.06 4.8.04 5.94H23l.03-6.04h1.47v14.67l-1.47-.01a40.3 40.3 0 0 1-.02-2.37v-.83c.02-1.76.05-3.58-.04-3.9l-2.24.01v7.13l-1.5-.03.02-14.66zm4.56 20.88c-.86.26-1.38-.56-1.05-1.18.13-.24.26-.3.5-.37 1.12-.36 1.5 1.27.55 1.56zm-2.78.35v-.52c.2-.43.3.22.3-1.4h1.07c0 1.8.17 1.1.2 1.6.01.36-.32.62-.33-.04h-.93c0 .37.1.37-.28.35zM14.7 46.7c1.44-.42 2.54.54 2.83 1.57.1.3.1.6.07.9s-.13.6-.3.86a2.3 2.3 0 0 1-1.43 1.08c-2.86.72-4.16-3.54-1.2-4.42zm48.25 17.1c-2.26 1.03-4.86 1.54-7.6 1.65-2.95.12-5.66-.54-8.6-.54-.67 0-2.13-.03-2.58.24.65 1.45 3.52.32 3.52 2.5 0 1.72-2.33 1.8-3.92 1.87-3 .14-7.04-.46-8.95-2.65-.5-.58-.73-1-1.53-1.4-1.18-.58-2.34-.48-3.6-.4.3.92.53 1 1.53 1.22.75.17 1.37.6 1.48 1.35.27 1.88-2 2.08-3.6 2.08-2.94 0-6.24-.76-8.6-2.32a9.8 9.8 0 0 1-3.48-3.8c-1.42-2.85-1.6-7.74-1.52-11.07l2.97.07c-.04 3.2.02 7.9 1.57 10.27 1.26 1.92 3.8 3.35 7 3.73a6.2 6.2 0 0 1-.3-3.6l.1-.33c.14-.33 3.28-.63 4.05-.63 1.9 0 4.3.64 5.45 2.02.65.77.88 1.22 2.03 1.7a9.6 9.6 0 0 0 3.06.71c-.2-.73-.45-1.08-.45-2.03 0-1.5.13-1.6 1.66-2.05 5.57-1.6 11.1 1.57 18-.9 2.94-1.05 4.97-2.9 5.95-5.62.47-1.3.4-1.93.6-3.3l2.95-.06a12 12 0 0 1-7.2 11.25h.01z"/><path d="M55.17 56.13c-.53.3-.15 1.25.5.9.58-.3.15-1.3-.5-.9zm-20.03.03c-.13.07-.17.01-.23.3-.1.53.36.82.77.6.53-.3.13-1.27-.53-.9m6.03 0c-.1.07-.2.2-.23.32s-.01.27.06.38.18.2.3.24.27.02.4-.04c.54-.28.12-1.33-.53-.9zm-17.96.02c-.12.07-.2.18-.23.3s-.01.27.06.4.18.2.3.24.27.02.4-.05c.55-.3.12-1.35-.52-.88zm-1.62.32a2.2 2.2 0 0 1-.1.59h.55v-1.02h-.45v.43zm23.3 0c.01.2-.03.4-.1.6h.55v-1.02h-.45v.43zm14.64.6c.2 0 .46.01.42-.22-.03-.2-.24-.18-.42-.2v.4zm-22.7.02c.37-.03.38.02.4-.36l-.4-.06v.4zm6.06 0c.38-.02.36 0 .37-.35l-.38-.07v.43zm-13.93 0c.32-.02.34 0 .4-.26-.15-.16-.1-.14-.4-.15l.01.4zm24.67-.02c.38.06.4 0 .4-.33l-.36-.06-.04.4zm-5.37-.6v-.45c-.55.07-.5.4 0 .45"/><path d="M39.75 56.53c.52-.07.54-.4 0-.45v.45zm-12.3.25l.4.01-.17-.48-.23.48zm26.18-.34c.14-.02.26.03.3-.15.04-.2-.14-.2-.3-.23v.38zm-15.37.33l.4.02-.1-.3c-.03-.05-.06-.1-.1-.13l-.2.4zm-6.37-.01l.4.03-.18-.47-.22.45zm4.94-.32c.15-.03.25 0 .28-.15.04-.2-.13-.2-.28-.22v.38z"/><path d="M28.96 56.44c.36-.03.46-.26.07-.38-.04.05-.06.1-.06.17v.2m13.93.01c.34-.05.43-.23.1-.37-.1.15-.1.1-.1.37z"/></svg>