<svg xmlns="http://www.w3.org/2000/svg" width="87" height="87" fill="#fff"><path d="M43.398 86.434C19.468 86.434 0 67.047 0 43.218S19.468 0 43.398 0s43.397 19.387 43.397 43.218-19.468 43.216-43.397 43.216zm0-84.88c-23.07 0-41.84 18.7-41.84 41.665s18.772 41.66 41.84 41.66S85.236 66.2 85.236 43.218 66.467 1.553 43.398 1.553zM15.942 39.66h-4.074v-3.6h-1.87v26.045h1.87V41.523h4.074v20.573h1.87V36.052h-1.87v3.6zm18.536 16.964h-3.743c-.045.005-.1-.001-.133-.015s-.082-.038-.115-.07-.055-.072-.07-.114-.02-.088-.016-.133v-20.24h-1.87v20.24c0 .658.203 1.195.603 1.593s.94.602 1.6.602h3.743v3.608h1.87V36.052h-1.87v20.572zm10.342.416l-4.074 2.518V36.052h-1.87v26.704l5.946-3.547v2.888h1.87V36.052h-1.87v21zm10.342-17.38h-4.076v-3.6h-1.87v26.045h1.87V41.523h4.076v20.573h1.87V36.052h-1.87v3.6zM22.4 36.052l-3.066 26.043H21.2l.418-3.608h3.325l.418 3.608h1.877L24.17 36.052H22.4zm2.328 20.572h-2.873l1.437-12.2 1.437 12.2zm49.017-20.572H71.95l-3.065 26.043h1.876l.425-3.608h3.312l.425 3.608H76.8l-3.063-26.043zm.545 20.572h-2.873l1.435-12.2 1.438 12.2zM65.9 38.44l1.474-.88v-2.167l-5.946 3.676v-3.017h-1.87v26.044h1.87v-21l2.82-1.682 1.497 2.98v19.693h1.87v-20.23L65.9 38.44zM33.86 56.074h-2.84c-.017 0-.033-.007-.044-.018s-.018-.028-.018-.044V36.114c0-.017.007-.032.018-.044s.028-.018.044-.018h2.84c.017 0 .032.007.044.018s.018.028.018.044V56c0 .017-.007.032-.018.044s-.028.018-.044.018zm-18.533 6.02h-2.843c-.017 0-.033-.007-.045-.018s-.02-.028-.02-.044V42.137c0-.017.007-.033.02-.045s.028-.02.045-.02h2.843c.017 0 .033.007.045.02s.02.028.02.045v19.9c0 .017-.007.032-.02.044s-.028.018-.045.018M65.06 42.543l-1.048-2.08c-.005-.01-.013-.02-.022-.027s-.02-.013-.03-.016a.1.1 0 0 0-.035-.003c-.012.001-.023.005-.033.01l-1.745 1.034c-.013.008-.024.02-.03.033s-.01.028-.01.044v20.47c0 .023.01.045.026.062s.04.026.062.026h2.787c.024 0 .046-.01.063-.026s.026-.04.027-.062V42.58c0-.013-.007-.025-.01-.04m-27.6-20.514a1.8 1.8 0 0 0 .578-.18c1.18-4.292 3.54-7.758 7.04-10.513l.054.347c.14.864.255 1.736.443 2.592.174.794.418 1.575.652 2.36.278.877.64 1.726 1.08 2.534.198.366.425.717.646 1.1 0 0 .486.325.883.337a1.89 1.89 0 0 0 .71-.117c-.033-.04-.066-.075-.093-.114l-.734-1.017a12.7 12.7 0 0 1-1.329-2.76 21.39 21.39 0 0 1-.787-2.81c-.093-.43-.16-.867-.235-1.3-.052-.297-.1-.593-.14-.9-.025-.184-.036-.37-.06-.605l.8.416c.613.364 1.13.852 1.682 1.295a2.39 2.39 0 0 0 1.288.53 3.42 3.42 0 0 0 2.218-.591 12.73 12.73 0 0 0 .936-.678c.176-.153.343-.316.5-.487a7.29 7.29 0 0 1-1.533-.712c-.418-.254-.805-.538-1.198-.822a4 4 0 0 0-1.007-.587 3.44 3.44 0 0 0-1.5-.175 3.4 3.4 0 0 0-1.42.482c-.288.187-.557.402-.825.598-.102-.45-.406-.568-.754-.477a.14.14 0 0 1-.1-.046c-.1-.112-.2-.236-.293-.347a7.42 7.42 0 0 0-1.866-1.497 6.07 6.07 0 0 0-2.457-.738 5.68 5.68 0 0 0-1.662.107 5.25 5.25 0 0 0-1.777.73c-.475.32-.928.676-1.394 1.02a15.6 15.6 0 0 1-2.118 1.322 11.52 11.52 0 0 1-1.993.85c0 .018 0 .03.007.036a10.76 10.76 0 0 0 1.456 1.322 11.74 11.74 0 0 0 1.254.82 9.59 9.59 0 0 0 1.413.638c.628.226 1.296.32 1.962.278a5.02 5.02 0 0 0 1.016-.174c.874-.247 1.572-.777 2.23-1.37.302-.277.616-.533.936-.783a13 13 0 0 1 1.796-1.193c.17-.093.353-.167.528-.25-3.762 3-6.312 6.8-7.452 11.456a1.49 1.49 0 0 0 .605.079"/><path d="M55.124 23.612a8.22 8.22 0 0 0-.76-2.287c-.2-.357-.448-.673-.762-.928-.705-.57-1.523-.684-2.394-.534-.588.106-1.154.3-1.672.606a1.91 1.91 0 0 1-.71.117c-.397-.012-.883-.337-.883-.337l-.22-.032c-.403-.085-.815-.114-1.226-.086a4.41 4.41 0 0 0-1.13.237c-.403.15-.777.366-1.108.64-.557.45-.836 1.07-1.04 1.725l-.12.416-.48-.778a2.67 2.67 0 0 0-.785-.791 2.68 2.68 0 0 0-1.041-.402c-.457-.067-.923-.037-1.368.086a5.55 5.55 0 0 0-1.393.586 1.8 1.8 0 0 1-.58.18c-.204.015-.4-.01-.603-.08l-.878-.147c-.43-.072-.87-.07-1.3.01a3.64 3.64 0 0 0-1.382.508c-.506.285-.922.705-1.203 1.2a5.46 5.46 0 0 0-.557 2.266 7.03 7.03 0 0 0 .029 1.027 8.64 8.64 0 0 0 .194 1.238c.118.425.263.842.433 1.25a5.16 5.16 0 0 0 1.049 1.612c.488.523 1.083.935 1.746 1.207a5.42 5.42 0 0 0 1.703.416 3.65 3.65 0 0 0-.697-2.068c-.96-.65-1.685-1.446-1.685-3.053 0-2.42 1.65-4.753 3.28-4.753s3.28 2.33 3.28 4.753c0 1.603-.722 2.398-1.683 3.053a3.64 3.64 0 0 0-.697 2.027l.364-.05c.637-.097 1.26-.267 1.86-.508.78-.318 1.47-.82 2-1.462a4.89 4.89 0 0 0 .858-1.543l.194-.656.697.948c.487.57 1.1 1.024 1.788 1.324a5.92 5.92 0 0 0 2.175.482c-.038-.627-.226-1.25-.77-2.005-.447-.672-.73-1.628-.73-2.693l.007-.277c0-1.095.557-4.525.557-4.525h.57v5.1h.595l.234-5.1h.613l.236 5.1h.594v-5.105h.57l.557 4.525.007.277c0 1.066-.28 2.022-.73 2.693-.534.744-.723 1.353-.766 1.968a5.98 5.98 0 0 0 .651-.081c.537-.098 1.06-.255 1.562-.47s.97-.5 1.378-.874a4.89 4.89 0 0 0 1.196-1.653c.3-.675.473-1.4.5-2.138.045-.725-.002-1.453-.14-2.166m-30.68 43.1h.45v1.132h1.556v-1.132h.447v2.677h-.447V68.26h-1.556v1.132h-.45v-2.677zm5.673 2.326c.07-.002.14-.015.208-.04v.362a.96.96 0 0 1-.336.06.47.47 0 0 1-.303-.076c-.09-.06-.157-.146-.2-.247a1.59 1.59 0 0 1-1.047.357c-.475 0-.946-.25-.946-.815 0-.694.638-.902 1.215-.902a3.72 3.72 0 0 1 .744.083v-.094c0-.402-.28-.67-.766-.67a2.51 2.51 0 0 0-.975.2v-.434c.33-.116.675-.176 1.024-.18.716 0 1.17.4 1.17 1.138v1.048a.18.18 0 0 0 .123.2c.027.01.056.01.084.007h-.004zm-1.57.033c.172 0 .34-.034.5-.1a1.27 1.27 0 0 0 .419-.289v-.5a3.82 3.82 0 0 0-.683-.078c-.4 0-.818.117-.818.507 0 .312.28.452.582.452zm3.595.362a.91.91 0 0 1-.325-.061v-.35a.53.53 0 0 0 .178.033c.477 0 .634-.903.684-2.342h1.976v2.677h-.447V67.13h-1.09c-.1 1.37-.28 2.308-.975 2.308m5.848.022c-.672 0-1.327-.423-1.42-1.2h-.66v1.132h-.45v-2.676h.45v1.138h.66c.095-.776.75-1.2 1.42-1.2.734 0 1.434.5 1.434 1.404s-.697 1.405-1.434 1.405v-.005zm0-.418a.99.99 0 0 0 .548-.165c.162-.108.3-.26.364-.44a.98.98 0 0 0-.213-1.071.99.99 0 0 0-1.075-.214c-.18.074-.334.2-.443.362a.98.98 0 0 0-.166.546.93.93 0 0 0 .061.384.95.95 0 0 0 .212.326.94.94 0 0 0 .712.273zm3.327.418c-.8 0-1.394-.555-1.394-1.567 0-.898.347-1.517.828-1.818.773-.473 1.304-.277 1.697-.652v.47c-.387.278-.818.156-1.434.512-.375.223-.525.586-.638.925a1.19 1.19 0 0 1 .433-.373 1.21 1.21 0 0 1 .558-.128 1.29 1.29 0 0 1 .509.089 1.3 1.3 0 0 1 .432.28 1.28 1.28 0 0 1 .286.428 1.29 1.29 0 0 1 .094.506c0 .833-.557 1.327-1.37 1.327zm-.01-.423c.588 0 .935-.386.935-.892s-.347-.892-.935-.892a.92.92 0 0 0-.352.062c-.112.043-.215.108-.302.2a.91.91 0 0 0-.282.639c0 .507.37.892.935.892zm3.3-2.387c.733 0 1.434.5 1.434 1.406s-.697 1.404-1.434 1.404-1.432-.495-1.432-1.404.705-1.406 1.432-1.406zm0 .423a.99.99 0 0 0-.548.165c-.162.108-.3.26-.364.44a.98.98 0 0 0 .213 1.071.99.99 0 0 0 1.075.214c.18-.074.334-.2.443-.362a.98.98 0 0 0 .166-.546.93.93 0 0 0-.061-.384.95.95 0 0 0-.212-.326.94.94 0 0 0-.712-.273zm2.066-.356h.447v1.958l1.646-1.958h.382v2.677h-.45V67.44l-1.646 1.957h-.38v-2.678zm1.237-.416a1.3 1.3 0 0 1-.785-.234v-.4a1.37 1.37 0 0 0 1.568 0v.4a1.3 1.3 0 0 1-.783.234z"/><path d="M51.373 66.717h1.473c.47 0 .828.25.828.726a.63.63 0 0 1-.092.348.64.64 0 0 1-.266.243.65.65 0 0 1 .323.237.64.64 0 0 1 .12.381c0 .44-.286.742-.868.742h-1.518v-2.677zm1.428 1.138c.234 0 .418-.1.418-.362 0-.3-.23-.38-.418-.38h-.976v.742h.976zm.028 1.154c.28 0 .48-.085.48-.38 0-.316-.24-.4-.464-.4H51.82V69h1.008zm1.607-2.292h.45v1.116h.542l.85-1.116h.52l-1.02 1.332 1.143 1.345h-.527l-.985-1.15h-.525v1.15h-.45v-2.677zm5.6 0l-1.322 3.08c-.28.647-.62.892-1.013.892a1.09 1.09 0 0 1-.291-.039v-.384c.077.022.156.033.236.033.302 0 .52-.218.697-.652l.1-.246-1.276-2.682h.477l1.013 2.17.907-2.17.474-.003zm1.66-.067c.292-.01.58.067.83.218v.43a1.3 1.3 0 0 0-.773-.24c-.52 0-1.063.3-1.063 1s.527.993 1.052.993a1.64 1.64 0 0 0 .812-.218v.446c-.273.128-.572.2-.874.184-.705 0-1.438-.44-1.438-1.388 0-.97.755-1.417 1.455-1.417m-39.508.946a.44.44 0 0 1 .42.533.44.44 0 0 1-.35.34c-.085.016-.174.007-.254-.027a.44.44 0 0 1-.27-.405c-.004-.06.006-.12.027-.175s.055-.106.098-.148.094-.074.15-.094a.42.42 0 0 1 .176-.023zm42.42 0a.44.44 0 0 1 .4.28c.032.08.04.17.02.253a.44.44 0 0 1-.123.222c-.062.06-.14.1-.226.117s-.174.007-.254-.027a.44.44 0 0 1-.27-.405c-.004-.06.006-.12.027-.175s.055-.106.098-.148a.42.42 0 0 1 .328-.117z"/></svg>