<svg xmlns="http://www.w3.org/2000/svg" width="18" height="18" fill="none" ><path d="M9 18A9 9 0 1 0 9 0a9 9 0 1 0 0 18z" fill="#fff"/><path d="M4.8 5.7c0-.6.2-1 .4-1.7.2-.4.4-.6.8-.8 0-.2.2-.2.4-.4s.4-.2.6 0c.6.8 1 1.7 1.7 2.7.2.2 0 .4-.2.6s-.6.4-.8.6c-.2 0-.4.4-.2.6 0 .4.2.6.4.8.4.6.8 1.5 1.5 2.1.2.4.6.8.8 1 0 .2.2.2.4.2h.2c.2-.2.4-.4.8-.6.2-.2.4-.2.6 0 .6.8 1 1.7 1.7 2.7.2.2 0 .6-.2.6-.4.2-.8.2-1 .4-.4.2-.6.2-1 .2-.8-.2-1.5-.4-2.3-1-.6-.4-1.3-1.3-1.9-1.9-.8-1.3-1.7-2.5-2.1-3.8l-.6-1.9v-.6z" fill="#d40f14"/></svg>