<svg xmlns="http://www.w3.org/2000/svg" width="18" height="18" fill="none"><path d="M9 18A9 9 0 1 0 9 0a9 9 0 1 0 0 18z" fill="#d40f14"/><path d="M4.814 5.65c0-.628.21-1.047.42-1.674a1.63 1.63 0 0 1 .837-.837c0-.21.21-.21.42-.42s.42-.21.628 0c.628.837 1.047 1.674 1.674 2.72.21.21 0 .42-.21.628s-.628.42-.837.628c-.21 0-.42.42-.21.628 0 .42.21.628.42.837.42.628.837 1.465 1.465 2.093.21.42.628.837.837 1.047 0 .21.21.21.42.21h.21c.21-.21.42-.42.837-.628.21-.21.42-.21.628 0 .628.837 1.047 1.675 1.675 2.72.21.21 0 .628-.21.628-.42.21-.837.21-1.046.42-.42.21-.628.21-1.047.21-.837-.21-1.465-.42-2.302-1.046-.628-.42-1.256-1.256-1.884-1.884-.837-1.256-1.674-2.512-2.093-3.767L4.814 6.28V5.65z" fill="#fff"/></svg>