<svg xmlns="http://www.w3.org/2000/svg" width="40" height="40" fill="#d40f14"><path d="M17.5 23.747L24.015 20l-6.506-3.747v7.494zM20 0C8.956 0 0 8.956 0 20s8.956 20 20 20 20-8.956 20-20S31.044 0 20 0zm12.497 20.02s0 4.056-.514 6.012a3.13 3.13 0 0 1-2.203 2.203c-1.956.515-9.78.515-9.78.515s-7.803 0-9.78-.535a3.13 3.13 0 0 1-2.203-2.203C7.503 24.077 7.503 20 7.503 20s0-4.056.515-6.012a3.2 3.2 0 0 1 2.203-2.224c1.956-.515 9.78-.515 9.78-.515s7.823 0 9.78.535c1.07.288 1.915 1.133 2.203 2.203.535 1.956.514 6.032.514 6.032z"/></svg>