<svg xmlns="http://www.w3.org/2000/svg" width="40" height="40" fill="#d40f14"><path d="M23.828 20A3.83 3.83 0 0 1 20 23.828 3.83 3.83 0 0 1 16.172 20 3.83 3.83 0 0 1 20 16.172 3.83 3.83 0 0 1 23.828 20zm5.125-6.773a3.56 3.56 0 0 0-.859-1.321 3.59 3.59 0 0 0-1.32-.86c-.405-.157-1.013-.344-2.132-.395L20 10.585l-4.64.067c-1.12.05-1.728.238-2.132.396-.5.184-.95.478-1.32.86a3.56 3.56 0 0 0-.859 1.321c-.157.405-.344 1.013-.395 2.133L10.585 20l.067 4.64c.05 1.12.238 1.728.395 2.132a3.56 3.56 0 0 0 .859 1.321 3.59 3.59 0 0 0 1.32.86c.405.157 1.013.345 2.133.396l4.64.067 4.64-.067c1.12-.05 1.728-.238 2.133-.396 1.002-.386 1.793-1.178 2.18-2.18.157-.405.344-1.013.396-2.132l.067-4.64-.067-4.64c-.05-1.12-.238-1.728-.396-2.133zM20 25.897A5.9 5.9 0 0 1 14.103 20 5.9 5.9 0 0 1 20 14.103 5.9 5.9 0 0 1 25.898 20 5.9 5.9 0 0 1 20 25.897zm6.13-10.65a1.38 1.38 0 0 1-1.378-1.378 1.38 1.38 0 0 1 1.378-1.378 1.38 1.38 0 0 1 1.378 1.378 1.38 1.38 0 0 1-1.378 1.378zM20 0C8.956 0 0 8.956 0 20s8.956 20 20 20 20-8.956 20-20S31.044 0 20 0zm11.415 24.735c-.055 1.223-.25 2.057-.534 2.788a5.87 5.87 0 0 1-3.359 3.359c-.73.284-1.565.478-2.788.534s-1.616.07-4.735.07-3.5-.014-4.735-.07-2.057-.25-2.787-.534a5.61 5.61 0 0 1-2.034-1.325 5.63 5.63 0 0 1-1.324-2.034c-.284-.73-.478-1.565-.534-2.788s-.07-1.616-.07-4.735l.07-4.735c.056-1.223.25-2.057.533-2.788a5.62 5.62 0 0 1 1.325-2.034 5.64 5.64 0 0 1 2.034-1.325c.73-.284 1.565-.478 2.788-.534s1.616-.07 4.735-.07 3.5.013 4.735.07 2.057.25 2.788.533a5.63 5.63 0 0 1 2.034 1.325 5.63 5.63 0 0 1 1.324 2.034c.284.73.478 1.565.534 2.788s.07 1.616.07 4.735l-.07 4.735z"/></svg>