<svg xmlns="http://www.w3.org/2000/svg" width="40" height="40" fill="#fff"><path d="M23.8 20c0 2.1-1.7 3.8-3.8 3.8s-3.8-1.7-3.8-3.8 1.7-3.8 3.8-3.8 3.8 1.7 3.8 3.8zm5.2-6.8c-.2-.5-.5-1-.9-1.3-.4-.4-.8-.7-1.3-.9-.4-.2-1-.3-2.1-.4h-9.3c-1.1.1-1.7.2-2.1.4-.5.2-1 .5-1.3.9-.4.4-.7.8-.9 1.3-.2.4-.3 1-.4 2.1v9.3c.1 1.1.2 1.7.4 2.1.2.5.5.9.9 1.3s.8.7 1.3.9c.4.2 1 .3 2.1.4h9.3c1.1-.1 1.7-.2 2.1-.4 1-.4 1.8-1.2 2.2-2.2.2-.4.3-1 .4-2.1a80 80 0 0 0 .1-4.6l-.1-4.6c-.1-1.1-.2-1.7-.4-2.1zm-9 12.7c-3.3 0-5.9-2.6-5.9-5.9s2.6-5.9 5.9-5.9 5.9 2.6 5.9 5.9-2.6 5.9-5.9 5.9zm6.1-10.6c-.8 0-1.4-.6-1.4-1.4s.6-1.4 1.4-1.4 1.4.6 1.4 1.4-.6 1.4-1.4 1.4zM20 0a20 20 0 1 0 0 40 20 20 0 1 0 0-40zm11.4 24.7l-.5 2.8a6 6 0 0 1-3.4 3.4 7 7 0 0 1-2.8.5l-4.7.1c-3.1 0-3.5 0-4.7-.1s-2.1-.2-2.8-.5c-.8-.3-1.5-.7-2-1.3-.6-.6-1-1.3-1.3-2a7 7 0 0 1-.5-2.8v-9.5c.1-1.2.2-2.1.5-2.8.3-.8.7-1.5 1.3-2 .6-.6 1.3-1 2-1.3a7 7 0 0 1 2.8-.5h9.5c1.2.1 2.1.2 2.8.5.8.3 1.5.7 2 1.3.6.6 1 1.3 1.3 2a7 7 0 0 1 .5 2.8c0 1.2.1 1.6.1 4.7l-.1 4.7z"/></svg>