<svg xmlns="http://www.w3.org/2000/svg" width="183" height="71" fill="#fff"><path d="M4.4 64.6H1.2V68c0 .7-.1 1-.3 1.3H0V71h.5v-1h4.2v1h.5v-1.6h-.8v-4.7zM1.7 68v-3H4v4.2H1.5c.2-.4.3-.8.2-1.3zm7.5-3.5c-.5 0-1 .1-1.5.4s-.8.7-1 1.2-.3 1-.2 1.5.3 1 .7 1.4.8.6 1.3.8 1 .1 1.5-.1 1-.5 1.2-1 .5-1 .5-1.5V67c0-.3-.1-.7-.2-1s-.3-.6-.5-1-.5-.4-.8-.6-.7-.2-1-.2h0zm0 .5c.4 0 .8.1 1.2.3s.6.6.8 1 .2.8.2 1.2-.3.8-.6 1-.7.5-1 .6-.8.1-1.2-.1-.7-.4-1-.8-.4-.8-.4-1.2h0c0-.3 0-.5.1-.8s.2-.5.4-.7.4-.4.7-.5.5-.2.8-.2h0m8.8 3.5c-.2.3-.4.6-.8.8s-.7.3-1 .3c-.6 0-1-.3-1.5-.7s-.6-1-.6-1.5.2-1 .6-1.5 1-.6 1.5-.7c.4 0 .8.1 1 .3s.6.5.8.8h0 .4-.1c-.2-.4-.5-.8-1-1l-1.3-.4c-.7 0-1.3.3-1.8.8s-.7 1-.7 1.8.3 1.3.7 1.8 1 .8 1.8.8c.5 0 1-.1 1.4-.4s.7-.6 1-1l.1-.1-.5-.2h0zm1.7-3.2h1.8v4.7h.5V65h1.8v-.5h-4v.5zm6.8-.4l-2 5h.5l.5-1.2H28l.5 1.2h.5l-2.6-5zm-1 3.5l1-2.7 1 2.7h-2.2zm8-1c.2-.1.4-.3.5-.5s.2-.4.1-.7c0-1-.8-1.4-1.5-1.4h-2v5h2c.8 0 1.6-.4 1.6-1.4 0-.2-.1-.5-.2-.7s-.3-.4-.5-.5zm-1-2h.4c.2 0 .2.1.3.2s.2.2.2.3.1.2.1.3h0c0 .8-.7 1-1 1h-1.4V65h1.4zm-1.4 2.3h1.5c.5 0 1 .2 1 1 0 .3-.1.5-.3.7s-.4.3-.7.3H31v-2zm5.6 1.7v-4.2h-.5v5h.5l3-4.2v4.2h.5l-.3-5-3 4.2zm8.2-.7l-2-3.7h-.5v5h.5v-4l2 3.3h.4l2-3.3v4h.5v-5h-.5l-2 3.7zM56 67a3 3 0 0 1-1.5.4c-1 0-1.3-.3-1.3-1v-2h-.5v2c0 1 .7 1.5 1.8 1.5a4 4 0 0 0 1.5-.3v2.2h.5v-5H56V67zm2.4-2h1.8v4.7h.5V65h1.8v-.5h-4v.5zm8-.5c-.5 0-1 .1-1.5.4s-.8.7-1 1.2-.3 1-.2 1.5.3 1 .7 1.4.8.6 1.3.7 1 .1 1.5-.1 1-.5 1.2-1 .5-1 .5-1.5h0c0-.3-.1-.7-.2-1s-.3-.6-.5-1-.5-.4-.8-.6-.7-.2-1-.2h-.1zm0 .5c.4 0 .8.1 1.2.3s.6.5.8 1 .2.8.2 1.2-.3.8-.6 1-.7.5-1 .6-.8.1-1.2-.1-.7-.4-1-.8-.4-.8-.4-1.2h0c0-.3 0-.5.1-.8s.2-.5.4-.7.4-.4.7-.5.5-.2.8-.2h0m9 3l-1.6-3h-.6l2 4c-.1.2-.2.4-.4.5s-.4.2-.6.2H74v.5h.1c.6 0 1-.2 1.5-1l2.2-4.2H77l-1.6 3zm4 2h.5V65h2.7v-.5h-3.2v5zm7-5.2c-.5 0-1 .1-1.5.4s-.8.7-1 1.2-.3 1-.2 1.5.3 1 .7 1.4.8.6 1.3.8 1 .1 1.5-.1 1-.5 1.2-1 .5-1 .5-1.5V67c0-.3-.1-.7-.2-1s-.3-.6-.5-1-.5-.4-.8-.6-.7-.2-1-.2h0zm0 .5c.4 0 .8.1 1.2.3s.6.5.8 1 .2.8.2 1.2-.3.8-.6 1-.7.5-1 .6-.8.1-1.2-.1-.7-.4-1-.8-.4-.8-.4-1.2h0c0-.3 0-.5.1-.8s.2-.5.4-.7.4-.4.7-.5.5-.2.8-.2h0m8.2-.1h-3.2V68c0 .7-.1 1-.3 1.3h-1V71h.5v-1h4.2v1h.5v-1.6h-.8v-4.7zM91.8 68v-3H94v4.2h-2.4c.2-.4.3-.8.2-1.3m8.7-1h-3v-2.4H97v5h.5v-2.3h3v2.3h.5v-5h-.5V67zm5-2.5c-.5 0-1 .1-1.5.4s-.8.7-1 1.2-.3 1-.2 1.5.3 1 .7 1.4.8.6 1.3.8 1 .1 1.5-.1 1-.5 1.2-1 .5-1 .5-1.5V67c0-.3-.1-.7-.2-1s-.3-.6-.5-1-.5-.4-.8-.6-.7-.2-1-.2h0zm0 .5c.4 0 .8.1 1.2.3s.6.6.8 1 .2.8.2 1.2-.3.8-.6 1-.7.5-1 .6-1 .1-1.2-.1-.7-.4-1-.8-.4-.8-.4-1.2h0c0-.3 0-.5.1-.8s.2-.5.4-.7.4-.4.7-.5.5-.2.8-.2h0m11.4-.1h-.6l-1.8 2.3h-1v-2.3h-.5v5h.5v-2.3h1l2 2.3h.6l-2-2.6 2-2.6zm3.7 3l-1.6-3h-.6l2 3.6-.2.5c-.1.2-.2.4-.4.5s-.4.2-.6.2h-.1v.5h.2c.6 0 1-.2 1.5-1l2.2-4.2h-.6l-1.6 3zm7.3-3h-3V68c0 .7-.1 1-.3 1.3h-1V71h.5v-1h4.2v1h.5v-1.6h-.8v-4.7zm-2.7 3.4v-3h2.2v4.2H125c.2-.4.3-.8.2-1.3zm7.7-3.4h-.4l-2 5h.5l.5-1.2h2.6l.5 1.2h.5l-2-5zm-1.3 3.5l1-2.7 1 2.7h-2.2zm12.3.1c-.2.3-.4.6-.8.8s-.7.3-1 .3c-.6 0-1-.3-1.5-.7s-.6-1-.6-1.5.2-1 .6-1.5 1-.6 1.5-.7c.4 0 .8.1 1 .3s.6.5.8.8h0 .4-.1c-.2-.4-.5-.8-1-1l-1.3-.4c-.7 0-1.3.3-1.8.8s-.7 1-.7 1.8.3 1.3.7 1.8 1 .8 1.8.8c.5 0 1-.1 1.4-.4s.7-.6 1-1v-.1l-.5-.2h0zm6.3-3.6h-.6L148 67h-1v-2.3h-.5v5h.5v-2.3h1l2 2.3h.6l-2-2.6 2-2.6zm4 0h-.4l-2 5h.5l.5-1.2h2.6l.5 1.2h.5l-2-5zM153 68l1-2.7 1 2.7h-2zm11.2-3.4h-.6l-2 2.4h-.5v-2.4h-.5V67h-.5l-2-2.4h-.6l2 2.6-2 2.5h.6l2-2.3h.5v2.3h.5v-2.3h.5l2 2.3h.6l-2-2.5 2-2.6zm1.8 5h3.4v-.5h-2.8v-2h2.8V67h-2.8v-2h2.8v-.5H166v5zm5-4.7h1.8v4.7h.5V65h1.8v-.5h-4v.5zm9.3 0v-.5H177v5h3.4V69h-2.8v-4h2.8zM2.5 28h3.8l-1 6.2h6.4l1-6.2h3.8L14 43.4h-3.8l1-5.7H4.8l-1 5.7H.1L2.5 28zM17 35.7c.3-2.2 1.5-4.2 3-5.6s3.8-2.2 6-2.3c4.3 0 7.4 3.5 6.7 8s-4.2 8-9.2 8c-4.3 0-7.4-3.5-6.7-8h0zm12 0c.4-2.4-1-4.3-3.5-4.3s-4.5 2-4.8 4.2 1 4.3 3.5 4.3 4.4-2 4.8-4.3m18 7.8h-3.8l2-11.7h-5l-1 5.6c-.6 4-2 6-6.4 6h-1l.5-3.2c.2 0 .5.1.7.1 1.3 0 2.2-.8 2.5-3.2l1.4-9h12.4L47 43.4zM52 28h3.8l-1 5.7h3c3 0 5 2 4.5 4.8-.5 3-2.5 5-6 5h-6.8L52 28zm4.3 12.3c1.3 0 2.2-.6 2.4-1.8s-.5-1.7-2-1.7h-2.5l-.6 3.5H56z"/><path d="M116.2 35.8c.3-2.2 1.4-4 3-5.6s3.8-2.2 6-2.2c4.2 0 7.3 3.5 6.6 7.8s-4.2 7.8-9 7.8c-4.2 0-7.3-3.5-6.6-7.8h0zm12 0c.4-2.3-1-4.2-3.4-4.2a5 5 0 0 0-4.8 4.2c-.4 2.3 1 4.2 3.4 4.2a5 5 0 0 0 4.8-4.2zm2.8 4.4h2.5a16 16 0 0 0 2-5.8l1-6h11.7l-2 12h2.5l-1 6.7H144l.5-3.5H134l-.5 3.5H130l1-6.7zm11.6 0l1.3-8.4h-4.3l-.4 2.6a16 16 0 0 1-1.9 5.9h5.3zm9.4-12h3.7l-1.4 9 7.6-9h4l-2.4 15.2H160l1.4-9-7.6 9h-4l2.4-15.2zm16.5 0h3.7l-1 6h6.3l1-6h3.7L180 43.4h-4l1-5.6h-6.3l-1 5.6H166l2.4-15.2zM46.8 13h-3c-.4 0-.7-.1-1-.4s-.4-.6-.4-1 .1-.7.4-1 .6-.4 1-.4h3c.4 0 .7.1 1 .4s.4.6.4 1-.1.7-.4 1-.6.4-1 .4zm7.2 7.5h-2.4c-.4 0-.7-.1-1-.4s-.4-.6-.4-1 .1-.7.4-1 .6-.4 1-.4H54c.4 0 .7.1 1 .4s.4.6.4 1-.1.7-.4 1-.6.4-1 .4zm-13.4 35H36c-.4 0-.7-.1-1-.4s-.4-.6-.4-1 .1-.7.4-1 .6-.4 1-.4h4.6c.4 0 .7.1 1 .4s.4.6.4 1-.1.7-.4 1-.6.4-1 .4zm70.7-26.8c-2.7 9.2-1.6 17.8 0 26.5 0 .1 0 .1.1.1s.1.1.1.1h-7c-.1 0-.2-.1-.2-.2-1.6-8.6-2.7-17.3 0-26.5 1.8-5 1.3-12.3 0-20.3h.4c0 1 .7 2 1.6 2 .3 0 .6-.1 1-.3s.4-.5.5-.8c0 0 0-.1.1-.1s.1-.1.1-.1.1 0 .1.1.1.1.1.1c.1.3.3.6.5.8s.6.3 1 .3.6-.1 1-.3.4-.5.5-.8c0 0 0-.1.1-.1s.1-.1.1-.1.1 0 .1.1.1.1.1.1c.1.2.2.4.3.5a42 42 0 0 1-.2 18.8m-6.3-27v4.6c0 .5-.7 1-1.5 1s-1.5-.4-1.5-1v-2c0-.5-.7-1-1.5-1H87.7c-.8 0-1.5.4-1.5 1v2c0 .5-.7 1-1.5 1s-1.5-.4-1.5-1V1.7c0-.5.7-1 1.5-1H104c.8 0 1.5.4 1.5 1M68 13H52c-.4 0-.7-.1-1-.4s-.4-.6-.4-1 .1-.7.4-1 .6-.4 1-.4h16c.4 0 .7.1 1 .4s.4.6.4 1-.1.7-.4 1-.6.4-1 .4zm3.7 7.5H59.4c-.4 0-.7-.1-1-.4s-.4-.6-.4-1 .1-.7.4-1 .6-.4 1-.4h12.3c.4 0 .7.1 1 .4s.4.6.4 1-.1.7-.4 1-.6.4-1 .4zm-2 35H46c-.4 0-.7-.1-1-.4s-.4-.6-.4-1 .1-.7.4-1 .6-.4 1-.4h23.8c.4 0 .7.1 1 .4s.4.6.4 1-.1.7-.4 1-.6.4-1 .4z"/><path d="M100.4 8.4h-.3c0 1-.6 2-1.3 2a7 7 0 0 0-1.3-1.1c0 0 0-.1-.1-.1s-.1 0-.1 0c-.1 0-.1.1-.1.1-.2.6-.7 1-1.2 1-.1 0-.2 0-.2 0-.2-.1-.4-.2-.5-.3s-.3-.3-.4-.5l-.1-.2h0c-.1-.2-.2-.2-.3 0-.1.1-.1.3-.2.4h0c-.1.1-.2.2-.3.3 0 0-.1.1-.1.1-.1.1-.2.1-.4.2-.1 0-.1 0-.2 0-.1 0-.2 0-.2 0-.1 0-.2-.1-.3-.1-.2-.1-.3-.3-.4-.5l-.1-.2c0-.1-.1-.1-.1-.2h0c-.1-.2-.2-.2-.3 0 0 0 0 0 0 0 0 .1-.1.1-.1.2 0 0 0 0 0 .1 0 .1 0 .1-.1.1 0 0 0 0 0 0l-.1.2c-.1.1-.2.2-.3.2-.1.1-.2.1-.3.1-.2 0-.3 0-.5 0-.1 0-.2-.1-.3-.1l-.2-.2c0 0-.1 0-.1-.1s-.1 0-.1-.1l-.1-.2c0 0 0 0 0-.1-.1-.1-.1-.2-.2-.4-.1-.2-.2-.2-.3 0 0 .1-.1.2-.1.3-.1.1-.1.2-.2.3 0 .1-.1.1-.2.2 0 0 0 0 0 0 0 0-.1.1-.1.1h0c-.1.1-.2.1-.3.1-.1 0-.2 0-.2 0s-.2 0-.2 0c-.2-.1-.4-.2-.5-.3s-.3-.3-.4-.5l-.1-.2h0c-.1-.2-.2-.2-.3 0-.1.2-.1.3-.2.4h0c-.1.1-.2.2-.3.3 0 0-.1.1-.1.1h0c-.1.1-.2.1-.4.2-.1 0-.1 0-.2 0-.1 0-.2 0-.2 0a1 1 0 0 1-.3-.1c-.2-.1-.4-.3-.5-.4l-.1-.1c0-.1 0 0 0-.1l-.1-.2h0c-.1-.2-.2-.2-.3 0h0c0 .1-.1.1-.1.2 0 0 0 0 0 .1 0 .1 0 .1-.1.1 0 0 0 0 0 0l-.1.2c-.1.1-.2.2-.3.2-.1.1-.2.1-.3.1-.2 0-.3 0-.5 0-.1 0-.2-.1-.3-.1l-.3-.2c0 0-.1 0-.1-.1 0 0-.1-.1-.1-.1h0c0 0 0 0 0-.1-.1-.1-.1-.2-.2-.4-.1-.2-.2-.2-.3 0 0 .1-.1.2-.1.3-.1.1-.1.2-.2.3 0 .1-.1.1-.2.2 0 0 0 0 0 0 0 0-.1.1-.1.1a1 1 0 0 1-.3.1c-.1 0-.2 0-.2 0-.1 0-.2 0-.4 0-.2-.1-.4-.2-.5-.3s-.3-.3-.4-.5v-.2h0c-.1-.2-.2-.2-.3 0 0 .2-.1.3-.2.4h0c-.1.1-.2.2-.3.3 0 0-.1.1-.1.1h0c-.1.1-.2.1-.4.2-.1 0-.1 0-.2 0-.1 0-.2 0-.3 0-.6-.2-1-1-1-2h-.4l.4 3.3a44 44 0 0 1-.4 17 46 46 0 0 0-1.5 11.9V45c0 1.4.2 2.7.5 4 1 3.7 3.6 6.4 6.5 6.4h20c.2 0-.4-4.6-.4-4.6l-.5-5c0-.2 0-.5-.1-.7l-.1-1-.2-9c0-.2 0-.6 0-1V32c0-.2.1-.6.1-1l.1-.7c0-.3.1-.6.1-1l.6-3.7c.1-.5.2-1 .4-1.5l.2-.7c0-.1 0-.1 0-.2l.4-1.3c.3-1 .4-2.2.5-3.4v-1c.1-3.2-.3-6.4-1.2-9.5h0zm-6 16.8c0 .1 0 .3 0 .4l-.3 1.6-.2.6c0 0 0 0 0 .1l-.1.3-.4 1.7c0 .1 0 .3-.1.4l-.2 1.8c0 .1 0 .3 0 .4 0 .1 0 .2 0 .3v3.2c0 .1 0 .3 0 .4 0 .1 0 .2 0 .4 0 .1 0 .3 0 .4s0 .2 0 .4 0 .3 0 .5 0 .2 0 .4v.5c0 .1 0 .2 0 .3v.8c0 .3.1.5.1.8 0 .3 0 .6-.2 1-.2.2-.4.5-.6.6 0 0 0 0 0 0 0 0-.1.1-.1.1 0 0 0 0-.1 0l-.3.2c-.1 0-.1.1-.2.1 0 0 0 0-.1 0h-.3c-.1 0-.2 0-.3.1 0 0-.1 0-.1 0h-7c-1.4 0-2.6-1.3-3.2-3-.2-.6-.3-1.3-.3-2v-2a22 22 0 0 1 .7-5.7c.6-2 .6-5 .2-8.2l-.2-1.6h.2c0 .2 0 .4.1.6s.2.3.4.4c0 0 .1 0 .1 0h.1c.1 0 .1 0 .2-.1h.1c.1 0 .1-.1.1-.1 0-.1.1-.1.1-.2 0-.1.1-.1.1 0h0c0 .1.1.2.2.2s.2.1.3.1c0 0 .1 0 .1 0s.1 0 .1 0c.1 0 .1 0 .1-.1h.1c0 0 .1-.1.1-.1 0 0 .1-.1.1-.1 0-.1 0-.1.1-.2 0 0 0 0 0 0s0 0 0 0 0 0 0 0 0 0 0 0c0 .1.1.1.1.2 0 0 0 0 0 0h0c0 0 0 0 .1.1l.1.1c0 0 0 0 0 0l.1.1c0 0 .1 0 .1 0 .1 0 .2 0 .2 0 .1 0 .1 0 .2-.1s.1-.1.1-.1v-.1c0 0 .1-.1.1-.1h0c0 0 0-.1 0-.1 0-.1.1-.1.2 0h0 0c0 0 0 0 0 .1.1.1.1.2.2.2 0 0 .1.1.2.1 0 0 .1 0 .1 0h.1c.1 0 .1 0 .2-.1l.1-.1c.1 0 .1-.1.1-.1 0-.1.1-.1.1-.2 0-.1.1-.1.2 0 0 0 0 .1 0 .1 0 .1.1.2.2.3s.2.1.3.1c0 0 .1 0 .1 0s.1 0 .1 0c.1 0 .1 0 .2-.1h.1c0 0 .1-.1.1-.1 0 0 .1-.1.1-.1s0-.1.1-.2c0-.1.1-.1.2 0 0 .1 0 .1.1.2 0 0 0 0 0 0h0c0 0 0 0 .1.1l.1.1.1.1c0 0 .1 0 .1 0 0 0 .1 0 .1 0s.1 0 .1 0c.1 0 .1 0 .1-.1s.1-.1.1-.1c0 0 .1-.1.1-.1h0c0 0 0 0 0-.1 0 0 0 0 0 0 0 0 0-.1 0-.1 0-.1.1-.1.2 0 0 0 0 .1 0 .1h0v.1c.1.1.1.2.2.2 0 0 .1.1.1.1 0 0 .1 0 .1 0h.1c.1 0 .1 0 .2-.1h.1c0 0 .1-.1.1-.1h0c0-.1.1-.1.1-.2 0-.1.1-.1.2 0h0c0 .1.1.2.2.2s.2.1.3.1c0 0 .1 0 .1 0 .1 0 .3-.1.4-.2s.2-.2.2-.4c0 0 0 0 0 0s0 0 0 0 0 0 .1 0 0 0 0 0c.2.2.4.3.6.5.4 0 .6-.4.6-1h.1c.4 1.5.7 3 .6 4.6"/></svg>