<svg xmlns="http://www.w3.org/2000/svg" width="202" height="48" fill="none"><g fill-rule="evenodd" fill="#fff"><path d="M61.86.5h1.005a2.85 2.85 0 0 1 1.756.571 2.18 2.18 0 0 1 .615.754c.145.294.222.617.224.945a.42.42 0 0 0 0 .057.34.34 0 0 1 0 .057v.177c.016.326-.048.65-.187.947s-.35.552-.613.748a2.93 2.93 0 0 1-1.794.598h-.546v2.447H61.4V5.344h-.563a2.92 2.92 0 0 1-1.81-.598c-.257-.197-.463-.452-.6-.746s-.198-.615-.182-.938V2.99c-.002-.028-.002-.056 0-.084V2.76c-.004-.332.07-.66.217-.958s.36-.558.627-.758a2.96 2.96 0 0 1 1.761-.544L61.86.5zm-2.668 2.27v.082c-.004.016-.004.033 0 .05v.046a1.47 1.47 0 0 0 .112.676c.1.214.23.403.407.553.32.267.726.413 1.144.413h.546V1.265h-.53c-.422-.02-.836.117-1.16.386a1.58 1.58 0 0 0-.371.5c-.09.2-.14.395-.148.604v.005zm3.673-1.496h-.53V4.58h.53a1.81 1.81 0 0 0 1.152-.408c.177-.153.316-.346.405-.562s.126-.45.11-.683V2.76a1.53 1.53 0 0 0-.141-.608c-.088-.19-.215-.362-.372-.502-.323-.267-.733-.406-1.152-.392v.005zm8.17 1.474H66.81v.073c-.003.012-.003.024 0 .035v.027a1.84 1.84 0 0 0 .475 1.224 1.65 1.65 0 0 0 .564.43 1.66 1.66 0 0 0 .693.155c.335.007.668-.055.978-.182a2.39 2.39 0 0 0 .707-.509l.115-.125c.04-.04.082-.087.123-.136l.672.617c-.312.374-.71.67-1.158.86-.435.17-.898.255-1.365.25h-.11c-.894-.03-1.573-.3-2.037-.843-.45-.497-.7-1.144-.696-1.814.003-.63.25-1.235.69-1.69.457-.5 1.135-.748 2.035-.748a2.32 2.32 0 0 1 .273.016c.092.01.183.026.273.046.515.106.988.356 1.365.72a2.09 2.09 0 0 1 .485.729c.108.274.157.568.143.862zm-4.042-.772h2.93a1.28 1.28 0 0 0-.44-.487 1.89 1.89 0 0 0-.631-.288c-.1-.033-.206-.05-.31-.052h-.022c-.09 0-.183.006-.273.02s-.185.04-.273.073a1.94 1.94 0 0 0-.546.272c-.172.12-.314.275-.415.457l-.02.005zm5.945-.712h-.628V.5h3.72v4.08a.5.5 0 0 1 .399.158c.096.113.146.257.14.405.002.043.002.085 0 .128a1.39 1.39 0 0 1-.033.147l-.445 1.44-.907-.084.46-1.42h-3.525l.453 1.43-.918.084-.442-1.433v-.052c.004-.01.004-.02 0-.03v-.1a.45.45 0 0 1 0-.079.58.58 0 0 1 .167-.435.64.64 0 0 1 .426-.171l1.136-3.315zm2.157 3.326V1.254h-.94c-.096-.005-.19.02-.273.068a.31.31 0 0 0-.139.171l-1.05 3.086h2.4zm6.876-1.84h-4.224v.073c-.003.012-.003.024 0 .035v.027a1.84 1.84 0 0 0 .475 1.224 1.65 1.65 0 0 0 .557.427 1.66 1.66 0 0 0 .685.158c.335.007.668-.055.978-.182.265-.125.505-.297.707-.51l.115-.125.123-.136.672.617c-.312.374-.71.67-1.158.86-.435.17-.898.255-1.365.25h-.11c-.892-.03-1.57-.3-2.037-.843-.45-.497-.7-1.144-.696-1.814.003-.63.25-1.235.69-1.69.464-.5 1.147-.748 2.048-.748a2.32 2.32 0 0 1 .273.016 2.53 2.53 0 0 1 .273.046c.515.106.988.356 1.365.72a2.09 2.09 0 0 1 .485.729c.108.274.157.568.143.862zm-4.04-.772h2.93a1.28 1.28 0 0 0-.44-.487 1.89 1.89 0 0 0-.631-.288 1.48 1.48 0 0 0-.158-.033 1.53 1.53 0 0 0-.156 0h-.01a1.86 1.86 0 0 0-.273.019c-.093.015-.185.04-.273.073a1.94 1.94 0 0 0-.546.272 1.36 1.36 0 0 0-.415.457l-.027-.014zm5.565 3.326V7.74h-.94V.5h.94v.23a2.99 2.99 0 0 1 .672-.237 3.15 3.15 0 0 1 .691-.079 2.74 2.74 0 0 1 1.75.617 2.19 2.19 0 0 1 .605.818c.135.316.193.66.17 1.002 0 .85-.26 1.492-.778 1.925a2.92 2.92 0 0 1-1.933.65c-.2 0-.38-.01-.568-.033-.206-.023-.4-.058-.612-.103l.003.01zm0-3.704v2.76c.143.072.293.13.448.17.162.04.328.068.494.084h.194c.424-.016.834-.162 1.17-.42a1.49 1.49 0 0 0 .432-.572 1.48 1.48 0 0 0 .114-.706 1.52 1.52 0 0 0-.112-.687 1.53 1.53 0 0 0-.407-.566c-.325-.267-.734-.41-1.155-.408h-.153c-.05.003-.1.008-.15.016-.153.022-.303.06-.448.114a2.5 2.5 0 0 0-.429.209v.005zm5.046-.952c.1-.04.222-.076.336-.103l.347-.073.475-.063.464-.022a4.3 4.3 0 0 1 .686.052 2.28 2.28 0 0 1 .568.158c.276.115.506.316.655.574a1.83 1.83 0 0 1 .227.911v3.263h-.887v-.23a2.44 2.44 0 0 1-.664.231 4.21 4.21 0 0 1-.904.092h-.194c-.468-.023-.924-.157-1.33-.392a1.27 1.27 0 0 1-.473-.513c-.107-.21-.152-.448-.13-.684a1.32 1.32 0 0 1 .172-.756 1.33 1.33 0 0 1 .568-.53 3.5 3.5 0 0 1 1.619-.356h.358c.158 0 .317.035.475.063l.442.095c.02-.28-.027-.56-.14-.816-.096-.155-.245-.27-.42-.324l-.175-.044c-.056-.014-.114-.024-.172-.03-.056 0-.114-.005-.172-.016H90.1a3.12 3.12 0 0 0-.724.095c-.284.07-.562.16-.833.272V.637zm.164 3.222c-.004.132.033.263.106.374a.64.64 0 0 0 .304.244c.296.13.616.194.94.188h.104a.75.75 0 0 0 .104 0 3.27 3.27 0 0 0 .598-.095 2.33 2.33 0 0 0 .492-.177V3.136l-.1-.027c-.043-.01-.084-.02-.126-.035-.123-.027-.273-.052-.448-.073-.18-.02-.364-.03-.546-.03h-.117a2.43 2.43 0 0 0-.898.204c-.13.055-.24.15-.314.27a.67.67 0 0 0-.095.403l-.01.01zm4.874 1.547l-.975-.052 1.46-4.08h-.584V.5H97.2v4.854h-.94v-4.08h-1.016c-.074-.008-.15.01-.2.052a.52.52 0 0 0-.104.125l-.016.022c-.002.007-.002.015 0 .022l-1.333 3.92zm5.273-3.45h1.674c.272-.022.546.013.804.1s.496.228.698.41c.318.3.504.714.518 1.15v.063a1.63 1.63 0 0 1-.518 1.134c-.202.184-.44.325-.697.414a2.02 2.02 0 0 1-.805.105h-2.625V.5h.95v1.466zm1.674.783h-1.674V4.59h1.674a.99.99 0 0 0 .425-.062c.136-.052.258-.133.358-.237a.91.91 0 0 0 .26-.634v-.03a.93.93 0 0 0-.273-.617.99.99 0 0 0-.354-.218 1 1 0 0 0-.414-.054h-.002zm2.788-.772V.5h.942v1.466h2.7V.5h.94v4.854h-.94V2.74h-2.7v2.616h-.942V2.74h-.64v-.783l.64.01zm6.073-1.33a2.84 2.84 0 0 1 .336-.103l.347-.073.475-.063.464-.022a4.29 4.29 0 0 1 .677.041 2.26 2.26 0 0 1 .568.158 1.34 1.34 0 0 1 .656.574 1.83 1.83 0 0 1 .221.922v3.263h-.888v-.23a2.43 2.43 0 0 1-.663.231 4.21 4.21 0 0 1-.904.092h-.194a2.95 2.95 0 0 1-1.33-.392 1.28 1.28 0 0 1-.472-.513c-.106-.21-.152-.448-.13-.683-.02-.263.04-.527.172-.756a1.33 1.33 0 0 1 .568-.53 3.5 3.5 0 0 1 1.633-.356h.358c.158 0 .316.035.475.063l.442.095a1.73 1.73 0 0 0-.139-.816.75.75 0 0 0-.421-.324l-.175-.044a1.25 1.25 0 0 0-.172-.03l-.172-.033h-.174c-.245.003-.487.035-.724.095a6.04 6.04 0 0 0-.833.272V.637zm.164 3.222a.63.63 0 0 0 .106.374c.073.11.18.196.304.244.296.13.618.194.942.188h.1a.74.74 0 0 0 .103 0c.202-.013.403-.045.6-.095.17-.04.334-.1.49-.177V3.136l-.1-.027c-.043-.01-.084-.02-.126-.035a4.95 4.95 0 0 0-.448-.073c-.18-.02-.363-.03-.546-.03h-.12c-.3.01-.615.08-.898.204-.13.055-.24.15-.315.27a.67.67 0 0 0-.095.403l-.008.01zm5.62-1.183c-.29-.07-.55-.223-.754-.44-.15-.16-.235-.367-.24-.585v-.073c.02-.148.07-.3.146-.417a1.09 1.09 0 0 1 .302-.325 1.7 1.7 0 0 1 1.108-.345h2.387v4.854h-.94V2.74h-.724c-.15.001-.292.057-.4.158a1.43 1.43 0 0 0-.334.438L114.5 5.407l-1.046-.106 1.366-2.268c.053-.08.113-.158.177-.23a.41.41 0 0 1 .148-.103c.005-.007.013-.013.02-.016h.022l-.005-.005zm.546-1.41c-.15-.007-.297.027-.43.098-.044.023-.082.055-.113.094a.36.36 0 0 0-.064.132c-.003.018-.002.023 0 .027v.024a.26.26 0 0 0 .038.13c.023.04.056.072.096.096a.65.65 0 0 0 .385.101h1.556v-.712l-1.47.01zm11.767 2.93l.418.72c-.252.152-.523.27-.806.35s-.576.127-.87.14h-.194a3.28 3.28 0 0 1-1.982-.644c-.294-.22-.528-.51-.68-.84a2.21 2.21 0 0 1-.201-1.062 2.22 2.22 0 0 1 .202-1.061 2.23 2.23 0 0 1 .68-.842c.57-.433 1.266-.666 1.982-.664h.194a4.29 4.29 0 0 1 .871.152 3.16 3.16 0 0 1 .806.351l-.413.742a1.27 1.27 0 0 0-.199-.09l-.2-.068a3.39 3.39 0 0 0-.508-.125 2.95 2.95 0 0 0-.475-.041c-.483-.013-.955.142-1.336.438a1.46 1.46 0 0 0-.418.538c-.095.2-.14.44-.128.67-.01.23.033.46.128.67s.238.396.418.54c.38.3.852.455 1.336.44.16-.001.318-.014.475-.04.172-.03.342-.073.508-.128.068-.02.134-.045.2-.073l.2-.082-.005.005zm5.983-1.455h-4.227v.073c-.002.012-.002.024 0 .035v.027c.001.45.168.887.47 1.224.155.182.346.328.563.43s.452.154.69.155c.335.007.668-.055.978-.182.264-.126.504-.298.707-.51l.114-.125.123-.136.67.617c-.3.374-.706.67-1.155.86-.435.17-.898.255-1.365.25h-.107c-.892-.03-1.57-.3-2.037-.843-.45-.497-.7-1.144-.7-1.814.008-.628.26-1.23.7-1.678.46-.506 1.138-.76 2.037-.76.092 0 .183.006.273.016a2.68 2.68 0 0 1 .274.046c.515.104.99.355 1.365.72a2.09 2.09 0 0 1 .484.729c.11.274.158.568.144.862zm-4.03-.783h2.928c-.1-.197-.252-.365-.437-.487a1.92 1.92 0 0 0-.634-.288c-.05-.014-.103-.025-.155-.033h-.178c-.09 0-.182.006-.273.02s-.185.04-.273.073c-.195.06-.38.153-.546.272a1.33 1.33 0 0 0-.432.443zM138.3.5v.764h-1.816v4.08h-.94v-4.08h-1.816V.5h4.572zm1.33 1.466h1.674c.274-.023.55.01.81.098a1.99 1.99 0 0 1 .704.413c.317.3.504.714.52 1.15v.063c-.015.43-.202.84-.52 1.134-.2.184-.44.325-.697.414s-.532.125-.805.105H138.7V.5h.953l-.013 1.466zm1.674.783h-1.674V4.59h1.674a.99.99 0 0 0 .778-.288.93.93 0 0 0 .273-.634v-.03c-.012-.232-.11-.452-.273-.617a.99.99 0 0 0-.354-.218c-.133-.047-.274-.065-.413-.054l-.01-.01z"/><path d="M44.534 40.8v.748h-1.778v4.008h-.92v-4h-1.78V40.8h4.478zm4.236 4.895c-.692.006-1.362-.243-1.882-.7a2.34 2.34 0 0 1-.604-.839 2.33 2.33 0 0 1-.183-1.016 2.19 2.19 0 0 1 .186-.996 2.2 2.2 0 0 1 .614-.807c.5-.422 1.153-.65 1.816-.645h.044a2.93 2.93 0 0 1 1.838.65 2.28 2.28 0 0 1 .624.802 2.15 2.15 0 0 1 .195.996c.013.345-.05.688-.186 1.005s-.34.6-.597.83a2.7 2.7 0 0 1-1.862.696l-.003.022zm0-.77c.215.002.428-.038.626-.12a1.59 1.59 0 0 0 .529-.356 1.63 1.63 0 0 0 .373-.567 1.65 1.65 0 0 0 .113-.668c.017-.46-.15-.9-.462-1.25a1.52 1.52 0 0 0-.536-.374 1.54 1.54 0 0 0-.644-.118 1.56 1.56 0 0 0-1.172.492c-.307.343-.467.792-.448 1.25-.01.228.03.455.1.667a1.66 1.66 0 0 0 .369.567c.15.153.328.274.526.356a1.58 1.58 0 0 0 .624.12h-.01zm7.346.636h-2.73V40.8h2.33a1.75 1.75 0 0 1 1.15.318.92.92 0 0 1 .377.707.48.48 0 0 1 0 .076.31.31 0 0 0 0 .068.89.89 0 0 1-.139.321 1.09 1.09 0 0 1-.273.272 1.24 1.24 0 0 1 .459.162c.14.084.263.194.36.325a1.52 1.52 0 0 1 .311.846v.133a1.57 1.57 0 0 1-.47 1.04c-.18.17-.396.3-.632.384a1.79 1.79 0 0 1-.734.095l-.008.016zm-1.802-2.578v1.814h1.67c.133.008.266-.01.4-.058s.237-.12.33-.214c.154-.16.24-.374.243-.596v-.082c-.03-.232-.142-.445-.317-.6a1.2 1.2 0 0 0-.849-.272l-1.467.008zm1.526-.76a.62.62 0 0 0 .391-.103.3.3 0 0 0 .09-.098c.022-.038.035-.083.038-.128v-.035c.003-.012.003-.024 0-.035a.41.41 0 0 0-.164-.196.64.64 0 0 0-.377-.092h-1.494v.688h1.515zm4.508-1.303a2.71 2.71 0 0 1 .328-.103l.34-.07.467-.062.456-.02a4.15 4.15 0 0 1 .672.052 2.23 2.23 0 0 1 .546.152 1.34 1.34 0 0 1 .639.566 1.78 1.78 0 0 1 .218.9v3.2h-.868v-.226c-.206.105-.426.18-.653.226-.3.062-.587.093-.885.093h-.188c-.46-.023-.906-.156-1.303-.386a1.23 1.23 0 0 1-.465-.502 1.24 1.24 0 0 1-.13-.67 1.3 1.3 0 0 1 .17-.741c.13-.225.323-.406.556-.52.495-.247 1.04-.373 1.595-.367h.322l.464.063.434.093c.022-.28-.025-.56-.136-.816a.75.75 0 0 0-.412-.318l-.17-.04a1.21 1.21 0 0 0-.17-.03l-.172-.016h-.17a3.1 3.1 0 0 0-.707.092 6.44 6.44 0 0 0-.819.272l.04-.827zm.158 3.157a.62.62 0 0 0 .105.367c.073.108.177.2.3.237.3.127.604.2.92.185h.1a.46.46 0 0 0 .101 0 3.07 3.07 0 0 0 .587-.093 2.28 2.28 0 0 0 .462-.169V43.4l-.1-.027-.12-.035c-.145-.032-.292-.055-.44-.07a4.39 4.39 0 0 0-.546-.033h-.117c-.303.01-.6.08-.877.2a.66.66 0 0 0-.31.265.65.65 0 0 0-.094.396l.02-.016zm6.398 1.4v2.4h-.92v-7.1h.92v.226a3.05 3.05 0 0 1 .658-.231 3.03 3.03 0 0 1 .677-.076 2.69 2.69 0 0 1 1.715.604 2.15 2.15 0 0 1 .594.801 2.14 2.14 0 0 1 .167.982c0 .834-.254 1.462-.762 1.885a2.85 2.85 0 0 1-1.895.636c-.178 0-.363 0-.546-.03a4.94 4.94 0 0 1-.598-.103l-.01-.003zm.01-3.625v2.72c.14.07.288.125.44.163.16.04.32.068.483.082h.188c.417-.013.82-.157 1.15-.4a1.45 1.45 0 0 0 .417-.56c.1-.217.128-.454.107-.7.02-.23-.016-.463-.102-.678a1.5 1.5 0 0 0-.395-.562c-.32-.262-.72-.403-1.133-.4a1.2 1.2 0 0 0-.147 0l-.15.014c-.15.022-.298.06-.44.114a2.46 2.46 0 0 0-.418.204v.003zm8.247.367a2.01 2.01 0 0 1 .777.1 1.98 1.98 0 0 1 .676.394 1.66 1.66 0 0 1 .53 1.088v.082c-.003.213-.048.422-.133.618a1.61 1.61 0 0 1-.361.519c-.328.343-.824.514-1.488.514H72.6V40.8h.92v1.436l1.64-.003zm0 2.573a.97.97 0 0 0 .409-.053c.13-.047.25-.122.35-.22a.96.96 0 0 0 .25-.62v-.03c-.004-.125-.034-.248-.088-.36a.92.92 0 0 0-.549-.48.93.93 0 0 0-.37-.04h-1.64v1.814l1.64-.01zm2.54-4.006h.92v4.756h-.92V40.8zm7.414.748H84.5V40.8h3.643v4.008a.49.49 0 0 1 .391.152.58.58 0 0 1 .14.4 1.24 1.24 0 0 1 0 .122c-.008.05-.02.097-.033.144l-.434 1.414-.9-.082.445-1.403h-3.44l.445 1.403-.9.082-.434-1.403v-.052c.004-.02.002-.025 0-.03a.42.42 0 0 0 0-.087v-.08a.56.56 0 0 1 .037-.229c.028-.073.07-.14.127-.195a.62.62 0 0 1 .421-.169l1.1-3.25zm2.105 3.263v-3.263h-.93a.47.47 0 0 0-.273.068c-.066.037-.115.097-.14.17l-1.027 3.024h2.368zm3.714.8l-.95-.05 1.428-4.008h-.56v-.74h3.632v4.756h-.923v-4h-.988c-.073-.008-.147.01-.208.052a.63.63 0 0 0-.101.122l-.016.022-1.314 3.86zm6.958-2.673a1.51 1.51 0 0 1-.732-.422.85.85 0 0 1-.243-.582v-.062c.018-.146.066-.286.142-.412a1.05 1.05 0 0 1 .298-.319c.312-.24.7-.357 1.092-.334h2.34v4.756h-.92v-2.562h-.7c-.145 0-.284.054-.4.152a1.5 1.5 0 0 0-.33.43l-1.207 2.03-1.027-.1 1.335-2.224a1.66 1.66 0 0 1 .175-.226.45.45 0 0 1 .142-.103l.022-.014c.007-.003.015-.003.022 0l-.008-.005zm.554-1.38a.78.78 0 0 0-.418.098c-.043.022-.08.054-.1.092s-.052.082-.064.13c-.002.008-.002.017 0 .025v.027a.27.27 0 0 0 .039.127c.023.038.056.07.095.093a.62.62 0 0 0 .374.098h1.526v-.688h-1.442zm11.78-.75V42.3l1.865-1.507h1.218l-1.912 1.537a1.05 1.05 0 0 1 .727.294 3.2 3.2 0 0 1 .519.617l.057.087.046.087 1.134 2.08-.92.1-1.24-2.083c-.08-.146-.195-.27-.334-.362a.92.92 0 0 0-.45-.169h-.7v2.562h-.9V43h-.666a.86.86 0 0 0-.472.147 1.17 1.17 0 0 0-.366.383l-1.24 2.08-.994-.1 1.207-2.08.046-.087.06-.087a3.06 3.06 0 0 1 .513-.62c.2-.186.463-.3.737-.294l-1.917-1.53h1.2l1.873 1.507V40.8h.918zm9.052 1.088l-2.7 2.72v.955h-.92V40.8h.92v2.72l2.7-2.72h.923v4.756h-.923v-3.668zm5.833 3.68h-2.73V40.8h2.33a1.75 1.75 0 0 1 1.15.318.93.93 0 0 1 .374.707.48.48 0 0 1 0 .076c-.002.026-.002.045 0 .068a.84.84 0 0 1-.137.321 1.08 1.08 0 0 1-.273.272 1.26 1.26 0 0 1 .458.162 1.23 1.23 0 0 1 .361.325 1.52 1.52 0 0 1 .312.846v.133a1.57 1.57 0 0 1-.473 1.039c-.18.17-.396.302-.63.385s-.486.114-.734.094l-.006.022zm-1.805-2.583v1.814h1.685a.93.93 0 0 0 .389-.058.92.92 0 0 0 .329-.214c.156-.16.244-.373.246-.596v-.082a.96.96 0 0 0-.319-.601c-.237-.196-.54-.294-.847-.272l-1.483.008zm1.524-.76a.62.62 0 0 0 .393-.103c.038-.025.07-.06.1-.098s.035-.083.038-.128v-.035c.002-.012.002-.024 0-.035-.033-.08-.1-.15-.164-.196-.114-.068-.245-.1-.377-.092h-1.494v.688h1.513zm6.417 3.454c-.692.006-1.362-.243-1.88-.7-.262-.23-.468-.518-.604-.84a2.33 2.33 0 0 1-.183-1.016 2.2 2.2 0 0 1 .8-1.803c.5-.422 1.154-.65 1.816-.645h.044a2.93 2.93 0 0 1 1.838.65 2.31 2.31 0 0 1 .623.802 2.2 2.2 0 0 1 .196.995 2.34 2.34 0 0 1-.186 1.005c-.136.317-.34.6-.598.83a2.7 2.7 0 0 1-1.862.696l-.003.022zm0-.77a1.6 1.6 0 0 0 .627-.12 1.59 1.59 0 0 0 .528-.356 1.65 1.65 0 0 0 .372-.567 1.66 1.66 0 0 0 .115-.668c.017-.46-.15-.9-.462-1.25a1.52 1.52 0 0 0-.536-.374 1.56 1.56 0 0 0-.644-.118 1.56 1.56 0 0 0-.638.122 1.55 1.55 0 0 0-.533.371c-.307.343-.467.792-.448 1.25a1.67 1.67 0 0 0 .481 1.234 1.58 1.58 0 0 0 .525.356 1.54 1.54 0 0 0 .624.12h-.01zM140 40.8v.748h-1.822v4.008h-.923v-4h-1.777V40.8H140zm2 1.436V40.8h.92v1.436h2.638V40.8h.92v4.756h-.92v-2.562H142.9v2.562h-.92v-2.562h-.636v-.76l.636-.01zm9.252 0a2 2 0 0 1 .776.1c.25.084.478.22.674.394a1.63 1.63 0 0 1 .53 1.088v.082a1.6 1.6 0 0 1-.131.617 1.62 1.62 0 0 1-.36.519c-.328.343-.824.514-1.5.514h-2.56V40.8h.92v1.436l1.64-.01zm0 2.572a.96.96 0 0 0 .409-.053.95.95 0 0 0 .348-.22.9.9 0 0 0 .25-.62v-.03c-.004-.125-.034-.248-.088-.36a.93.93 0 0 0-.225-.297c-.095-.083-.204-.145-.324-.183a.93.93 0 0 0-.37-.04h-1.638v1.814l1.638-.01zm2.52-3.998h.92v4.756h-.92V40.8zm6.657 4.756l-1.45-2-1.45 2h-1.092l1.98-2.757-1.428-2h1.092l.9 1.25.9-1.25h1.093l-1.45 2 2 2.757h-1.087zM197.337 34V21.533h4.23V15.62h-15.15v5.912h4.238V34h6.682z"/></g><path d="M197.337 21.533h-6.683V34h6.683V21.533z" fill="#fff"/><g fill-rule="evenodd"><path d="M175.763 28.824V34h6.797V15.62h-6.797v5.18h-.754v-5.18h-6.797V34h6.797v-5.178h.754zm-11.41-4.024a9.15 9.15 0 0 0-.74-3.69 9.17 9.17 0 0 0-2.166-3.082c-1.926-1.9-4.145-2.863-6.658-2.86v9.6h-.756v-9.6c-2.558 0-4.8.954-6.73 2.86-.9.878-1.63 1.93-2.12 3.095a9.3 9.3 0 0 0-.727 3.676 9.14 9.14 0 0 0 .741 3.719c.505 1.175 1.25 2.23 2.2 3.102a10 10 0 0 0 7.027 2.815 9.72 9.72 0 0 0 3.8-.705 9.77 9.77 0 0 0 3.235-2.126 9.31 9.31 0 0 0 2.158-3.1 9.29 9.29 0 0 0 .748-3.698m-27.724-.006l4.394-9.2h-8.33v4.454h-.757V15.62h-5.355V34h5.355v-5.178h.757V34h9.036l-5.1-9.2z" fill="#fff"/><path d="M136.632 24.8l4.393-9.2h-8.328V34h9.036l-5.1-9.2zm-22.87 0l8.8-4.468a10.15 10.15 0 0 0-3.099-3.379c-1.28-.876-2.74-1.45-4.277-1.676s-3.102-.1-4.58.37a10.19 10.19 0 0 0-3.95 2.339 9.15 9.15 0 0 0-2.17 3.103 9.1 9.1 0 0 0-.724 3.712 9.12 9.12 0 0 0 .746 3.707 9.16 9.16 0 0 0 2.184 3.092 10.05 10.05 0 0 0 4.018 2.38 10.16 10.16 0 0 0 4.664.328 10.14 10.14 0 0 0 4.314-1.794 10.08 10.08 0 0 0 3.044-3.534l-8.978-4.18z" fill="#fff"/><path d="M122.57 20.342c-.797-1.457-1.95-2.7-3.35-3.588s-3.006-1.43-4.668-1.548l-9.514 4.827c-.852 1.448-1.3 3.1-1.27 4.778a9.06 9.06 0 0 0 1.131 4.49l17.67-8.957zM83.8 15.62h6.1v5.912l10.022-6.575V34H94.57v-5.178h-.754V34H83.8V15.62zM66.205 27.45h-2.127V34h7.55v-5.178h.754V34h7.55v-6.55h-2.13l-5.8-12.493-5.808 12.493z" fill="#fff"/><path d="M72.38 28.824V34h7.553v-6.55H77.8l-5.42-11.696v13.07zM60.677 24.8a9.14 9.14 0 0 0-.74-3.69 9.16 9.16 0 0 0-2.168-3.082c-1.92-1.9-4.14-2.863-6.658-2.86v9.6h-.757v-9.6c-2.56 0-4.802.954-6.726 2.86a9.34 9.34 0 0 0-2.128 3.093c-.492 1.163-.74 2.415-.73 3.678-.017 1.277.234 2.543.737 3.718a9.16 9.16 0 0 0 2.185 3.102c1.88 1.822 4.406 2.833 7.03 2.815a9.79 9.79 0 0 0 3.809-.705 9.76 9.76 0 0 0 3.233-2.126 9.33 9.33 0 0 0 2.159-3.1c.5-1.17.755-2.428.75-3.698M37.368 24.8a9.13 9.13 0 0 0-.74-3.69 9.16 9.16 0 0 0-2.166-3.082c-1.926-1.9-4.145-2.863-6.658-2.86v9.6h-.756v-9.6c-2.558 0-4.8.954-6.726 2.86a9.33 9.33 0 0 0-2.128 3.093 9.31 9.31 0 0 0-.733 3.678 9.15 9.15 0 0 0 .74 3.72 9.16 9.16 0 0 0 2.189 3.102c1.88 1.822 4.406 2.833 7.03 2.815a9.84 9.84 0 0 0 3.81-.705 9.76 9.76 0 0 0 3.233-2.126c.924-.876 1.66-1.93 2.158-3.1s.754-2.428.747-3.698" fill="#fff"/><path d="M36.016 19.95a10.42 10.42 0 0 0-1.551-1.917c-1.928-1.905-4.148-2.86-6.66-2.86v9.616h-.756v9.648h.37a9.8 9.8 0 0 0 3.81-.705c1.2-.487 2.3-1.2 3.234-2.13a10.23 10.23 0 0 0 1.551-1.931v-9.72zm57.797-.987l6.1-4.014V34H94.57v-5.18h-.756v-9.858zm81.945 9.857V34h6.803V15.62h-6.803v5.183h-.753v8.02h.753zm-12.755-8.87a10.27 10.27 0 0 0-1.554-1.917c-1.926-1.905-4.145-2.86-6.658-2.86v9.616h-.756v9.65h.37a9.76 9.76 0 0 0 3.81-.705 9.7 9.7 0 0 0 3.232-2.13c.595-.578 1.117-1.226 1.554-1.93V19.95zm-120.86 0a10.32 10.32 0 0 1 1.548-1.917c1.924-1.905 4.143-2.86 6.658-2.86v9.616h.756v9.65h-.37c-1.304.023-2.6-.216-3.8-.7a9.74 9.74 0 0 1-3.233-2.124 10.14 10.14 0 0 1-1.554-1.931l.005-9.73zM6.05 15.654h4.874c.628-.007 1.248.142 1.803.433s1.03.715 1.38 1.234a5.48 5.48 0 0 1 1.051 3.19 5.06 5.06 0 0 1-.451 2.306 5.12 5.12 0 0 1-1.393 1.678c.625.288 1.15.85 1.58 1.686a6.81 6.81 0 0 1 .642 2.937 5.06 5.06 0 0 1-1.338 3.484 4.19 4.19 0 0 1-1.473 1.097c-.567.253-1.183.377-1.803.363H0V27.5h8.277v-.737h-5.23v-5.2h5.23v-.73H6.05v-5.2z" fill="#fff"/><path d="M15.16 20.842a4.73 4.73 0 0 1-.445 1.974 5.12 5.12 0 0 1-1.401 1.678c.625.288 1.15.85 1.58 1.686.43.92.65 1.923.642 2.937a5.07 5.07 0 0 1-1.338 3.484c-.404.47-.907.844-1.474 1.097a4.21 4.21 0 0 1-1.803.364H0V27.5h8.277v-.737h-5.23v-5.19h5.23v-.73h6.884z" fill="#fff"/><path d="M15.15 26.763a5.95 5.95 0 0 1 .207.737h-7.08v-.737h6.873z" fill="#fff"/><path d="M15.358 27.5c.113.537.174 1.083.18 1.632a5.07 5.07 0 0 1-1.338 3.47c-.404.47-.907.844-1.474 1.097a4.21 4.21 0 0 1-1.803.364H0V27.5h15.358z" fill="#fff"/></g></svg>