<svg xmlns="http://www.w3.org/2000/svg" xmlns:xlink="http://www.w3.org/1999/xlink" width="148" height="98" fill="none"><g fill="#fff"><path d="M9.256 82.414c0 2.34-2.458 3.348-4.954 3.348s-4.3-1.063-4.3-2.68a1.46 1.46 0 0 1 .091-.574 1.46 1.46 0 0 1 .309-.493 1.47 1.47 0 0 1 .477-.335c.18-.08.374-.12.57-.123a1.45 1.45 0 0 1 .556.105 1.43 1.43 0 0 1 .471.312 1.42 1.42 0 0 1 .418 1.024 1.3 1.3 0 0 1-.381.98 1.31 1.31 0 0 1-.452.293c-.17.066-.35.095-.532.087.626.45 1.378.688 2.15.685 1.638 0 2.586-.92 2.586-2.665 0-1.33-.546-2.77-2.892-2.77v-.63c2.168 0 2.53-1.474 2.53-2.553 0-1.422-.63-2.36-2.06-2.36a2.92 2.92 0 0 0-1.404.346c-.432.23-.8.563-1.07.97a1.35 1.35 0 0 1 .618-.006c.204.046.394.14.555.27a1.34 1.34 0 0 1 .375.49c.085.2.124.397.115.605a1.37 1.37 0 0 1-.105.554 1.42 1.42 0 0 1-.313.469c-.135.134-.295.24-.47.3a1.43 1.43 0 0 1-.556.104 1.47 1.47 0 0 1-.572-.118c-.18-.077-.344-.2-.48-.33a1.46 1.46 0 0 1-.407-1.065c0-1.632 1.502-3.312 4.37-3.312 1.8 0 4.32.664 4.32 2.86 0 1.675-1.48 2.627-3.823 3.024 2.764.288 4.265 1.332 4.265 3.187m13.28-2.873c0 3.565-2.458 6.2-6.144 6.2-3.87 0-6.147-2.575-6.147-6.2 0-3.562 2.458-6.208 6.147-6.208 3.867 0 6.144 2.572 6.144 6.208zm-2.982.18c0-3.13-1.464-5.67-3.343-5.67-1.756 0-2.985 2.108-2.985 5.3 0 3.133 1.464 5.67 3.345 5.67 1.753 0 2.982-2.105 2.982-5.3zm16.53-.18c0 3.565-2.458 6.2-6.144 6.2-3.87 0-6.147-2.575-6.147-6.2 0-3.562 2.458-6.208 6.147-6.208 3.867 0 6.144 2.572 6.144 6.208zm-2.982.18c0-3.13-1.464-5.67-3.342-5.67-1.753 0-2.982 2.108-2.982 5.3 0 3.133 1.464 5.67 3.342 5.67 1.753 0 2.982-2.105 2.982-5.3zm15.206-5.4v10.44l.183.18h1v.63h-5.15v-.63h.994l.18-.18v-8.2l-4.787 6.66v1.53l.18.18h.994v.63h-5.153v-.63h.994l.183-.18V74.33l-.183-.182h-.994v-.628H41.9v.628h-.994l-.18.182v7.74l4.787-6.66v-1.08l-.18-.182h-.994v-.628h5.15v.628h-1l-.183.182zm13.834 0v10.44l.18.18h.994v.63h-5.15v-.63h.994l.18-.18v-5.13h-4.8v5.132l.18.18h.994v.63h-5.15v-.63h.994l.18-.18V74.33l-.18-.182h-.994v-.628h5.15v.628h-.994l-.18.182V79h4.8v-4.68l-.18-.182h-.994v-.628h5.15v.628h-.994l-.18.182zm11.772 0v10.44l.18.18h1v4.318h-.6c-.18-2.34-.923-3.687-2.657-3.687h-4.43c-1.734 0-2.477 1.36-2.657 3.688h-.595v-4.32h1.23c.776-2.25 1.12-7.02 1.14-10.62l-.18-.182H64.6v-.628h10.5v.628h-.994l-.186.182zm-2.802 0l-.18-.182H67.52l-.18.182c-.02 2.752-.183 7.8-1.092 10.62h4.7l.18-.18-.01-10.44zm6.26 10.044a1.35 1.35 0 0 1 .098-.535 1.36 1.36 0 0 1 .301-.454 1.38 1.38 0 0 1 .456-.3 1.37 1.37 0 0 1 .537-.098c.634 0 1.365.65 1.174 1.784.868-.218 1.23-.816 1.988-2.34l-5-8.278h-.994v-.63h5.478v.63h-1.05l-.18.18 3.1 5.398h.1l2.657-5.398-.18-.18H84.32v-.63H88v.63h-.994l-4.014 7.83c-1.065 2.07-1.734 3.78-4 3.78-.904 0-1.592-.596-1.592-1.387zm20.8-1.9l.5.413c-1.284 1.7-2.93 2.864-5.153 2.864H93.5c-3.5 0-6.128-2.6-6.128-6.138 0-3.674 2.837-6.282 6.417-6.282a6.3 6.3 0 0 1 2.982.718l.273-.544h.633l.45 4.014-.595.18c-.994-2.592-2.332-3.655-3.796-3.655-2.223 0-3.38 2.466-3.38 5.42s1.14 5.382 3.687 5.382c1.573 0 2.892-.935 4.14-2.377"/><path d="M110.55 76.744l-.598.18c-.87-2.07-2.368-2.77-3.668-2.77h-.02v10.62l.18.18h.994v.63h-5.15v-.63h.994l.18-.18v-10.62c-1.302 0-2.8.702-3.67 2.77l-.595-.18.724-3.222h9.904l.724 3.222zm11.257.05c0 2.306-2.457 3.565-4.52 3.565H115.2v4.4l.18.18h1.447v.628h-5.603v-.628h1.002l.18-.18V74.33l-.18-.18h-.994v-.63h6.046c2.242 0 4.52.9 4.52 3.263v.01zm-2.982.133c0-1.78-1.092-2.787-2.258-2.787H115.4l-.18.18v5.398h1.365c1.2 0 2.26-.683 2.26-2.8m14.937-2.59v10.44l.18.18h.994v.63h-5.15v-.63h.994l.18-.18v-8.2l-4.8 6.66v1.53l.18.18h.994v.63h-5.15v-.63h.994l.18-.18V74.33l-.18-.182h-.994v-.628h5.15v.628h-.994l-.18.182v7.74l4.8-6.66v-1.08l-.18-.182h-.994v-.628h5.15v.628h-.994l-.18.182zm12.943 0v10.44l.18.18h.996v.63h-5.153v-.63h.994l.18-.18V80h-.776c-.994 0-1.302.574-2.007 2.034l-1.698 3.535h-3.65v-.63c.505-.1.94-.163 1.318-.936l1.14-2.377c.525-1.115 1.013-1.675 1.863-1.925-1.502-.468-2.786-1.566-2.786-3.097 0-2.195 2.28-3.095 4.52-3.095h6.056v.628h-.985l-.192.193zm-2.8 0l-.18-.182h-1.174c-1.158 0-2.258.83-2.258 2.43 0 1.925 1.065 2.8 2.258 2.8h1.366l-.01-5.04zM23.167 91.98v2.872l.046.027h.57v1.814h-.25c-.038-.906-.273-1.55-.9-1.55h-1.22c-.617 0-.852.645-.9 1.55h-.248V94.88h.546c.306-.596.404-2.222.404-2.9l-.038-.038h-.6v-.272h3.2v.272h-.562l-.046.05zm-.606 0l-.038-.038h-.98l-.038.038c0 .544-.03 2.124-.35 2.9h1.365l.038-.038.003-2.872zm5.516 0v2.872l.038.038h.57v.264H26.86V94.9h.57l.038-.038v-2.154l-1.82 1.814v.34l.038.038h.568v.264h-1.82V94.9h.568l.038-.038V91.98l-.038-.038h-.568v-.267h1.82v.267h-.568l-.038.038v2.154l1.82-1.814v-.34l-.038-.038h-.57v-.267h1.824v.267h-.57l-.038.038zm1.125 1.466c-.013-.242.025-.485.1-.712a1.75 1.75 0 0 1 .389-.607 1.76 1.76 0 0 1 .601-.4c.226-.1.47-.133.712-.125.707 0 1.338.386 1.338.944a.38.38 0 0 1-.226.383c-.05.022-.1.033-.154.033a.38.38 0 0 1-.378-.378c-.004-.1.026-.176.084-.245a.36.36 0 0 1 .227-.125 1.16 1.16 0 0 0-.898-.348c-.82 0-1.144.666-1.144 1.496 0 .992.53 1.566 1.182 1.566.404 0 .8-.242 1.14-.696l.205.174c-.38.522-.82.816-1.45.816a1.71 1.71 0 0 1-.684-.126c-.217-.088-.413-.22-.576-.388s-.3-.367-.372-.585a1.69 1.69 0 0 1-.106-.684m7.056-.7l-.23.063c-.197-.658-.516-.854-1.147-.862v2.9l.038.038h.582v.272h-1.824v-.25h.57l.038-.038v-2.9c-.584 0-.942.166-1.155.862l-.227-.062.175-1.063h3.004l.175 1.063zm4.448.66c0 1.088-.653 1.83-1.565 1.83a1.25 1.25 0 0 1-.714-.174 1.26 1.26 0 0 1-.493-.544v2.23l.038.038h.87v.272H36.72v-.272h.568l.038-.038V91.98l-.038-.038h-.568v-.272l1.14-.035.038.035v.645h.038c.117-.217.3-.4.504-.526a1.37 1.37 0 0 1 .703-.192c.912 0 1.565.7 1.565 1.797v.005zm-.685.087c0-1-.4-1.55-.986-1.55-.418 0-.82.272-1.092.906v1.137c.273.642.683.906 1.092.906.576 0 .986-.408.986-1.398zm4.864-1.507v2.872l.038.038h.57v.264H43.67V94.9h.57l.038-.038v-2.154l-1.822 1.814v.34l.038.038h.568v.264H41.24V94.9h.568l.038-.038V91.98l-.038-.038h-.568v-.267h1.822v.267h-.568l-.038.038v2.154l1.822-1.814v-.34l-.038-.038h-.57v-.267h1.824v.267h-.57l-.038.038zm1.267 1.284c0-1.588.336-3.484 2.507-3.576.273 0 .418-.082.464-.204h.205c.136.326 0 .816-.647.816-1.8 0-2.078 1.066-2.223 2.3.218-.544.866-.832 1.48-.832a1.69 1.69 0 0 1 .667.126 1.68 1.68 0 0 1 .563.378c.16.163.284.357.367.57a1.67 1.67 0 0 1 .111.667 1.7 1.7 0 0 1-.124.67 1.74 1.74 0 0 1-.377.57 1.55 1.55 0 0 1-.57.376 1.72 1.72 0 0 1-.673.123c-.934 0-1.748-.696-1.748-1.966v-.005zm2.8.234c0-.832-.273-1.474-1.024-1.474-.63 0-1.092.658-1.092 1.474s.273 1.474 1.024 1.474c.63 0 1.092-.658 1.092-1.474zm1.178 1.382h.57l.038-.038v-2.86l-.038-.038h-.57v-.272h1.822v.272h-.568l-.038.038v1.172h.606c.98 0 1.603.286 1.603.968s-.623 1.033-1.603 1.033H50.13v-.275zm1.912 0c.546 0 .844-.285.844-.74s-.273-.734-.844-.734h-.702v1.436l.038.038h.664zm7.263-1.464c0 1.118-.735 1.814-1.592 1.814s-1.595-.696-1.595-1.814h-.912v1.436l.038.038h.568v.272h-1.82V94.9h.57l.038-.038v-2.87l-.038-.038h-.57v-.272h1.82v.272h-.568l-.038.038v1.172h.926c.106-.96.8-1.55 1.58-1.55.857 0 1.592.693 1.592 1.814zm-.683 0c0-.892-.393-1.55-.948-1.55-.677 0-.874.642-.874 1.55s.393 1.55.948 1.55c.677 0 .874-.642.874-1.55zm4.618-.676l-.227.063c-.2-.658-.516-.854-1.147-.862v2.9l.038.038h.568v.272h-1.82v-.25h.57l.038-.038v-2.9c-.587 0-.942.166-1.155.862l-.227-.062.172-1.063h3.004l.186 1.063zm4.053.676c-.012.34-.124.67-.323.95s-.475.492-.795.615a1.75 1.75 0 0 1-1.883-.412 1.74 1.74 0 0 1-.356-1.887 1.74 1.74 0 0 1 .641-.773c.285-.2.62-.3.963-.292a1.75 1.75 0 0 1 .688.135 1.73 1.73 0 0 1 .578.396 1.72 1.72 0 0 1 .373.592c.082.22.12.456.106.7l.008-.014zm-.7.014c0-.892-.47-1.55-1.092-1.55-.75 0-1.024.642-1.024 1.55s.47 1.55 1.092 1.55c.75 0 1.024-.642 1.024-1.55zm5.094-.03c0 1.088-.653 1.83-1.565 1.83a1.26 1.26 0 0 1-.714-.175 1.25 1.25 0 0 1-.493-.543v2.23l.038.038h.874v.272h-2.114v-.272h.546l.038-.038V91.98l-.038-.038h-.546v-.272l1.14-.035.038.035v.645h.038c.117-.217.3-.4.504-.526a1.37 1.37 0 0 1 .703-.192c.912 0 1.565.7 1.565 1.797l-.014.005zm-.67.087c0-1-.4-1.55-1-1.55-.415 0-.82.272-1.092.906v1.137c.273.642.685.906 1.092.906.58 0 1-.408 1-1.398z"/><path d="M72.432 93.446c-.013-.242.025-.485.1-.712a1.75 1.75 0 0 1 .389-.607 1.76 1.76 0 0 1 .601-.4c.226-.1.47-.133.712-.125.707 0 1.335.386 1.335.944a.38.38 0 0 1-.361.397.38.38 0 0 1-.274-.097c-.037-.033-.067-.074-.088-.118s-.034-.093-.036-.143a.36.36 0 0 1 .086-.245c.058-.068.14-.113.228-.125a1.16 1.16 0 0 0-.898-.348c-.82 0-1.144.666-1.144 1.496 0 .992.53 1.566 1.182 1.566.404 0 .8-.242 1.14-.696l.205.174c-.38.522-.82.816-1.45.816a1.71 1.71 0 0 1-.684-.126 1.7 1.7 0 0 1-.576-.388 1.69 1.69 0 0 1-.478-1.269m7.765 1.44v.272h-1.193L78.3 93.92c-.213-.37-.532-.43-.942-.43v1.36l.038.038h.57v.272h-1.824v-.272h.57l.038-.038v-2.87l-.038-.038h-.57v-.272h1.824v.272h-.57l-.038.038v1.245c1.382 0 1.1-1.632 2.24-1.632.063-.005.127.002.187.023a.48.48 0 0 1 .163.095c.048.043.085.094.1.15a.46.46 0 0 1 .042.183.45.45 0 0 1-.13.327.44.44 0 0 1-.15.1.47.47 0 0 1-.177.035c-.12-.007-.233-.06-.317-.146a.47.47 0 0 1-.131-.322c-.418.286-.464.906-1.04 1.202.165.001.325.05.463.14a.85.85 0 0 1 .313.367l.418.742c.166.302.568.354.857.392m4.177-.067a.84.84 0 0 1-.309.305c-.128.073-.273.1-.42.1a.61.61 0 0 1-.675-.454c-.138.15-.307.268-.496.347s-.392.115-.596.108c-.82 0-1.253-.454-1.253-.998s.448-.998 1.253-.998c.204-.007.407.03.596.1a1.42 1.42 0 0 1 .496.346v-.802c0-.612-.197-.982-.775-.982a1.33 1.33 0 0 0-.819.226c.068.037.125.1.163.158a.41.41 0 0 1 .055.22.38.38 0 0 1-.378.378c-.053-.001-.106-.012-.155-.034s-.092-.054-.128-.093a.38.38 0 0 1-.096-.294c0-.53.73-.862 1.42-.862s1.313.256 1.313 1.172v1.798c0 .144.055.318.243.318.136 0 .243-.12.35-.25l.213.174zm-1.404-.786a1.32 1.32 0 0 0-.434-.328 1.33 1.33 0 0 0-.53-.126c-.478 0-.784.258-.784.658s.306.658.784.658a1.33 1.33 0 0 0 .53-.126 1.47 1.47 0 0 0 .434-.328v-.408zm4.874-2.048v2.872l.038.038h.568v.272h-1.82V94.9h.57l.038-.038v-1.18h-.16c-.18-.024-.363.004-.527.08a.94.94 0 0 0-.399.352l-.606 1.047h-.86v-.272c.118-.012.23-.054.326-.123a.67.67 0 0 0 .22-.269l.243-.45c.1-.215.28-.383.502-.468-.464-.158-.844-.492-.844-.922 0-.688.72-.984 1.45-.984h1.86v.272h-.568l-.03.044zm-.606 0l-.038-.038h-.448c-.546 0-.896.256-.896.734 0 .52.34.732.896.732h.486V91.98zm7.63 2.9v.272h-1.193l-.713-1.232c-.213-.37-.532-.43-.942-.43v1.36l.038.038h.568v.272h-1.822v-.272h.57l.035-.038v-2.87l-.035-.038h-.57v-.272h1.822v.272h-.568l-.038.038v1.245c1.382 0 1.1-1.632 2.24-1.632.063-.005.127.002.187.023a.48.48 0 0 1 .163.095c.048.043.085.094.1.15a.46.46 0 0 1 .01.359c-.022.056-.056.107-.098.15a.44.44 0 0 1-.15.1.47.47 0 0 1-.176.035c-.12-.007-.233-.06-.317-.146a.47.47 0 0 1-.131-.322c-.418.286-.464.906-1.04 1.202a.85.85 0 0 1 .462.139c.137.1.245.217.3.367l.418.742c.167.302.57.354.86.392m3.858-1.463a1.74 1.74 0 0 1-.33.946c-.2.276-.48.488-.8.6s-.67.144-1.004.07a1.75 1.75 0 0 1-.876-.493 1.74 1.74 0 0 1-.457-.892 1.75 1.75 0 0 1 .112-.996 1.76 1.76 0 0 1 .645-.77c.285-.2.62-.288.964-.288a1.74 1.74 0 0 1 .688.135 1.73 1.73 0 0 1 .578.396 1.59 1.59 0 0 1 .373.592c.073.222.12.456.106.7zm-.683 0c0-.892-.47-1.55-1.092-1.55-.754 0-1.027.642-1.027 1.55s.472 1.55 1.092 1.55c.75 0 1.024-.642 1.024-1.55m5.69-1.436v2.872l.04.038h.606v.264h-1.898V94.9h.532l.04-.038V92.66h-.04l-1.062 2.42h-.57l-1.138-2.556h-.04v2.328l.04.038h.532v.264h-1.556V94.9h.606l.038-.038V91.98l-.038-.038h-.606v-.267h1.327l1.27 2.837h.038l1.237-2.837h1.3v.267h-.606l-.04.038zm4.88 0v2.872l.04.038h.57v.264h-1.824V94.9h.57l.038-.038V91.98l-.038-.038h-1.67l-.04.038v2.872l.04.038h.57v.264h-1.824V94.9h.57l.038-.038V91.98l-.038-.038h-.57v-.267h4.178v.267h-.57l-.04.038zm4.922 2.834a.85.85 0 0 1-.73.416.61.61 0 0 1-.674-.454c-.14.15-.308.268-.496.346a1.43 1.43 0 0 1-.596.108c-.803 0-1.25-.454-1.25-.998s.448-.998 1.25-.998a1.43 1.43 0 0 1 .595.109 1.41 1.41 0 0 1 .497.345v-.802c0-.612-.2-.982-.776-.982a1.34 1.34 0 0 0-.819.226.42.42 0 0 1 .166.157.4.4 0 0 1 .055.22.37.37 0 0 1-.126.26.38.38 0 0 1-.537-.031c-.067-.075-.102-.173-.096-.274 0-.53.73-.862 1.42-.862s1.314.256 1.314 1.172v1.798c0 .144.052.318.243.318.136 0 .243-.12.35-.25l.2.174zm-1.404-.786a1.32 1.32 0 0 0-.434-.328 1.33 1.33 0 0 0-.53-.126c-.48 0-.784.258-.784.658s.303.658.784.658a1.33 1.33 0 0 0 .53-.126 1.32 1.32 0 0 0 .434-.328v-.408zm5.538-2.048v2.872l.038.038h.568v.264h-1.82V94.9h.57l.036-.038v-1.436h-1.822v1.436l.04.038h.57v.264h-1.824V94.9h.57l.038-.038V91.98l-.038-.038h-.57v-.267h1.824v.267h-.57l-.04.038v1.172h1.822V91.98l-.036-.038h-.57v-.267h1.82v.267h-.568l-.038.038zm4.914 0v2.872l.038.038h.568v.264h-1.82V94.9h.568l.038-.038v-2.154l-1.82 1.814v.34l.038.038h.568v.264h-1.82V94.9h.57l.04-.038V91.98l-.04-.038h-.57v-.267h1.82v.267h-.568l-.038.038v2.154l1.82-1.814v-.34l-.038-.038h-.568v-.267h1.82v.267h-.568l-.038.038zm4.244 0v2.872l.038.038h.568v.272h-1.824V94.9h.57l.038-.038v-1.18h-.16c-.18-.024-.363.004-.527.08a.95.95 0 0 0-.399.352l-.614 1.047h-.86v-.272a.68.68 0 0 0 .326-.123c.096-.07.172-.162.22-.27l.243-.45c.1-.215.28-.383.502-.468-.464-.158-.843-.492-.843-.922 0-.688.72-.984 1.45-.984h1.86v.272h-.55l-.038.044zm-.606 0l-.038-.038h-.448c-.546 0-.896.256-.896.734 0 .52.342.732.896.732h.486V91.98z"/><use xlink:href="#B"/><path d="M73.907 49.868a.77.77 0 0 0-.543.224.76.76 0 0 0-.225.54v6.883a.76.76 0 0 0 .225.54.77.77 0 0 0 1.085 0 .76.76 0 0 0 .225-.54v-6.883c0-.203-.08-.397-.225-.54a.77.77 0 0 0-.543-.224zm0-10.324a.77.77 0 0 0-.294.058c-.093.038-.178.095-.25.166a.76.76 0 0 0-.225.54v6.883a.76.76 0 0 0 .225.54.77.77 0 0 0 1.085 0 .76.76 0 0 0 .225-.54V40.3a.76.76 0 0 0-.058-.292.79.79 0 0 0-.166-.248.77.77 0 0 0-.543-.224z"/><use xlink:href="#B" x="13.837"/><path d="M80.832 39.544a.77.77 0 0 0-.543.224.76.76 0 0 0-.224.54v6.883c0 .203.08.397.225.54a.77.77 0 0 0 1.085 0 .76.76 0 0 0 .225-.54V40.3a.76.76 0 0 0-.225-.54c-.07-.07-.156-.127-.25-.166a.77.77 0 0 0-.294-.058zM73.907 14.5a1.66 1.66 0 0 0 .96-.3c.284-.2.506-.458.637-.773a1.71 1.71 0 0 0 .098-.995 1.72 1.72 0 0 0-.474-.881 1.73 1.73 0 0 0-1.886-.37 1.73 1.73 0 0 0-.775.635 1.82 1.82 0 0 0-.3.957 1.72 1.72 0 0 0 .507 1.216 1.73 1.73 0 0 0 1.221.503zm-.857-5.078h1.712c.104 0 .206-.023.3-.068a.68.68 0 0 0 .37-.469c.022-.1.02-.205-.005-.306l-.855-7.274a.68.68 0 0 0-.241-.374.69.69 0 0 0-.422-.146c-.152 0-.302.05-.422.146a.68.68 0 0 0-.241.374L72.39 8.58c-.025.1-.026.204-.005.305a.68.68 0 0 0 .129.276c.064.08.145.147.238.192s.195.07.298.07zm-16.42 26.68a.77.77 0 0 0-.294.058c-.093.038-.178.095-.25.166a.74.74 0 0 0-.166.248.77.77 0 0 0-.058.292v3.443c0 .203.08.397.225.54a.77.77 0 0 0 1.085 0 .76.76 0 0 0 .225-.54v-3.443a.76.76 0 0 0-.225-.54.77.77 0 0 0-.543-.224z"/><path d="M68.724 43.754c.001.34-.1.674-.3.957s-.46.505-.775.635-.663.165-1 .1a1.73 1.73 0 0 1-.886-.471 1.72 1.72 0 0 1-.474-.881 1.71 1.71 0 0 1 .098-.995 1.72 1.72 0 0 1 .637-.773 1.75 1.75 0 0 1 .96-.3 1.73 1.73 0 0 1 1.221.503 1.72 1.72 0 0 1 .507 1.215zM40.12 67.457V58.28h5.374v9.178h1.538V61.72H56.6c.187.004.37-.057.515-.174a.79.79 0 0 0 .282-.463.76.76 0 0 0-.015-.33.78.78 0 0 0-.154-.293.74.74 0 0 0-.264-.2.77.77 0 0 0-.324-.071h-9.6v-5.35h9.558c.187.004.37-.057.515-.174a.79.79 0 0 0 .282-.463.76.76 0 0 0-.015-.33.77.77 0 0 0-.154-.293.75.75 0 0 0-.264-.2.77.77 0 0 0-.324-.071h-9.6v-1.904H59.32v16.06h1.535V37.633h26.1v29.824H88.5V36.102h-6.914V30.75h12.3v1.904H91.23c-.187-.004-.37.057-.515.174a.79.79 0 0 0-.282.463.76.76 0 0 0 .016.329c.03.107.082.207.154.292a.77.77 0 0 0 .586.271h2.687v5.355H91.23c-.187-.004-.37.057-.515.174a.79.79 0 0 0-.282.463.76.76 0 0 0 .016.329c.03.107.082.207.154.292a.77.77 0 0 0 .586.271h2.687v5.354H90.42v21.03h1.535V47.956h8.83v19.5h1.535V54.84h5.377v1.904h-2.646c-.187-.004-.37.058-.516.174a.8.8 0 0 0-.285.462c-.018.1-.012.222.018.33a.77.77 0 0 0 .742.561h2.687v1.904h-2.646a.8.8 0 0 0-.801.636c-.018.1-.012.222.018.33a.76.76 0 0 0 .155.292.77.77 0 0 0 .263.201c.1.047.212.072.324.072h2.687V63.6h-2.646a.8.8 0 0 0-.801.636c-.018.1-.012.222.018.33a.77.77 0 0 0 .742.562h2.687v2.295h1.537V54.088c0-.1-.02-.2-.058-.293a.76.76 0 0 0-.166-.25.75.75 0 0 0-.25-.166.78.78 0 0 0-.294-.058h-6.145v-6.13c.001-.1-.02-.2-.057-.293a.74.74 0 0 0-.166-.248.78.78 0 0 0-.25-.166.76.76 0 0 0-.294-.057H95.4v-16.44c0-.203-.08-.398-.225-.542a.77.77 0 0 0-.545-.225H81.586v-2.676a.76.76 0 0 0-.22-.536.77.77 0 0 0-.534-.229h-2.977c-1.434-3.36-1.453-9.493-1.453-9.56 0-.2-.08-.394-.222-.537a.77.77 0 0 0-.537-.227h-3.465a.77.77 0 0 0-.543.224.76.76 0 0 0-.224.54c0 .065-.02 6.195-1.453 9.56h-2.963a.77.77 0 0 0-.543.224.76.76 0 0 0-.224.54v6.12H53.172a.77.77 0 0 0-.541.222c-.144.142-.225.335-.227.537v16.44H46.26a.77.77 0 0 0-.543.224.76.76 0 0 0-.225.54v6.12H39.35a.77.77 0 0 0-.544.223.75.75 0 0 0-.167.248.76.76 0 0 0-.059.293v9.942l1.538.005zm32.816-50.472h1.944c.05 1.702.273 5.847 1.33 8.795h-4.607c1.057-2.948 1.283-7.092 1.333-8.794zM67.764 27.32h12.3v8.795H78.14v-6.086a.79.79 0 0 0-.174-.514.8.8 0 0 0-.465-.283.79.79 0 0 0-.33.017.77.77 0 0 0-.493.417.79.79 0 0 0-.072.322v6.116h-1.912v-2.635a.79.79 0 0 0-.174-.513c-.117-.145-.28-.245-.465-.28a.77.77 0 0 0-.623.17c-.085.072-.154.16-.2.262a.76.76 0 0 0-.071.322v2.676H71.25V30.03c.004-.186-.058-.368-.175-.514a.8.8 0 0 0-.464-.283c-.1-.018-.224-.013-.332.017a.77.77 0 0 0-.495.417.76.76 0 0 0-.072.323v6.116h-1.9l-.035-8.784zM53.942 34.2H66.23v1.904h-6.914V49.87h-1.9V43.8a.79.79 0 0 0-.174-.513c-.117-.145-.28-.245-.465-.28a.77.77 0 0 0-.623.17c-.085.072-.154.16-.2.262a.76.76 0 0 0-.071.322v6.12H53.96l-.018-15.68z"/><use xlink:href="#C"/><use xlink:href="#C" x="24.188"/><path d="M74.674 67.457v-6.5c0-.203-.08-.397-.225-.54a.77.77 0 0 0-1.085 0 .76.76 0 0 0-.225.54v6.5h1.535z"/><use xlink:href="#C" x="38.012"/><path d="M95.4 67.457V50.632a.77.77 0 0 0-1.296-.512c-.143.134-.23.317-.24.512v16.825h1.537zm3.446 0V50.632c0-.203-.08-.397-.225-.54a.77.77 0 0 0-1.085 0 .76.76 0 0 0-.225.54v16.825h1.535z"/></g><defs ><path id="B" d="M66.995 49.868a.77.77 0 0 0-.543.224c-.144.143-.225.338-.225.54v6.883a.76.76 0 0 0 .225.54.77.77 0 0 0 1.085 0 .76.76 0 0 0 .225-.54v-6.883c0-.203-.08-.397-.225-.54a.77.77 0 0 0-.543-.224z"/><path id="C" d="M43.574 67.457v-6.5c0-.203-.08-.397-.225-.54a.77.77 0 0 0-1.085 0c-.144.143-.225.338-.225.54v6.5h1.535z"/></defs></svg>