<svg xmlns="http://www.w3.org/2000/svg" width="154" height="40" fill="#fff"><path d="M152.7 13.98h-16.5c-.28 0-.48.02-.47.4v4.23c0 .3.1.4.4.4h5.5c.32 0 .47.1.44.44v19.9c0 .42.1.56.53.54h3.86c.6 0 .6 0 .6-.63V19.52c0-.4.1-.54.5-.53h5.35c.14 0 .27.02.4.04v-5.07l-.58.02M43.9 27.23c.2-7.6-5.93-13.4-12.44-13.6a13.1 13.1 0 0 0-13.25 13.15C18 33.56 23.6 39.92 31 39.94c7.17.02 12.7-5.97 12.9-12.72h.01zM31.03 34.8c-4.45 0-7.87-3.84-7.84-8.07a8.1 8.1 0 0 1 7.96-7.95 8 8 0 0 1 7.66 8.06 7.9 7.9 0 0 1-7.8 7.96"/><path d="M100.03 13.63a13.1 13.1 0 0 0-12.97 13.18c-.2 6.75 5.38 13.12 12.82 13.14 7.2 0 12.78-6.1 12.88-12.96.1-7.26-5.9-13.3-12.72-13.36zm-.18 21.16a7.8 7.8 0 0 1-5.53-2.36 8.1 8.1 0 0 1-2.28-5.64c-.04-4.3 3.6-8.06 7.94-8a8 8 0 0 1 7.68 8.04 7.9 7.9 0 0 1-7.81 7.97zm33.13-20.9h-17.35c-.58 0-.58 0-.58.57V39.3c0 .4.1.52.5.5h3.82c.68 0 .68 0 .68-.68V19.5c0-.58 0-.58.58-.58h7.27c.7 0 .7 0 .7.72v19.62c0 .43.1.56.53.54H133c.6 0 .6 0 .6-.6V14.5c0-.6 0-.6-.6-.6M14.18 25.43a.3.3 0 0 1-.12-.13c-.02-.05-.05-.1-.06-.17s0-.12.02-.18.05-.1.1-.15c1.13-1.68 1.4-3.56 1.07-5.53-.34-1.82-1.35-3.44-2.82-4.52a7 7 0 0 0-5.1-1.32 7.1 7.1 0 0 0-4.71 2.71 6.9 6.9 0 0 0-1.31 2.59c-.05.17-.15.37.14.43l4.67 1 .16-.36c.14-.3.35-.6.62-.8s.58-.36.9-.42a2.1 2.1 0 0 1 1 .05c.33.1.62.27.87.5.88.87.9 2.25.07 3.34-.73.96-1.76 1.36-2.86 1.65-.15.04-.36.1-.42.22l-.93 1.85 1.56.24A5.7 5.7 0 0 1 11 29.09c.82 1.36.8 2.98-.02 4.1-1.62 2.17-5.07 1.68-6.02-.74-.1-.2-.2-.27-.4-.2l-1.36.36-3.2.83.12.46c1.15 3.74 4.93 6.36 9.23 5.8 1.9-.26 3.65-1.17 4.95-2.6 1.8-1.88 2.5-4.15 2.26-6.72a7.8 7.8 0 0 0-2.4-4.93m56.77 1.78c.2-7.6-5.93-13.4-12.44-13.6a13.1 13.1 0 0 0-13.25 13.15c-.22 6.78 5.38 13.14 12.78 13.16 7.2.02 12.72-5.97 12.9-12.72h.01zM58.06 34.8c-4.45 0-7.87-3.84-7.84-8.07a8.1 8.1 0 0 1 7.97-7.95 8 8 0 0 1 7.66 8.06 7.9 7.9 0 0 1-7.79 7.96z"/><path d="M73.05 30.96h11.9c.06 0 .1-.02.16-.07s.06-.1.06-.16v-3.98c0-.06-.02-.12-.06-.16s-.1-.07-.16-.07h-11.9c-.06 0-.1.02-.16.07s-.06.1-.06.16v3.98c0 .06.02.12.06.16s.1.07.16.07zM42.8 2.5c-.3 0-.4.1-.45.44L41.8 6.1c0 .1-.03.23-.03.27 0 .2.1.24.32.24.3 0 .4-.1.44-.43L43.1 3c.02-.1.03-.2.03-.3 0-.2-.08-.24-.3-.24m39.87.04c-.3 0-.4.1-.45.44l-.55 3.2a1.6 1.6 0 0 0-.02.23c0 .2.1.24.32.24.3 0 .38-.08.44-.43l.55-3.2a1.7 1.7 0 0 0 .02-.25c0-.2-.08-.24-.3-.24m-27.74.07h-.3l-.38 2.2h.32c.3 0 .43-.1.5-.44l.2-1.18c.02-.1.03-.2.04-.3 0-.2-.1-.25-.36-.25"/><path d="M71.4 2.98l-.1.56c-.02.12-.03.24-.04.36 0 .2.1.27.35.27h.32l.28-1.63h-.32c-.3 0-.43.07-.5.43m-3.74-.77l-.83 2.9h.63l.2-2.9zm-17 .3c-.3 0-.4.1-.45.44l-.58 3.43c0 .2.1.24.32.24.3 0 .38-.08.44-.43l.58-3.45c0-.2-.08-.24-.3-.24m-44.72 2a4.8 4.8 0 0 1-.7 2.04h.93l.7-3.97h-.6L5.93 4.5z"/><path d="M23.2 2.56h-.3l-.38 2.2h.3c.3 0 .43-.1.5-.44l.2-1.18a2.7 2.7 0 0 0 .04-.31c0-.2-.1-.25-.36-.25M32 6.1l.1-.65c.02-.1.03-.18.03-.27 0-.2-.1-.27-.35-.27h-.3l-.28 1.6h.3c.3 0 .43-.08.5-.43m4.12-1.15h-.3l-.28 1.6h.3c.3 0 .43-.1.5-.43l.1-.65c.02-.1.03-.18.03-.27 0-.2-.1-.27-.35-.27m115.68-.1h-35.92l.84-4.8H1.74L0 9.6h153.28l-1.48-4.8zM7.56 8.83H6.3l.2-1.22H4.72l-.2 1.22H3.25l.4-2.3h.3c.4-.67.55-1.04.75-2.22l.5-2.83h3.27L7.6 6.53H8l-.4 2.3zm3.36-1.22l.8-3.96L9.97 7.6H8.3l1.07-6.13h1.3l-.8 4.07 1.8-4.07h1.63L12.2 7.6h-1.28zm6.2-4.07h-1.28a6.3 6.3 0 0 0 .12-.81c0-.18-.08-.23-.3-.23-.28 0-.35.1-.4.43l-.58 3.45c0 .17.08.2.3.2.27 0 .37-.08.43-.43l.14-.84h1.28l-.1.63c-.23 1.38-.57 1.72-1.9 1.72-1.16 0-1.6-.2-1.6-1a4.4 4.4 0 0 1 .08-.72l.5-2.84c.24-1.4.62-1.72 2.1-1.72 1.05 0 1.38.25 1.38.95a7.2 7.2 0 0 1-.15 1.19V3.5zm2 4.07h-1.4l.88-5.06h-.95l.18-1.08h3.3l-.18 1.08H20l-.88 5.06zm3.4-1.78h-.22L22 7.6h-1.4l1.07-6.13h1.4c1.3 0 1.9.17 1.9 1.07 0 .17-.02.34-.05.5L24.7 4.3c-.22 1.24-.8 1.53-2.2 1.53h-.01zm4.9 1.78l.8-3.96-1.75 3.96H24.8l1.07-6.13h1.28l-.8 4.07 1.8-4.07h1.64L28.7 7.6h-1.27zm6.23-5.05h-1.78l-.23 1.3h.23c1.17 0 1.68.24 1.68 1.06a3 3 0 0 1-.05.5l-.1.63c-.24 1.33-.88 1.58-2.4 1.58h-1.4l1.07-6.13h3.2l-.2 1.08zm4.2 2.84l-.1.63c-.24 1.33-.88 1.58-2.4 1.58h-1.42L35 1.48h1.4L36 3.85h.23c1.17 0 1.68.24 1.68 1.06a3 3 0 0 1-.05.5h.01zm6.65-2.28L44 5.96c-.27 1.47-.6 1.72-2.1 1.72-1.18 0-1.6-.2-1.6-1a4.8 4.8 0 0 1 .08-.79l.18-.98H40l-.47 2.7h-1.4l1.07-6.13h1.4l-.4 2.37h.55l.13-.72c.25-1.4.63-1.72 2.13-1.72 1.17 0 1.6.2 1.6 1a4 4 0 0 1-.07.71h-.02zm2.04 4.48h-1.4l.88-5.05h-.95l.18-1.08h3.3l-.18 1.08h-.97l-.86 5.05zm5.33-1.64c-.27 1.46-.6 1.72-2.1 1.72-1.18 0-1.6-.2-1.6-1a4.4 4.4 0 0 1 .04-.73l.5-2.84c.24-1.4.63-1.72 2.13-1.72 1.17 0 1.6.2 1.6 1 0 .24-.03.48-.07.7l-.48 2.84zm2.45-.14h-.22l-.3 1.78h-1.4l1.07-6.13h1.4c1.3 0 1.9.17 1.9 1.07 0 .17-.02.34-.05.5l-.22 1.24c-.22 1.24-.8 1.53-2.2 1.53h-.01zm4.83-3.32c-.28 0-.35.1-.4.43l-.58 3.45c0 .17.08.2.3.2.28 0 .37-.08.42-.43l.15-.84h1.28l-.1.62c-.23 1.38-.57 1.72-1.9 1.72-1.17 0-1.6-.2-1.6-1 .01-.24.03-.48.07-.72l.5-2.84c.24-1.4.62-1.72 2.1-1.72 1.04 0 1.38.25 1.38.95a7.2 7.2 0 0 1-.15 1.19h-1.28a6.3 6.3 0 0 0 .12-.81c0-.18-.08-.23-.3-.23h.01zm3.94 5.1l-.6-2.8L62 7.6h-1.4l1.07-6.13h1.4l-.46 2.64L64 1.5h1.43l-1.65 2.88.77 3.25H63.1zm5.64 0H67.3l.1-1.5h-.9l-.42 1.5h-1.4l1.96-6.13h2.24l-.14 6.13zm4 0h-1.4l.4-2.36h-.2L70.46 7.6h-1.4l1.24-2.5c-.17-.07-.3-.2-.4-.35s-.13-.34-.1-.52c.02-.4.08-.78.16-1.16.23-1.33.88-1.57 2.42-1.57h1.4l-1.05 6.13zm5.43 0l-.6-2.8-.48 2.8h-1.4l1.07-6.13h1.4L77.7 4.1l1.37-2.64h1.43l-1.65 2.88.77 3.25h-1.46zm5.75-1.65c-.27 1.46-.6 1.72-2.1 1.72-1.18 0-1.6-.2-1.6-1a4.4 4.4 0 0 1 .07-.73l.5-2.84c.24-1.4.63-1.72 2.13-1.72 1.17 0 1.6.2 1.6 1 0 .24-.03.48-.07.7l-.52 2.84zm4.94 1.64l.98-5.2L88 7.6h-1.56V2.4l-.8 5.2h-1.22l1.07-6.13h2.02V6.3l1.66-4.83h2L90.1 7.6h-1.26zm4.28 0L94 2.56h-.72L92.4 7.6H91l1.07-6.13h3.54L94.54 7.6h-1.42zm6.04 0h-1.42l.1-1.5h-.9l-.42 1.5h-1.4l1.96-6.13h2.23l-.15 6.13zm2.7 0l.47-2.7h-.72l-.47 2.7h-1.4l1.06-6.13h1.4l-.4 2.37h.72l.4-2.37h1.4l-1.06 6.13h-1.4zm4.9 0l.8-3.96-1.74 3.96h-1.67l1.06-6.13h1.28l-.8 4.07 1.8-4.07h1.64l-1.06 6.13h-1.28zm5.6 0h-1.4l.4-2.36h-.2L110.1 7.6h-1.4l1.25-2.53c-.17-.07-.3-.2-.4-.35s-.13-.34-.1-.52a7.5 7.5 0 0 1 .16-1.16c.23-1.33.88-1.57 2.42-1.57h1.4l-1.06 6.13z"/><path d="M98.07 2.2l-.83 2.9h.63l.2-2.9zm12.95.78l-.1.56a2.9 2.9 0 0 0-.04.36c0 .2.1.27.35.27h.32l.28-1.63h-.32c-.3 0-.43.07-.5.43"/></svg>