<?xml version="1.0" encoding="utf-8"?><svg viewBox="0 0 184 48" xmlns="http://www.w3.org/2000/svg" xmlns:xlink="http://www.w3.org/1999/xlink"><style>:root>svg{display:none}:root>svg:target{display:block}</style><svg fill="none" viewBox="0 0 44 44" id="arrowTop" xmlns="http://www.w3.org/2000/svg"><path d="M1 22C1 10.402 10.402 1 22 1s21 9.402 21 21-9.402 21-21 21S1 33.598 1 22z" stroke="#d40f14" stroke-width="2"/><path id="arrow-svg" d="M22.707 11.293a1 1 0 00-1.414 0l-6.364 6.364a1 1 0 001.414 1.414L22 13.414l5.657 5.657a1 1 0 001.414-1.414l-6.364-6.364zM23 32V12h-2v20h2z" fill="#d40f14"/></svg><svg fill="#d40f14" viewBox="0 0 184 48" id="kadr-logo" xmlns="http://www.w3.org/2000/svg"><path fill-rule="evenodd" d="M44.165 0H3.255C2.39.006 1.56.353.95.965s-.952 1.44-.95 2.3V44.32a3.26 3.26 0 00.951 2.301c.6.612 1.438.96 2.303.965h40.91a3.28 3.28 0 002.303-.965 3.26 3.26 0 00.951-2.301V3.267c.001-.862-.34-1.69-.95-2.3S45.03.006 44.165 0zm-1.008 42.59a.98.98 0 01-.287.69.99.99 0 01-.691.29l-36.936.12a.981.981 0 01-.378-.076.98.98 0 01-.531-.535.922.922 0 01-.07-.377v-12.31c-.001-.26.102-.507.285-.69s.43-.288.69-.29h11.324V17.646a.98.98 0 01.194-.585.987.987 0 01.505-.355.942.942 0 01.34-.053h11.322V4.88a.98.98 0 01.284-.691.974.974 0 01.69-.29h12.274a.99.99 0 01.692.291.98.98 0 01.286.691l.004 37.71z"/><path d="M117.126 33.84h3.087c.948 0 1.664-.158 2.144-.478s.738-.94.738-1.853-.247-1.53-.738-1.853-1.207-.478-2.144-.478h-3.087v4.663zm-3.188 4.317V27.584a.82.82 0 01.056-.307.79.79 0 01.171-.261.745.745 0 01.253-.18.74.74 0 01.304-.06h6.456c3.404 0 5.1 1.577 5.113 4.73s-1.7 4.73-5.113 4.73h-4.052v1.92a.79.79 0 01-.06.307.78.78 0 01-.175.259.763.763 0 01-.562.235h-1.6a.79.79 0 01-.308-.06.77.77 0 01-.258-.175.75.75 0 01-.178-.256.76.76 0 01-.058-.306v-.008zm-13.72-9.768v-.805a.77.77 0 01.227-.576.78.78 0 01.264-.175.79.79 0 01.313-.056h10.734a.78.78 0 01.573.229.79.79 0 01.175.265.78.78 0 01.054.313v.796a.76.76 0 01-.054.309.77.77 0 01-.175.26.81.81 0 01-.263.172.78.78 0 01-.31.054h-3.773v8.993a.74.74 0 01-.058.304.714.714 0 01-.178.254.76.76 0 01-.257.17.75.75 0 01-.303.056h-1.6a.775.775 0 01-.304-.057.79.79 0 01-.258-.17.77.77 0 01-.176-.254.736.736 0 01-.057-.303v-8.993h-3.778a.78.78 0 01-.311-.054.804.804 0 01-.264-.172.78.78 0 01-.175-.261.76.76 0 01-.054-.309l.007.01zm-13.6 9.768V27.584a.76.76 0 01.06-.31.77.77 0 01.178-.259.76.76 0 01.265-.18.85.85 0 01.316-.06h1.576a.75.75 0 01.305.06.72.72 0 01.254.18.78.78 0 01.175.26c.04.098.06.202.058.308v3.82h5.823v-3.82a.77.77 0 01.06-.308c.04-.098.102-.186.178-.26s.16-.137.258-.178a.77.77 0 01.308-.061h1.574a.77.77 0 01.579.239.79.79 0 01.179.259.773.773 0 01.063.3v10.573a.78.78 0 01-.06.306.76.76 0 01-.179.256.8.8 0 01-.262.175.81.81 0 01-.3.06H96.45a.825.825 0 01-.566-.226.73.73 0 01-.238-.557v-4.366h-5.832v4.366a.74.74 0 01-.058.303c-.04.096-.1.182-.176.254s-.16.13-.257.17-.2.058-.303.057h-1.576c-.106 0-.212-.02-.3-.06s-.187-.1-.263-.174a.74.74 0 01-.247-.562zm-12.907-.02v-10.57c-.002-.105.02-.2.06-.306s.102-.184.178-.256.163-.132.26-.17a.79.79 0 01.306-.057h9.75a.75.75 0 01.564.239.79.79 0 01.175.26.81.81 0 01.06.308v.796a.77.77 0 01-.234.566.76.76 0 01-.258.174c-.097.04-.2.06-.306.057H76.9v2.47h6.346a.76.76 0 01.56.235.79.79 0 01.172.262.78.78 0 01.055.308v.8a.78.78 0 01-.234.566.77.77 0 01-.255.175.75.75 0 01-.304.058h-6.346v2.506h7.354a.72.72 0 01.3.056.73.73 0 01.251.173.77.77 0 01.225.559v.816a.76.76 0 01-.237.563.78.78 0 01-.568.233h-9.706a.81.81 0 01-.573-.241.795.795 0 01-.173-.264.8.8 0 01-.058-.31v-.004zm-14.984.023v-10.6a.75.75 0 01.058-.306.73.73 0 01.177-.256.79.79 0 01.26-.171.76.76 0 01.306-.058h1.593a.75.75 0 01.305.06.72.72 0 01.254.18.93.93 0 01.175.26.79.79 0 01.06.308v8.967h5.686v-8.988a.78.78 0 01.059-.303.784.784 0 01.172-.257.78.78 0 01.258-.17.79.79 0 01.305-.058h1.6a.75.75 0 01.562.239.79.79 0 01.175.26.81.81 0 01.06.308v8.967h.913a.77.77 0 01.308.059.74.74 0 01.258.178.88.88 0 01.177.26c.04.098.06.203.06.308v.798a.76.76 0 01-.236.564.777.777 0 01-.26.174.78.78 0 01-.307.059H59.537a.825.825 0 01-.307-.06.78.78 0 01-.259-.175.754.754 0 01-.177-.256.75.75 0 01-.058-.306v.006zM166.97 6.42c0-.286.153-.427.46-.427h.7a.59.59 0 01.581.427c.16.397.525.594 1.085.6s.926-.2 1.07-.6a.6.6 0 01.593-.427h.708c.308 0 .465.145.465.427a2.3 2.3 0 01-.776 1.831 3.44 3.44 0 01-4.099 0 2.31 2.31 0 01-.596-.829 2.286 2.286 0 01-.178-1.003h-.005zm-3.415 14.843V10.7a.763.763 0 01.057-.313.77.77 0 01.18-.263.81.81 0 01.272-.175c.102-.04.2-.058.32-.054h1.54a.82.82 0 01.581.228.75.75 0 01.179.256.8.8 0 01.06.306v8.497l4.835-8.482a1.8 1.8 0 01.534-.568c.178-.142.397-.225.626-.237h2.506c.105-.002.2.018.305.06a.75.75 0 01.254.178.79.79 0 01.172.261.77.77 0 01.058.307v10.573a.76.76 0 01-.062.308.753.753 0 01-.185.255.92.92 0 01-.268.175.81.81 0 01-.315.058h-1.544a.81.81 0 01-.313-.058.79.79 0 01-.265-.175.835.835 0 01-.18-.257.77.77 0 01-.061-.307v-7.878l-4.43 7.878a1.71 1.71 0 01-.555.564c-.2.144-.44.225-.686.233h-2.807a.81.81 0 01-.308-.058.69.69 0 01-.26-.175.852.852 0 01-.18-.257.75.75 0 01-.059-.307zm-5.643.017V10.7a.79.79 0 01.059-.308.78.78 0 01.175-.26c.075-.074.158-.137.254-.178s.2-.06.305-.06h1.6a.76.76 0 01.312.057.75.75 0 01.261.18.81.81 0 01.173.26.77.77 0 01.058.307V21.27c.002.105-.02.2-.06.307s-.103.184-.18.257-.16.134-.258.174a.78.78 0 01-.306.059h-1.6a.78.78 0 01-.301-.051.77.77 0 01-.258-.163.737.737 0 01-.177-.253.72.72 0 01-.057-.303v-.01zm-9.793-1.6h3.484c.947 0 1.42-.54 1.42-1.616s-.474-1.617-1.42-1.618h-3.484v3.235zm-3.188 1.576V10.7a.77.77 0 01.054-.311c.04-.1.098-.2.173-.265a.78.78 0 01.264-.174c.1-.04.206-.058.313-.054h1.6a.75.75 0 01.306.059.74.74 0 01.254.178.88.88 0 01.175.26.79.79 0 01.059.308v3.335h3.484c1.332 0 2.434.356 3.306 1.067s1.307 1.697 1.305 2.957-.43 2.246-1.314 2.955-1.972 1.067-3.297 1.067h-5.9a.716.716 0 01-.296-.06.7.7 0 01-.242-.179.824.824 0 01-.215-.574l-.01-.013zm-11.104-6.7h4.526a1.19 1.19 0 00.46-.069 1.2 1.2 0 00.398-.24 1.31 1.31 0 00.25-.402 1.15 1.15 0 00.068-.469 1.086 1.086 0 00-.06-.466 1.09 1.09 0 00-.648-.653 1.1 1.1 0 00-.467-.066h-4.528v2.366zm0 5.218h4.84a1.27 1.27 0 00.546-.084 1.26 1.26 0 00.458-.307 1.58 1.58 0 00.343-1.068 1.56 1.56 0 00-.348-1.067 1.26 1.26 0 00-.455-.307 1.296 1.296 0 00-.544-.086h-4.84v2.92zm-3.2-9.074c-.001-.106.02-.2.06-.308s.102-.186.178-.26a.77.77 0 01.258-.177.81.81 0 01.308-.06h6.878a6.58 6.58 0 012.1.318c.634.214 1.196.6 1.623 1.112.454.563.7 1.27.667 2 0 .87-.38 1.615-1.14 2.235 1.087.583 1.632 1.527 1.626 2.838 0 1.167-.433 2.07-1.3 2.7a5.2 5.2 0 01-3.183.961h-7.28a.78.78 0 01-.307-.059.813.813 0 01-.26-.174.74.74 0 01-.178-.257.75.75 0 01-.06-.307V10.7zm-11.3 2.25c-.572.68-.857 1.7-.857 3.034s.285 2.356.857 3.036c.572.675 1.494 1.013 2.766 1.014 1.286 0 2.195-.34 2.766-1.014s.857-1.7.857-3.036-.285-2.348-.857-3.034-1.5-1.02-2.766-1.02-2.2.34-2.766 1.02zm-2.315 7.86c-1.154-1.014-1.73-2.622-1.733-4.827s.576-3.814 1.733-4.827 2.853-1.52 5.08-1.52 3.92.507 5.08 1.52c1.152 1.016 1.73 2.625 1.73 4.827s-.575 3.8-1.73 4.827-2.847 1.522-5.08 1.522-3.926-.507-5.08-1.522zm-11.753-3.854h3.087c.95 0 1.666-.158 2.157-.478s.735-.94.735-1.85-.244-1.53-.735-1.853-1.207-.478-2.157-.478h-3.087v4.66zm-3.197 4.317V10.7a.82.82 0 01.057-.307.79.79 0 01.17-.26.794.794 0 01.254-.178.74.74 0 01.304-.059h6.457c3.405 0 5.1 1.577 5.1 4.73s-1.7 4.73-5.1 4.73h-4.045v1.92a.77.77 0 01-.058.307c-.04.097-.1.185-.176.26s-.16.135-.255.175a.76.76 0 01-.305.058h-1.593a.78.78 0 01-.566-.234.77.77 0 01-.177-.257.75.75 0 01-.058-.306l-.01-.01zm-11.57-1.595h5.97v-7.383H93.95a1.97 1.97 0 00-1.32.444 2.244 2.244 0 00-.716 1.234L90.5 19.678zm-4.717 1.603v-.822a.76.76 0 01.232-.559.746.746 0 01.252-.173.74.74 0 01.3-.058h.643l1.572-6.422c.542-2.223 2.376-3.337 5.5-3.34h4.573c.104 0 .207.02.303.06a.79.79 0 01.257.171.78.78 0 01.232.558V21.28a.74.74 0 01-.232.555.78.78 0 01-.562.213h-12.28a.76.76 0 01-.306-.058.77.77 0 01-.258-.173.774.774 0 01-.231-.566l.015.02zM76 16.72h5.36v-4.434h-2.4c-.5-.01-1 .153-1.414.464s-.7.75-.8 1.244L76 16.72zm-4.487 4.558l2.125-8.085c.57-2.193 2.442-3.305 5.612-3.308h4.562a.64.64 0 01.518.237.81.81 0 01.214.551V21.28a.72.72 0 01-.058.303.73.73 0 01-.178.252.8.8 0 01-.566.213h-1.6a.77.77 0 01-.57-.213.78.78 0 01-.172-.263.77.77 0 01-.053-.309v-2.135h-6.003l-.568 2.135a1 1 0 01-.384.572 1.03 1.03 0 01-.628.213h-1.67a.58.58 0 01-.278-.052.574.574 0 01-.22-.177.55.55 0 01-.12-.348c0-.064.013-.13.02-.213v.02zm-12.767-.032V10.7a.813.813 0 01.06-.312.79.79 0 01.176-.265.875.875 0 01.257-.183.76.76 0 01.309-.063h1.593a.74.74 0 01.559.245.81.81 0 01.175.265.8.8 0 01.059.312v4.057h1.82c.468.008.927-.134 1.308-.406a4.06 4.06 0 001.072-1.317l1.3-2.35c.3-.542.705-.818 1.22-.822h1.955c.214 0 .35.077.4.237.01.04.017.08.017.12a1.01 1.01 0 01-.146.465l-1.844 3.352a4.913 4.913 0 01-.894 1.206 2.79 2.79 0 01-1.286.67c.442.12.84.366 1.147.704a7.88 7.88 0 011.038 1.281l2.114 3.38a.85.85 0 01.144.427.4.4 0 01-.026.145c-.056.154-.193.228-.414.228h-1.93c-.254-.01-.5-.1-.712-.23a1.81 1.81 0 01-.592-.566l-1.503-2.378A5.07 5.07 0 0065.05 17.6a2 2 0 00-1.3-.438h-1.82v4.125a.73.73 0 01-.057.303.72.72 0 01-.177.253.823.823 0 01-.258.163.75.75 0 01-.3.05H59.54a.77.77 0 01-.566-.239.79.79 0 01-.235-.574M178.914 3.905a.89.89 0 01.893.888v38.003a.897.897 0 01-.893.888H56.326a.895.895 0 01-.632-.26.89.89 0 01-.263-.628V4.793a.89.89 0 01.263-.628.895.895 0 01.632-.26h122.588zm0-3.905H56.326c-1.277 0-2.5.505-3.404 1.404a4.78 4.78 0 00-1.41 3.39v38.003c.001 1.27.508 2.5 1.4 3.4a4.82 4.82 0 003.404 1.404h122.588a4.823 4.823 0 003.409-1.403 4.81 4.81 0 001.046-1.556 4.765 4.765 0 00.367-1.837V4.8a4.78 4.78 0 00-.369-1.835 4.9 4.9 0 00-1.045-1.555 4.656 4.656 0 00-1.564-1.038 4.83 4.83 0 00-1.844-.363z"/></svg><svg fill="none" viewBox="0 0 18 18" id="mail" xmlns="http://www.w3.org/2000/svg"><path d="M8.93 0C3.985 0 0 3.985 0 8.93s3.985 8.93 8.93 8.93 8.93-3.985 8.93-8.93C18 3.985 14.015 0 8.93 0zm0 3.16l5.36 3.298H3.7L8.93 3.16zm5.36 8.656c0 .55-.275.962-.825.962h-8.93a.939.939 0 01-.962-.962v-5.22l5.084 3.16h.55l5.084-3.16v5.22z" fill="#d40f14"/></svg><svg fill="none" viewBox="0 0 18 18" id="phone" xmlns="http://www.w3.org/2000/svg"><path d="M9 18A9 9 0 109 0a9 9 0 100 18z" fill="#d40f14"/><path d="M4.814 5.65c0-.628.21-1.047.42-1.674a1.63 1.63 0 01.837-.837c0-.21.21-.21.42-.42s.42-.21.628 0c.628.837 1.047 1.674 1.674 2.72.21.21 0 .42-.21.628s-.628.42-.837.628c-.21 0-.42.42-.21.628 0 .42.21.628.42.837.42.628.837 1.465 1.465 2.093.21.42.628.837.837 1.047 0 .21.21.21.42.21h.21c.21-.21.42-.42.837-.628.21-.21.42-.21.628 0 .628.837 1.047 1.675 1.675 2.72.21.21 0 .628-.21.628-.42.21-.837.21-1.046.42-.42.21-.628.21-1.047.21-.837-.21-1.465-.42-2.302-1.046-.628-.42-1.256-1.256-1.884-1.884-.837-1.256-1.674-2.512-2.093-3.767L4.814 6.28v-.63z" fill="#fff"/></svg></svg>